<svg width="710" height="294" viewBox="0 0 710 294" fill="none" xmlns="http://www.w3.org/2000/svg">
<g clip-path="url(#clip0)">
<rect x="0.5" width="709" height="294" fill="black"/>
<mask id="mask0" mask-type="alpha" maskUnits="userSpaceOnUse" x="0" y="0" width="710" height="294">
<rect x="0.5" width="709" height="294" fill="white"/>
</mask>
<g mask="url(#mask0)">
</g>
<path d="M63.152 62.84C62.8533 61.2533 61.7333 60.46 59.792 60.46C58.84 60.46 58.0933 60.656 57.552 61.048C57.0293 61.4213 56.768 61.8787 56.768 62.42C56.768 62.9613 56.936 63.3907 57.272 63.708C57.6267 64.0067 58.168 64.2867 58.896 64.548L62.844 66.088C64.188 66.6107 65.224 67.2733 65.952 68.076C66.68 68.86 67.044 69.8493 67.044 71.044C67.044 72.6867 66.428 73.9933 65.196 74.964C63.964 75.916 62.2093 76.392 59.932 76.392C57.916 76.392 56.2827 75.8973 55.032 74.908C53.632 73.8253 52.8947 72.2947 52.82 70.316H56.096C56.096 71.8093 56.8707 72.752 58.42 73.144C58.8867 73.2747 59.5027 73.34 60.268 73.34C61.0333 73.34 61.7427 73.1533 62.396 72.78C63.0493 72.388 63.376 71.8747 63.376 71.24C63.376 70.5867 63.1987 70.092 62.844 69.756C62.4893 69.4013 61.9107 69.0747 61.108 68.776L57.496 67.348C56.096 66.8067 55.0227 66.172 54.276 65.444C53.5293 64.716 53.156 63.708 53.156 62.42C53.156 60.908 53.744 59.7133 54.92 58.836C56.1147 57.9213 57.7293 57.464 59.764 57.464C61.8173 57.464 63.3947 57.94 64.496 58.892C65.616 59.8253 66.26 61.1413 66.428 62.84H63.152ZM75.6595 57.828H79.8035L85.7675 76H82.2675L81.0075 72.08H74.2595L72.9715 76H69.4715L75.6595 57.828ZM75.0995 69.588H80.1955L77.6755 61.776L75.0995 69.588ZM89.9578 57.828L93.9618 65.08L98.1618 57.828H102.054L95.5858 68.496V76H92.2818V68.496L86.0378 57.828H89.9578ZM109.738 57.828H124.298V60.684H118.67V76H115.366V60.684H109.738V57.828ZM130.381 57.828V65.416H138.305V57.828H141.609V76H138.305V68.3H130.381V76H127.077V57.828H130.381ZM146.846 57.828H150.15V76H146.846V57.828ZM155.322 57.828H167.026V60.684H158.626V65.472H166.494V68.328H158.626V73.116H167.026V76H155.322V57.828ZM185.252 63.4C185.252 64.688 184.888 65.7893 184.16 66.704C183.432 67.6187 182.387 68.2533 181.024 68.608L185.896 76H181.584L177.58 68.916H175.06V76H171.756V57.828H178.476C180.623 57.828 182.294 58.3413 183.488 59.368C184.664 60.3573 185.252 61.7013 185.252 63.4ZM178.168 66.704C179.382 66.704 180.296 66.4333 180.912 65.892C181.528 65.332 181.836 64.604 181.836 63.708C181.836 62.7933 181.556 62.0653 180.996 61.524C180.436 60.964 179.596 60.684 178.476 60.684H175.06V66.704H178.168ZM200.414 57.828L208.422 70.708V57.828H211.726V76H208.366L200.106 62.672V76H196.802V57.828H200.414ZM221.128 57.828H225.272L231.236 76H227.736L226.476 72.08H219.728L218.44 76H214.94L221.128 57.828ZM220.568 69.588H225.664L223.144 61.776L220.568 69.588ZM239.188 57.828L244.172 68.636L249.156 57.828H253.72V76H250.388V62.196L245.236 74.012H243.08L237.76 61.804V76H234.456V57.828H239.188ZM258.9 57.828H270.604V60.684H262.204V65.472H270.072V68.328H262.204V73.116H270.604V76H258.9V57.828ZM284.882 62.84C284.584 61.2533 283.464 60.46 281.522 60.46C280.57 60.46 279.824 60.656 279.282 61.048C278.76 61.4213 278.498 61.8787 278.498 62.42C278.498 62.9613 278.666 63.3907 279.002 63.708C279.357 64.0067 279.898 64.2867 280.626 64.548L284.574 66.088C285.918 66.6107 286.954 67.2733 287.682 68.076C288.41 68.86 288.774 69.8493 288.774 71.044C288.774 72.6867 288.158 73.9933 286.926 74.964C285.694 75.916 283.94 76.392 281.662 76.392C279.646 76.392 278.013 75.8973 276.762 74.908C275.362 73.8253 274.625 72.2947 274.55 70.316H277.826C277.826 71.8093 278.601 72.752 280.15 73.144C280.617 73.2747 281.233 73.34 281.998 73.34C282.764 73.34 283.473 73.1533 284.126 72.78C284.78 72.388 285.106 71.8747 285.106 71.24C285.106 70.5867 284.929 70.092 284.574 69.756C284.22 69.4013 283.641 69.0747 282.838 68.776L279.226 67.348C277.826 66.8067 276.753 66.172 276.006 65.444C275.26 64.716 274.886 63.708 274.886 62.42C274.886 60.908 275.474 59.7133 276.65 58.836C277.845 57.9213 279.46 57.464 281.494 57.464C283.548 57.464 285.125 57.94 286.226 58.892C287.346 59.8253 287.99 61.1413 288.158 62.84H284.882Z" fill="white"/>
<path d="M58.22 100.77H55.294L55.028 103.411H53.622L53.888 100.77H52.007L52.102 99.744H54.002L54.363 96.362H52.444L52.558 95.355H54.458L54.743 92.733H56.149L55.864 95.355H58.79L59.075 92.733H60.462L60.177 95.355H62.134L62.02 96.362H60.082L59.721 99.744H61.678L61.564 100.77H59.607L59.341 103.411H57.935L58.22 100.77ZM55.408 99.744H58.315L58.676 96.362H55.769L55.408 99.744ZM64.8311 92.049H69.2961C70.5501 92.049 71.5128 92.3467 72.1841 92.942C72.8681 93.5373 73.2101 94.2847 73.2101 95.184C73.2101 95.868 73.0201 96.4633 72.6401 96.97C72.2728 97.4767 71.7091 97.8187 70.9491 97.996C71.6964 98.1227 72.2918 98.4457 72.7351 98.965C73.1911 99.4843 73.4191 100.073 73.4191 100.732C73.4191 102.201 72.7034 103.196 71.2721 103.715C70.7401 103.905 70.0878 104 69.3151 104H64.8311V92.049ZM69.2771 102.689C70.1891 102.689 70.8414 102.505 71.2341 102.138C71.6268 101.771 71.8231 101.283 71.8231 100.675C71.8231 100.067 71.6078 99.5857 71.1771 99.231C70.7464 98.8637 70.1131 98.68 69.2771 98.68H66.3321V102.689H69.2771ZM66.3321 97.388H69.2581C69.9928 97.388 70.5754 97.2107 71.0061 96.856C71.4494 96.4887 71.6711 95.9883 71.6711 95.355C71.6711 94.7217 71.4558 94.2277 71.0251 93.873C70.6071 93.5183 70.0181 93.341 69.2581 93.341H66.3321V97.388ZM78.1514 102.689H83.4714V104H76.6504V92.049H78.1514V102.689ZM88.2171 92.049H90.0411L94.0501 104H92.4921L91.4661 100.96H86.7161L85.6901 104H84.1131L88.2171 92.049ZM87.1151 99.782H91.0861L89.1101 93.892L87.1151 99.782ZM100.609 91.84C101.888 91.84 102.914 92.163 103.687 92.809C104.472 93.4423 105.011 94.272 105.302 95.298L103.687 95.621C103.434 94.8737 103.035 94.2847 102.49 93.854C101.958 93.4107 101.331 93.189 100.609 93.189C99.6082 93.189 98.7785 93.607 98.1199 94.443C97.4612 95.279 97.1319 96.4443 97.1319 97.939C97.1319 99.421 97.4232 100.612 98.0059 101.511C98.6012 102.41 99.4689 102.86 100.609 102.86C101.559 102.86 102.306 102.613 102.851 102.119C103.408 101.612 103.687 100.947 103.687 100.124H105.302C105.302 101.378 104.871 102.372 104.01 103.107C103.161 103.842 101.99 104.209 100.495 104.209C99.0129 104.209 97.8095 103.639 96.8849 102.499C95.9729 101.359 95.5169 99.8327 95.5169 97.92C95.5169 96.0073 95.9919 94.519 96.9419 93.455C97.8919 92.3783 99.1142 91.84 100.609 91.84ZM109.639 92.049V97.578L114.978 92.049H117.049L111.824 97.426L117.372 104H115.434L110.817 98.471L109.639 99.687V104H108.119V92.049H109.639ZM121.198 102.689H126.518V104H119.697V92.049H121.198V102.689ZM128.585 92.049H130.086V104H128.585V92.049ZM133.91 92.049L137.33 102.1L140.769 92.049H142.346L138.109 104H136.551L132.333 92.049H133.91ZM144.597 92.049H151.95V93.341H146.098V97.35H151.608V98.623H146.098V102.689H151.95V104H144.597V92.049ZM161.65 94.956C161.435 93.7907 160.58 93.208 159.085 93.208C158.287 93.208 157.673 93.3853 157.242 93.74C156.812 94.082 156.596 94.5 156.596 94.994C156.596 95.4753 156.729 95.8427 156.995 96.096C157.261 96.3493 157.692 96.571 158.287 96.761L160.776 97.616C161.625 97.9073 162.296 98.3063 162.79 98.813C163.297 99.3197 163.55 100.035 163.55 100.96C163.55 101.872 163.158 102.645 162.372 103.278C161.587 103.899 160.536 104.209 159.218 104.209C157.901 104.209 156.818 103.88 155.969 103.221C155.133 102.55 154.703 101.612 154.677 100.409H156.14C156.14 101.194 156.413 101.796 156.957 102.214C157.515 102.632 158.224 102.841 159.085 102.841C159.959 102.841 160.65 102.651 161.156 102.271C161.663 101.878 161.916 101.422 161.916 100.903C161.916 100.371 161.758 99.953 161.441 99.649C161.137 99.345 160.681 99.0917 160.073 98.889L157.964 98.11C156.976 97.7807 156.229 97.388 155.722 96.932C155.216 96.476 154.962 95.811 154.962 94.937C154.962 94.0503 155.317 93.3157 156.026 92.733C156.736 92.1377 157.73 91.84 159.009 91.84C160.289 91.84 161.264 92.125 161.935 92.695C162.619 93.2523 163.012 94.006 163.113 94.956H161.65ZM168.936 92.049L172.964 100.143L176.954 92.049H179.063V104H177.562V94.177L173.458 102.499H172.451L168.29 94.044V104H166.789V92.049H168.936ZM185.574 92.049H187.398L191.407 104H189.849L188.823 100.96H184.073L183.047 104H181.47L185.574 92.049ZM184.472 99.782H188.443L186.467 93.892L184.472 99.782ZM191.258 92.049H200.549V93.341H196.654V104H195.153V93.341H191.258V92.049ZM200.776 92.049H210.067V93.341H206.172V104H204.671V93.341H200.776V92.049ZM212.081 92.049H219.434V93.341H213.582V97.35H219.092V98.623H213.582V102.689H219.434V104H212.081V92.049ZM231.091 95.469C231.091 96.457 230.825 97.255 230.293 97.863C229.773 98.471 229.001 98.8637 227.975 99.041L231.395 104H229.457L226.36 99.117H224.27V104H222.769V92.049H226.93C228.272 92.049 229.298 92.372 230.008 93.018C230.73 93.664 231.091 94.481 231.091 95.469ZM226.816 98.072C227.715 98.072 228.393 97.8567 228.849 97.426C229.317 96.9827 229.552 96.4063 229.552 95.697C229.552 94.975 229.324 94.405 228.868 93.987C228.424 93.5563 227.778 93.341 226.93 93.341H224.27V98.072H226.816Z" fill="white"/>
<path d="M81.267 236.669H89.038V238.607H83.509V241.856H88.563V243.775H83.509V249H81.267V236.669ZM96.3886 236.422C97.212 236.422 97.9656 236.561 98.6496 236.84C99.3336 237.106 99.9226 237.505 100.417 238.037C101.455 239.152 101.975 240.748 101.975 242.825C101.975 244.915 101.455 246.53 100.417 247.67C99.4286 248.734 98.0796 249.266 96.3696 249.266C94.6723 249.266 93.3296 248.721 92.3416 247.632C91.303 246.505 90.7836 244.902 90.7836 242.825C90.7836 240.722 91.303 239.114 92.3416 237.999C93.317 236.948 94.666 236.422 96.3886 236.422ZM99.6566 242.863C99.6566 241.444 99.359 240.355 98.7636 239.595C98.181 238.822 97.3893 238.436 96.3886 238.436C95.388 238.436 94.59 238.822 93.9946 239.595C93.3993 240.355 93.1016 241.444 93.1016 242.863C93.1016 244.269 93.3993 245.352 93.9946 246.112C94.59 246.859 95.388 247.233 96.3886 247.233C97.3893 247.233 98.181 246.859 98.7636 246.112C99.359 245.352 99.6566 244.269 99.6566 242.863ZM106.869 247.043H111.942V249H104.627V236.669H106.869V247.043ZM116.258 247.043H121.331V249H114.016V236.669H116.258V247.043ZM128.136 236.422C128.959 236.422 129.713 236.561 130.397 236.84C131.081 237.106 131.67 237.505 132.164 238.037C133.202 239.152 133.722 240.748 133.722 242.825C133.722 244.915 133.202 246.53 132.164 247.67C131.176 248.734 129.827 249.266 128.117 249.266C126.419 249.266 125.077 248.721 124.089 247.632C123.05 246.505 122.531 244.902 122.531 242.825C122.531 240.722 123.05 239.114 124.089 237.999C125.064 236.948 126.413 236.422 128.136 236.422ZM131.404 242.863C131.404 241.444 131.106 240.355 130.511 239.595C129.928 238.822 129.136 238.436 128.136 238.436C127.135 238.436 126.337 238.822 125.742 239.595C125.146 240.355 124.849 241.444 124.849 242.863C124.849 244.269 125.146 245.352 125.742 246.112C126.337 246.859 127.135 247.233 128.136 247.233C129.136 247.233 129.928 246.859 130.511 246.112C131.106 245.352 131.404 244.269 131.404 242.863ZM137.495 236.669L140.212 246.036L142.853 237.486H144.373L147.166 246.074L150.054 236.669H152.581L148.344 249H145.988L143.67 242.046L141.371 249H139.015L134.987 236.669H137.495ZM161.583 236.669V244.345C161.583 245.358 161.836 246.087 162.343 246.53C162.862 246.973 163.527 247.195 164.338 247.195C165.148 247.195 165.807 246.973 166.314 246.53C166.833 246.087 167.093 245.358 167.093 244.345V236.669H169.335V244.345C169.335 245.916 168.898 247.132 168.024 247.993C167.15 248.842 165.921 249.266 164.338 249.266C162.754 249.266 161.526 248.842 160.652 247.993C159.778 247.132 159.341 245.916 159.341 244.345V236.669H161.583ZM179.128 240.07C178.925 238.993 178.165 238.455 176.848 238.455C176.202 238.455 175.695 238.588 175.328 238.854C174.973 239.107 174.796 239.418 174.796 239.785C174.796 240.152 174.91 240.444 175.138 240.659C175.379 240.862 175.746 241.052 176.24 241.229L178.919 242.274C179.831 242.629 180.534 243.078 181.028 243.623C181.522 244.155 181.769 244.826 181.769 245.637C181.769 246.752 181.351 247.638 180.515 248.297C179.679 248.943 178.488 249.266 176.943 249.266C175.575 249.266 174.467 248.93 173.618 248.259C172.668 247.524 172.168 246.486 172.117 245.143H174.34C174.34 246.156 174.866 246.796 175.917 247.062C176.234 247.151 176.652 247.195 177.171 247.195C177.69 247.195 178.172 247.068 178.615 246.815C179.058 246.549 179.28 246.201 179.28 245.77C179.28 245.327 179.16 244.991 178.919 244.763C178.678 244.522 178.286 244.301 177.741 244.098L175.29 243.129C174.34 242.762 173.612 242.331 173.105 241.837C172.598 241.343 172.345 240.659 172.345 239.785C172.345 238.759 172.744 237.948 173.542 237.353C174.353 236.732 175.448 236.422 176.829 236.422C178.222 236.422 179.293 236.745 180.04 237.391C180.8 238.024 181.237 238.917 181.351 240.07H179.128ZM194.302 236.422C195.125 236.422 195.879 236.561 196.563 236.84C197.247 237.106 197.836 237.505 198.33 238.037C199.368 239.152 199.888 240.748 199.888 242.825C199.888 244.915 199.368 246.53 198.33 247.67C197.342 248.734 195.993 249.266 194.283 249.266C192.585 249.266 191.243 248.721 190.255 247.632C189.216 246.505 188.697 244.902 188.697 242.825C188.697 240.722 189.216 239.114 190.255 237.999C191.23 236.948 192.579 236.422 194.302 236.422ZM197.57 242.863C197.57 241.444 197.272 240.355 196.677 239.595C196.094 238.822 195.302 238.436 194.302 238.436C193.301 238.436 192.503 238.822 191.908 239.595C191.312 240.355 191.015 241.444 191.015 242.863C191.015 244.269 191.312 245.352 191.908 246.112C192.503 246.859 193.301 247.233 194.302 247.233C195.302 247.233 196.094 246.859 196.677 246.112C197.272 245.352 197.57 244.269 197.57 242.863ZM204.953 236.669L210.387 245.409V236.669H212.629V249H210.349L204.744 239.956V249H202.502V236.669H204.953ZM219.312 236.669H229.192V238.607H225.373V249H223.131V238.607H219.312V236.669ZM232.199 236.669L234.916 246.036L237.557 237.486H239.077L241.87 246.074L244.758 236.669H247.285L243.048 249H240.692L238.374 242.046L236.075 249H233.719L229.691 236.669H232.199ZM249.428 236.669H251.67V249H249.428V236.669ZM253.546 236.669H263.426V238.607H259.607V249H257.365V238.607H253.546V236.669ZM263.658 236.669H273.538V238.607H269.719V249H267.477V238.607H263.658V236.669ZM275.404 236.669H283.346V238.607H277.646V241.856H282.985V243.794H277.646V247.043H283.346V249H275.404V236.669ZM295.714 240.45C295.714 241.324 295.467 242.071 294.973 242.692C294.479 243.313 293.77 243.743 292.845 243.984L296.151 249H293.225L290.508 244.193H288.798V249H286.556V236.669H291.116C292.573 236.669 293.706 237.017 294.517 237.714C295.315 238.385 295.714 239.297 295.714 240.45ZM290.907 242.692C291.73 242.692 292.351 242.508 292.769 242.141C293.187 241.761 293.396 241.267 293.396 240.659C293.396 240.038 293.206 239.544 292.826 239.177C292.446 238.797 291.876 238.607 291.116 238.607H288.798V242.692H290.907Z" fill="white"/>
<path fill-rule="evenodd" clip-rule="evenodd" d="M70.9148 236.943C70.8148 236.831 70.6508 236.801 70.5168 236.867C70.3602 236.946 70.0135 237.057 69.6342 237.154C70.0188 236.712 70.3402 236.177 70.4682 235.705C70.5048 235.57 70.4535 235.427 70.3402 235.346C70.2255 235.265 70.0735 235.264 69.9588 235.343C69.7022 235.517 68.4962 236.03 67.7482 236.179C66.8195 235.365 65.8989 235 64.7829 235C63.9569 235 63.1895 235.227 62.2955 235.737C60.7022 236.645 60.4609 238.643 60.5982 239.814C56.1929 239.447 53.7242 236.992 52.8522 235.929C52.7835 235.845 52.6782 235.798 52.5709 235.807C52.4629 235.815 52.3656 235.874 52.3096 235.967C51.7282 236.923 51.5676 237.995 51.8462 239.068C52.0209 239.741 52.3476 240.333 52.7155 240.795C52.4482 240.656 52.1856 240.479 51.9609 240.3C51.8609 240.22 51.7236 240.206 51.6089 240.261C51.4936 240.317 51.4202 240.433 51.4202 240.561C51.4202 242.501 52.7282 243.825 53.8555 244.479C53.6069 244.435 53.3482 244.365 53.1102 244.295C52.9842 244.257 52.8482 244.297 52.7629 244.396C52.6769 244.495 52.6575 244.635 52.7122 244.754C53.4029 246.243 54.7989 247.34 56.3435 247.669C55.0089 248.503 53.1155 248.919 51.3709 248.721C51.2149 248.705 51.0642 248.8 51.0156 248.952C50.9676 249.103 51.0336 249.268 51.1736 249.345C53.2049 250.459 55.3149 251 57.6235 251H57.6382C60.8902 250.997 63.9169 249.607 66.1595 247.085C68.1928 244.8 69.2515 241.903 69.0175 239.294C69.5668 238.906 70.4228 238.155 70.9462 237.347C71.0282 237.221 71.0155 237.055 70.9148 236.943Z" fill="white"/>
</g>
<defs>
<clipPath id="clip0">
<rect width="709" height="294" fill="white" transform="translate(0.5)"/>
</clipPath>
</defs>
</svg>
