<svg width="709" height="294" viewBox="0 0 709 294" fill="none" xmlns="http://www.w3.org/2000/svg">
<rect width="709" height="294" fill="black"/>
<mask id="mask0" mask-type="alpha" maskUnits="userSpaceOnUse" x="0" y="0" width="709" height="294">
<rect width="709" height="294" fill="white"/>
</mask>
<g mask="url(#mask0)">
</g>
<path d="M62.652 62.84C62.3533 61.2533 61.2333 60.46 59.292 60.46C58.34 60.46 57.5933 60.656 57.052 61.048C56.5293 61.4213 56.268 61.8787 56.268 62.42C56.268 62.9613 56.436 63.3907 56.772 63.708C57.1267 64.0067 57.668 64.2867 58.396 64.548L62.344 66.088C63.688 66.6107 64.724 67.2733 65.452 68.076C66.18 68.86 66.544 69.8493 66.544 71.044C66.544 72.6867 65.928 73.9933 64.696 74.964C63.464 75.916 61.7093 76.392 59.432 76.392C57.416 76.392 55.7827 75.8973 54.532 74.908C53.132 73.8253 52.3947 72.2947 52.32 70.316H55.596C55.596 71.8093 56.3707 72.752 57.92 73.144C58.3867 73.2747 59.0027 73.34 59.768 73.34C60.5333 73.34 61.2427 73.1533 61.896 72.78C62.5493 72.388 62.876 71.8747 62.876 71.24C62.876 70.5867 62.6987 70.092 62.344 69.756C61.9893 69.4013 61.4107 69.0747 60.608 68.776L56.996 67.348C55.596 66.8067 54.5227 66.172 53.776 65.444C53.0293 64.716 52.656 63.708 52.656 62.42C52.656 60.908 53.244 59.7133 54.42 58.836C55.6147 57.9213 57.2293 57.464 59.264 57.464C61.3173 57.464 62.8947 57.94 63.996 58.892C65.116 59.8253 65.76 61.1413 65.928 62.84H62.652ZM75.1595 57.828H79.3035L85.2675 76H81.7675L80.5075 72.08H73.7595L72.4715 76H68.9715L75.1595 57.828ZM74.5995 69.588H79.6955L77.1755 61.776L74.5995 69.588ZM89.4578 57.828L93.4618 65.08L97.6618 57.828H101.554L95.0858 68.496V76H91.7818V68.496L85.5378 57.828H89.4578ZM109.238 57.828H123.798V60.684H118.17V76H114.866V60.684H109.238V57.828ZM129.881 57.828V65.416H137.805V57.828H141.109V76H137.805V68.3H129.881V76H126.577V57.828H129.881ZM146.318 57.828H158.022V60.684H149.622V65.472H157.49V68.328H149.622V73.116H158.022V76H146.318V57.828ZM162.752 57.828H166.056V76H162.752V57.828ZM184.752 63.4C184.752 64.688 184.388 65.7893 183.66 66.704C182.932 67.6187 181.887 68.2533 180.524 68.608L185.396 76H181.084L177.08 68.916H174.56V76H171.256V57.828H177.976C180.123 57.828 181.794 58.3413 182.988 59.368C184.164 60.3573 184.752 61.7013 184.752 63.4ZM177.668 66.704C178.882 66.704 179.796 66.4333 180.412 65.892C181.028 65.332 181.336 64.604 181.336 63.708C181.336 62.7933 181.056 62.0653 180.496 61.524C179.936 60.964 179.096 60.684 177.976 60.684H174.56V66.704H177.668ZM199.914 57.828L207.922 70.708V57.828H211.226V76H207.866L199.606 62.672V76H196.302V57.828H199.914ZM220.628 57.828H224.772L230.736 76H227.236L225.976 72.08H219.228L217.94 76H214.44L220.628 57.828ZM220.068 69.588H225.164L222.644 61.776L220.068 69.588ZM238.688 57.828L243.672 68.636L248.656 57.828H253.22V76H249.888V62.196L244.736 74.012H242.58L237.26 61.804V76H233.956V57.828H238.688ZM258.4 57.828H270.104V60.684H261.704V65.472H269.572V68.328H261.704V73.116H270.104V76H258.4V57.828ZM284.382 62.84C284.084 61.2533 282.964 60.46 281.022 60.46C280.07 60.46 279.324 60.656 278.782 61.048C278.26 61.4213 277.998 61.8787 277.998 62.42C277.998 62.9613 278.166 63.3907 278.502 63.708C278.857 64.0067 279.398 64.2867 280.126 64.548L284.074 66.088C285.418 66.6107 286.454 67.2733 287.182 68.076C287.91 68.86 288.274 69.8493 288.274 71.044C288.274 72.6867 287.658 73.9933 286.426 74.964C285.194 75.916 283.44 76.392 281.162 76.392C279.146 76.392 277.513 75.8973 276.262 74.908C274.862 73.8253 274.125 72.2947 274.05 70.316H277.326C277.326 71.8093 278.101 72.752 279.65 73.144C280.117 73.2747 280.733 73.34 281.498 73.34C282.264 73.34 282.973 73.1533 283.626 72.78C284.28 72.388 284.606 71.8747 284.606 71.24C284.606 70.5867 284.429 70.092 284.074 69.756C283.72 69.4013 283.141 69.0747 282.338 68.776L278.726 67.348C277.326 66.8067 276.253 66.172 275.506 65.444C274.76 64.716 274.386 63.708 274.386 62.42C274.386 60.908 274.974 59.7133 276.15 58.836C277.345 57.9213 278.96 57.464 280.994 57.464C283.048 57.464 284.625 57.94 285.726 58.892C286.846 59.8253 287.49 61.1413 287.658 62.84H284.382Z" fill="white"/>
<path d="M57.72 100.77H54.794L54.528 103.411H53.122L53.388 100.77H51.507L51.602 99.744H53.502L53.863 96.362H51.944L52.058 95.355H53.958L54.243 92.733H55.649L55.364 95.355H58.29L58.575 92.733H59.962L59.677 95.355H61.634L61.52 96.362H59.582L59.221 99.744H61.178L61.064 100.77H59.107L58.841 103.411H57.435L57.72 100.77ZM54.908 99.744H57.815L58.176 96.362H55.269L54.908 99.744ZM64.3311 92.049H68.7961C70.0501 92.049 71.0128 92.3467 71.6841 92.942C72.3681 93.5373 72.7101 94.2847 72.7101 95.184C72.7101 95.868 72.5201 96.4633 72.1401 96.97C71.7728 97.4767 71.2091 97.8187 70.4491 97.996C71.1964 98.1227 71.7918 98.4457 72.2351 98.965C72.6911 99.4843 72.9191 100.073 72.9191 100.732C72.9191 102.201 72.2034 103.196 70.7721 103.715C70.2401 103.905 69.5878 104 68.8151 104H64.3311V92.049ZM68.7771 102.689C69.6891 102.689 70.3414 102.505 70.7341 102.138C71.1268 101.771 71.3231 101.283 71.3231 100.675C71.3231 100.067 71.1078 99.5857 70.6771 99.231C70.2464 98.8637 69.6131 98.68 68.7771 98.68H65.8321V102.689H68.7771ZM65.8321 97.388H68.7581C69.4928 97.388 70.0754 97.2107 70.5061 96.856C70.9494 96.4887 71.1711 95.9883 71.1711 95.355C71.1711 94.7217 70.9558 94.2277 70.5251 93.873C70.1071 93.5183 69.5181 93.341 68.7581 93.341H65.8321V97.388ZM77.6514 102.689H82.9714V104H76.1504V92.049H77.6514V102.689ZM87.7171 92.049H89.5411L93.5501 104H91.9921L90.9661 100.96H86.2161L85.1901 104H83.6131L87.7171 92.049ZM86.6151 99.782H90.5861L88.6101 93.892L86.6151 99.782ZM100.109 91.84C101.388 91.84 102.414 92.163 103.187 92.809C103.972 93.4423 104.511 94.272 104.802 95.298L103.187 95.621C102.934 94.8737 102.535 94.2847 101.99 93.854C101.458 93.4107 100.831 93.189 100.109 93.189C99.1082 93.189 98.2785 93.607 97.6199 94.443C96.9612 95.279 96.6319 96.4443 96.6319 97.939C96.6319 99.421 96.9232 100.612 97.5059 101.511C98.1012 102.41 98.9689 102.86 100.109 102.86C101.059 102.86 101.806 102.613 102.351 102.119C102.908 101.612 103.187 100.947 103.187 100.124H104.802C104.802 101.378 104.371 102.372 103.51 103.107C102.661 103.842 101.49 104.209 99.9949 104.209C98.5129 104.209 97.3095 103.639 96.3849 102.499C95.4729 101.359 95.0169 99.8327 95.0169 97.92C95.0169 96.0073 95.4919 94.519 96.4419 93.455C97.3919 92.3783 98.6142 91.84 100.109 91.84ZM109.139 92.049V97.578L114.478 92.049H116.549L111.324 97.426L116.872 104H114.934L110.317 98.471L109.139 99.687V104H107.619V92.049H109.139ZM120.698 102.689H126.018V104H119.197V92.049H120.698V102.689ZM128.085 92.049H129.586V104H128.085V92.049ZM133.41 92.049L136.83 102.1L140.269 92.049H141.846L137.609 104H136.051L131.833 92.049H133.41ZM144.097 92.049H151.45V93.341H145.598V97.35H151.108V98.623H145.598V102.689H151.45V104H144.097V92.049ZM161.15 94.956C160.935 93.7907 160.08 93.208 158.585 93.208C157.787 93.208 157.173 93.3853 156.742 93.74C156.312 94.082 156.096 94.5 156.096 94.994C156.096 95.4753 156.229 95.8427 156.495 96.096C156.761 96.3493 157.192 96.571 157.787 96.761L160.276 97.616C161.125 97.9073 161.796 98.3063 162.29 98.813C162.797 99.3197 163.05 100.035 163.05 100.96C163.05 101.872 162.658 102.645 161.872 103.278C161.087 103.899 160.036 104.209 158.718 104.209C157.401 104.209 156.318 103.88 155.469 103.221C154.633 102.55 154.203 101.612 154.177 100.409H155.64C155.64 101.194 155.913 101.796 156.457 102.214C157.015 102.632 157.724 102.841 158.585 102.841C159.459 102.841 160.15 102.651 160.656 102.271C161.163 101.878 161.416 101.422 161.416 100.903C161.416 100.371 161.258 99.953 160.941 99.649C160.637 99.345 160.181 99.0917 159.573 98.889L157.464 98.11C156.476 97.7807 155.729 97.388 155.222 96.932C154.716 96.476 154.462 95.811 154.462 94.937C154.462 94.0503 154.817 93.3157 155.526 92.733C156.236 92.1377 157.23 91.84 158.509 91.84C159.789 91.84 160.764 92.125 161.435 92.695C162.119 93.2523 162.512 94.006 162.613 94.956H161.15ZM168.436 92.049L172.464 100.143L176.454 92.049H178.563V104H177.062V94.177L172.958 102.499H171.951L167.79 94.044V104H166.289V92.049H168.436ZM185.074 92.049H186.898L190.907 104H189.349L188.323 100.96H183.573L182.547 104H180.97L185.074 92.049ZM183.972 99.782H187.943L185.967 93.892L183.972 99.782ZM190.758 92.049H200.049V93.341H196.154V104H194.653V93.341H190.758V92.049ZM200.276 92.049H209.567V93.341H205.672V104H204.171V93.341H200.276V92.049ZM211.581 92.049H218.934V93.341H213.082V97.35H218.592V98.623H213.082V102.689H218.934V104H211.581V92.049ZM230.591 95.469C230.591 96.457 230.325 97.255 229.793 97.863C229.273 98.471 228.501 98.8637 227.475 99.041L230.895 104H228.957L225.86 99.117H223.77V104H222.269V92.049H226.43C227.772 92.049 228.798 92.372 229.508 93.018C230.23 93.664 230.591 94.481 230.591 95.469ZM226.316 98.072C227.215 98.072 227.893 97.8567 228.349 97.426C228.817 96.9827 229.052 96.4063 229.052 95.697C229.052 94.975 228.824 94.405 228.368 93.987C227.924 93.5563 227.278 93.341 226.43 93.341H223.77V98.072H226.316Z" fill="white"/>
<path d="M80.767 236.669H88.538V238.607H83.009V241.856H88.063V243.775H83.009V249H80.767V236.669ZM95.8886 236.422C96.712 236.422 97.4656 236.561 98.1496 236.84C98.8336 237.106 99.4226 237.505 99.9166 238.037C100.955 239.152 101.475 240.748 101.475 242.825C101.475 244.915 100.955 246.53 99.9166 247.67C98.9286 248.734 97.5796 249.266 95.8696 249.266C94.1723 249.266 92.8296 248.721 91.8416 247.632C90.803 246.505 90.2836 244.902 90.2836 242.825C90.2836 240.722 90.803 239.114 91.8416 237.999C92.817 236.948 94.166 236.422 95.8886 236.422ZM99.1566 242.863C99.1566 241.444 98.859 240.355 98.2636 239.595C97.681 238.822 96.8893 238.436 95.8886 238.436C94.888 238.436 94.09 238.822 93.4946 239.595C92.8993 240.355 92.6016 241.444 92.6016 242.863C92.6016 244.269 92.8993 245.352 93.4946 246.112C94.09 246.859 94.888 247.233 95.8886 247.233C96.8893 247.233 97.681 246.859 98.2636 246.112C98.859 245.352 99.1566 244.269 99.1566 242.863ZM106.369 247.043H111.442V249H104.127V236.669H106.369V247.043ZM115.758 247.043H120.831V249H113.516V236.669H115.758V247.043ZM127.636 236.422C128.459 236.422 129.213 236.561 129.897 236.84C130.581 237.106 131.17 237.505 131.664 238.037C132.702 239.152 133.222 240.748 133.222 242.825C133.222 244.915 132.702 246.53 131.664 247.67C130.676 248.734 129.327 249.266 127.617 249.266C125.919 249.266 124.577 248.721 123.589 247.632C122.55 246.505 122.031 244.902 122.031 242.825C122.031 240.722 122.55 239.114 123.589 237.999C124.564 236.948 125.913 236.422 127.636 236.422ZM130.904 242.863C130.904 241.444 130.606 240.355 130.011 239.595C129.428 238.822 128.636 238.436 127.636 238.436C126.635 238.436 125.837 238.822 125.242 239.595C124.646 240.355 124.349 241.444 124.349 242.863C124.349 244.269 124.646 245.352 125.242 246.112C125.837 246.859 126.635 247.233 127.636 247.233C128.636 247.233 129.428 246.859 130.011 246.112C130.606 245.352 130.904 244.269 130.904 242.863ZM136.995 236.669L139.712 246.036L142.353 237.486H143.873L146.666 246.074L149.554 236.669H152.081L147.844 249H145.488L143.17 242.046L140.871 249H138.515L134.487 236.669H136.995ZM161.083 236.669V244.345C161.083 245.358 161.336 246.087 161.843 246.53C162.362 246.973 163.027 247.195 163.838 247.195C164.648 247.195 165.307 246.973 165.814 246.53C166.333 246.087 166.593 245.358 166.593 244.345V236.669H168.835V244.345C168.835 245.916 168.398 247.132 167.524 247.993C166.65 248.842 165.421 249.266 163.838 249.266C162.254 249.266 161.026 248.842 160.152 247.993C159.278 247.132 158.841 245.916 158.841 244.345V236.669H161.083ZM178.628 240.07C178.425 238.993 177.665 238.455 176.348 238.455C175.702 238.455 175.195 238.588 174.828 238.854C174.473 239.107 174.296 239.418 174.296 239.785C174.296 240.152 174.41 240.444 174.638 240.659C174.879 240.862 175.246 241.052 175.74 241.229L178.419 242.274C179.331 242.629 180.034 243.078 180.528 243.623C181.022 244.155 181.269 244.826 181.269 245.637C181.269 246.752 180.851 247.638 180.015 248.297C179.179 248.943 177.988 249.266 176.443 249.266C175.075 249.266 173.967 248.93 173.118 248.259C172.168 247.524 171.668 246.486 171.617 245.143H173.84C173.84 246.156 174.366 246.796 175.417 247.062C175.734 247.151 176.152 247.195 176.671 247.195C177.19 247.195 177.672 247.068 178.115 246.815C178.558 246.549 178.78 246.201 178.78 245.77C178.78 245.327 178.66 244.991 178.419 244.763C178.178 244.522 177.786 244.301 177.241 244.098L174.79 243.129C173.84 242.762 173.112 242.331 172.605 241.837C172.098 241.343 171.845 240.659 171.845 239.785C171.845 238.759 172.244 237.948 173.042 237.353C173.853 236.732 174.948 236.422 176.329 236.422C177.722 236.422 178.793 236.745 179.54 237.391C180.3 238.024 180.737 238.917 180.851 240.07H178.628ZM193.802 236.422C194.625 236.422 195.379 236.561 196.063 236.84C196.747 237.106 197.336 237.505 197.83 238.037C198.868 239.152 199.388 240.748 199.388 242.825C199.388 244.915 198.868 246.53 197.83 247.67C196.842 248.734 195.493 249.266 193.783 249.266C192.085 249.266 190.743 248.721 189.755 247.632C188.716 246.505 188.197 244.902 188.197 242.825C188.197 240.722 188.716 239.114 189.755 237.999C190.73 236.948 192.079 236.422 193.802 236.422ZM197.07 242.863C197.07 241.444 196.772 240.355 196.177 239.595C195.594 238.822 194.802 238.436 193.802 238.436C192.801 238.436 192.003 238.822 191.408 239.595C190.812 240.355 190.515 241.444 190.515 242.863C190.515 244.269 190.812 245.352 191.408 246.112C192.003 246.859 192.801 247.233 193.802 247.233C194.802 247.233 195.594 246.859 196.177 246.112C196.772 245.352 197.07 244.269 197.07 242.863ZM204.453 236.669L209.887 245.409V236.669H212.129V249H209.849L204.244 239.956V249H202.002V236.669H204.453ZM218.812 236.669H228.692V238.607H224.873V249H222.631V238.607H218.812V236.669ZM231.699 236.669L234.416 246.036L237.057 237.486H238.577L241.37 246.074L244.258 236.669H246.785L242.548 249H240.192L237.874 242.046L235.575 249H233.219L229.191 236.669H231.699ZM248.928 236.669H251.17V249H248.928V236.669ZM253.046 236.669H262.926V238.607H259.107V249H256.865V238.607H253.046V236.669ZM263.158 236.669H273.038V238.607H269.219V249H266.977V238.607H263.158V236.669ZM274.904 236.669H282.846V238.607H277.146V241.856H282.485V243.794H277.146V247.043H282.846V249H274.904V236.669ZM295.214 240.45C295.214 241.324 294.967 242.071 294.473 242.692C293.979 243.313 293.27 243.743 292.345 243.984L295.651 249H292.725L290.008 244.193H288.298V249H286.056V236.669H290.616C292.073 236.669 293.206 237.017 294.017 237.714C294.815 238.385 295.214 239.297 295.214 240.45ZM290.407 242.692C291.23 242.692 291.851 242.508 292.269 242.141C292.687 241.761 292.896 241.267 292.896 240.659C292.896 240.038 292.706 239.544 292.326 239.177C291.946 238.797 291.376 238.607 290.616 238.607H288.298V242.692H290.407Z" fill="white"/>
<path fill-rule="evenodd" clip-rule="evenodd" d="M70.4148 236.943C70.3148 236.831 70.1508 236.801 70.0168 236.867C69.8602 236.946 69.5135 237.057 69.1342 237.154C69.5188 236.712 69.8402 236.177 69.9682 235.705C70.0048 235.57 69.9535 235.427 69.8402 235.346C69.7255 235.265 69.5735 235.264 69.4588 235.343C69.2022 235.517 67.9962 236.03 67.2482 236.179C66.3195 235.365 65.3989 235 64.2829 235C63.4569 235 62.6895 235.227 61.7955 235.737C60.2022 236.645 59.9609 238.643 60.0982 239.814C55.6929 239.447 53.2242 236.992 52.3522 235.929C52.2835 235.845 52.1782 235.798 52.0709 235.807C51.9629 235.815 51.8656 235.874 51.8096 235.967C51.2282 236.923 51.0676 237.995 51.3462 239.068C51.5209 239.741 51.8476 240.333 52.2155 240.795C51.9482 240.656 51.6856 240.479 51.4609 240.3C51.3609 240.22 51.2236 240.206 51.1089 240.261C50.9936 240.317 50.9202 240.433 50.9202 240.561C50.9202 242.501 52.2282 243.825 53.3555 244.479C53.1069 244.435 52.8482 244.365 52.6102 244.295C52.4842 244.257 52.3482 244.297 52.2629 244.396C52.1769 244.495 52.1575 244.635 52.2122 244.754C52.9029 246.243 54.2989 247.34 55.8435 247.669C54.5089 248.503 52.6155 248.919 50.8709 248.721C50.7149 248.705 50.5642 248.8 50.5156 248.952C50.4676 249.103 50.5336 249.268 50.6736 249.345C52.7049 250.459 54.8149 251 57.1235 251H57.1382C60.3902 250.997 63.4169 249.607 65.6595 247.085C67.6928 244.8 68.7515 241.903 68.5175 239.294C69.0668 238.906 69.9228 238.155 70.4462 237.347C70.5282 237.221 70.5155 237.055 70.4148 236.943Z" fill="white"/>
</svg>
