<svg width="587" height="286" viewBox="0 0 587 286" fill="none" xmlns="http://www.w3.org/2000/svg">
<rect width="587" height="286" fill="black"/>
<mask id="mask0" mask-type="alpha" maskUnits="userSpaceOnUse" x="0" y="0" width="587" height="286">
<rect width="587" height="286" fill="white"/>
</mask>
<g mask="url(#mask0)">
</g>
<path d="M37.7233 71.408H33.9153L33.5233 75.076H30.4153L30.8073 71.408H28.2313L28.4273 69.252H31.0313L31.5073 64.828H28.9033L29.1273 62.644H31.7313L32.1233 59.032H35.2313L34.8393 62.644H38.6473L39.0393 59.032H42.1473L41.7553 62.644H44.3873L44.1353 64.828H41.5313L41.0553 69.252H43.6873L43.4633 71.408H40.8313L40.4393 75.076H37.3313L37.7233 71.408ZM34.1393 69.252H37.9473L38.4233 64.828H34.6153L34.1393 69.252ZM48.2158 57.828H55.5518C57.5678 57.828 59.1265 58.304 60.2278 59.256C61.2732 60.1333 61.7958 61.2627 61.7958 62.644C61.7958 63.6707 61.5065 64.548 60.9278 65.276C60.3678 66.004 59.5745 66.5173 58.5478 66.816C59.5745 67.0213 60.4238 67.488 61.0958 68.216C61.7678 68.9253 62.1038 69.84 62.1038 70.96C62.1038 73.2 60.9932 74.7307 58.7718 75.552C57.9318 75.8507 56.8678 76 55.5798 76H48.2158V57.828ZM55.4958 73.116C56.5598 73.116 57.3252 72.9013 57.7918 72.472C58.2772 72.0427 58.5198 71.4733 58.5198 70.764C58.5198 70.0547 58.2678 69.4853 57.7638 69.056C57.2785 68.608 56.5225 68.384 55.4958 68.384H51.5198V73.116H55.4958ZM51.5198 65.5H55.4118C56.4012 65.5 57.1478 65.2853 57.6518 64.856C58.1558 64.4267 58.4078 63.848 58.4078 63.12C58.4078 62.3733 58.1558 61.7853 57.6518 61.356C57.1665 60.908 56.4292 60.684 55.4398 60.684H51.5198V65.5ZM69.6761 73.116H77.1521V76H66.3721V57.828H69.6761V73.116ZM84.408 57.828H88.552L94.516 76H91.016L89.756 72.08H83.008L81.72 76H78.22L84.408 57.828ZM83.848 69.588H88.944L86.424 61.776L83.848 69.588ZM104.259 57.464C105.379 57.464 106.35 57.604 107.171 57.884C107.993 58.1453 108.702 58.5187 109.299 59.004C110.475 59.956 111.241 61.2907 111.595 63.008L108.067 63.652C107.769 62.7 107.302 61.9347 106.667 61.356C106.051 60.7587 105.277 60.46 104.343 60.46C103.074 60.46 102.047 60.992 101.263 62.056C100.423 63.2133 100.003 64.8187 100.003 66.872C100.003 68.9067 100.377 70.5027 101.123 71.66C101.87 72.7987 102.887 73.368 104.175 73.368C105.463 73.368 106.434 73.06 107.087 72.444C107.741 71.8093 108.067 70.9973 108.067 70.008H111.623C111.623 72.0427 110.97 73.62 109.663 74.74C108.375 75.8413 106.602 76.392 104.343 76.392C101.935 76.392 100.022 75.552 98.6033 73.872C97.166 72.1547 96.4473 69.8213 96.4473 66.872C96.4473 63.8853 97.1847 61.552 98.6593 59.872C100.078 58.2667 101.945 57.464 104.259 57.464ZM118.813 57.828V65.304L125.981 57.828H130.517L122.509 66.004L131.049 76H126.765L120.297 68.3L118.813 69.812V76H115.481V57.828H118.813ZM137.106 73.116H144.582V76H133.802V57.828H137.106V73.116ZM147.638 57.828H150.942V76H147.638V57.828ZM157.598 57.828L162.022 71.856L166.502 57.828H169.974L163.73 76H160.258L154.098 57.828H157.598ZM173.121 57.828H184.825V60.684H176.425V65.472H184.293V68.328H176.425V73.116H184.825V76H173.121V57.828ZM199.104 62.84C198.805 61.2533 197.685 60.46 195.744 60.46C194.792 60.46 194.045 60.656 193.504 61.048C192.981 61.4213 192.72 61.8787 192.72 62.42C192.72 62.9613 192.888 63.3907 193.224 63.708C193.578 64.0067 194.12 64.2867 194.848 64.548L198.796 66.088C200.14 66.6107 201.176 67.2733 201.904 68.076C202.632 68.86 202.996 69.8493 202.996 71.044C202.996 72.6867 202.38 73.9933 201.148 74.964C199.916 75.916 198.161 76.392 195.884 76.392C193.868 76.392 192.234 75.8973 190.984 74.908C189.584 73.8253 188.846 72.2947 188.772 70.316H192.048C192.048 71.8093 192.822 72.752 194.372 73.144C194.838 73.2747 195.454 73.34 196.22 73.34C196.985 73.34 197.694 73.1533 198.348 72.78C199.001 72.388 199.328 71.8747 199.328 71.24C199.328 70.5867 199.15 70.092 198.796 69.756C198.441 69.4013 197.862 69.0747 197.06 68.776L193.448 67.348C192.048 66.8067 190.974 66.172 190.228 65.444C189.481 64.716 189.108 63.708 189.108 62.42C189.108 60.908 189.696 59.7133 190.872 58.836C192.066 57.9213 193.681 57.464 195.716 57.464C197.769 57.464 199.346 57.94 200.448 58.892C201.568 59.8253 202.212 61.1413 202.38 62.84H199.104ZM212.143 57.828L217.127 68.636L222.111 57.828H226.675V76H223.343V62.196L218.191 74.012H216.035L210.715 61.804V76H207.411V57.828H212.143ZM236.084 57.828H240.228L246.192 76H242.692L241.432 72.08H234.684L233.396 76H229.896L236.084 57.828ZM235.524 69.588H240.62L238.1 61.776L235.524 69.588ZM245.717 57.828H260.277V60.684H254.649V76H251.345V60.684H245.717V57.828ZM260.62 57.828H275.18V60.684H269.552V76H266.248V60.684H260.62V57.828ZM277.93 57.828H289.634V60.684H281.234V65.472H289.102V68.328H281.234V73.116H289.634V76H277.93V57.828ZM307.86 63.4C307.86 64.688 307.496 65.7893 306.768 66.704C306.04 67.6187 304.995 68.2533 303.632 68.608L308.504 76H304.192L300.188 68.916H297.668V76H294.364V57.828H301.084C303.231 57.828 304.902 58.3413 306.096 59.368C307.272 60.3573 307.86 61.7013 307.86 63.4ZM300.776 66.704C301.99 66.704 302.904 66.4333 303.52 65.892C304.136 65.332 304.444 64.604 304.444 63.708C304.444 62.7933 304.164 62.0653 303.604 61.524C303.044 60.964 302.204 60.684 301.084 60.684H297.668V66.704H300.776Z" fill="white"/>
<path d="M30.0553 92.049V97.312H35.9263V92.049H37.4273V104H35.9263V98.604H30.0553V104H28.5543V92.049H30.0553ZM44.5322 94.69C45.7989 94.69 46.8185 95.1017 47.5912 95.925C48.3765 96.7483 48.7692 97.9263 48.7692 99.459C48.7692 100.979 48.3765 102.151 47.5912 102.974C46.8185 103.797 45.7989 104.209 44.5322 104.209C43.2655 104.209 42.2395 103.797 41.4542 102.974C40.6815 102.151 40.2952 100.979 40.2952 99.459C40.2952 97.9263 40.6815 96.7483 41.4542 95.925C42.2395 95.1017 43.2655 94.69 44.5322 94.69ZM47.2492 99.459C47.2492 98.3697 47.0212 97.521 46.5652 96.913C46.1092 96.2923 45.4379 95.982 44.5512 95.982C43.6772 95.982 43.0059 96.2923 42.5372 96.913C42.0685 97.521 41.8342 98.3697 41.8342 99.459C41.8342 100.536 42.0559 101.384 42.4992 102.005C42.9425 102.613 43.6012 102.917 44.4752 102.917C45.3619 102.917 46.0459 102.613 46.5272 102.005C47.0085 101.384 47.2492 100.536 47.2492 99.459ZM51.6173 94.918L53.8213 102.157L55.9873 95.355H57.2413L59.3883 102.233L61.6113 94.918H63.0933L60.1293 104H58.6663L56.5763 97.635L54.5243 104H53.0803L50.0593 94.918H51.6173ZM74.6812 103.734C73.5919 104.241 72.5975 104.348 71.6982 104.057C71.0522 103.854 70.5962 103.43 70.3302 102.784C70.1909 102.467 70.1212 102.087 70.1212 101.644V96.058H68.6582V94.918H70.1212V92.391H71.6032V94.918H74.4532V96.058H71.6032V101.625C71.6032 102.55 72.0339 103.012 72.8952 103.012C73.3639 103.012 73.8895 102.898 74.4722 102.67L74.6812 103.734ZM80.3428 94.69C81.6094 94.69 82.6291 95.1017 83.4018 95.925C84.1871 96.7483 84.5798 97.9263 84.5798 99.459C84.5798 100.979 84.1871 102.151 83.4018 102.974C82.6291 103.797 81.6094 104.209 80.3428 104.209C79.0761 104.209 78.0501 103.797 77.2648 102.974C76.4921 102.151 76.1058 100.979 76.1058 99.459C76.1058 97.9263 76.4921 96.7483 77.2648 95.925C78.0501 95.1017 79.0761 94.69 80.3428 94.69ZM83.0598 99.459C83.0598 98.3697 82.8318 97.521 82.3758 96.913C81.9198 96.2923 81.2484 95.982 80.3618 95.982C79.4878 95.982 78.8164 96.2923 78.3478 96.913C77.8791 97.521 77.6448 98.3697 77.6448 99.459C77.6448 100.536 77.8664 101.384 78.3098 102.005C78.7531 102.613 79.4118 102.917 80.2858 102.917C81.1724 102.917 81.8564 102.613 82.3378 102.005C82.8191 101.384 83.0598 100.536 83.0598 99.459ZM92.3542 103.715C91.5942 103.348 91.2142 102.784 91.2142 102.024C91.2142 101.631 91.3598 101.289 91.6512 100.998C91.9552 100.694 92.3288 100.491 92.7722 100.39C92.0882 99.782 91.7462 98.984 91.7462 97.996C91.7462 97.008 92.0945 96.21 92.7912 95.602C93.5005 94.994 94.3365 94.69 95.2992 94.69C96.2618 94.69 97.0788 94.918 97.7502 95.374C97.8388 94.7027 98.1048 94.1643 98.5482 93.759C99.0042 93.3537 99.5995 93.151 100.334 93.151L100.201 94.633C99.0865 94.633 98.5038 95.1017 98.4532 96.039C98.8965 96.5837 99.1182 97.236 99.1182 97.996C99.1182 98.9713 98.7635 99.7757 98.0542 100.409C97.3575 101.03 96.4835 101.34 95.4322 101.34C94.7102 101.34 94.0705 101.194 93.5132 100.903C93.2598 100.954 93.0318 101.074 92.8292 101.264C92.6265 101.441 92.5252 101.688 92.5252 102.005C92.5252 102.676 93.0825 103.012 94.1972 103.012H97.7312C98.5798 103.012 99.2512 103.196 99.7452 103.563C100.239 103.918 100.486 104.418 100.486 105.064C100.486 106.027 99.9985 106.869 99.0232 107.591C98.0605 108.313 96.8382 108.674 95.3562 108.674C93.8742 108.674 92.7088 108.395 91.8602 107.838C91.0115 107.293 90.5872 106.603 90.5872 105.767C90.5872 105.222 90.7455 104.779 91.0622 104.437C91.3915 104.095 91.8222 103.854 92.3542 103.715ZM92.0692 105.71C92.0692 106.191 92.3288 106.603 92.8482 106.945C93.3802 107.3 94.1782 107.477 95.2422 107.477C96.3188 107.477 97.2118 107.243 97.9212 106.774C98.6432 106.318 99.0042 105.78 99.0042 105.159C99.0042 104.868 98.8965 104.614 98.6812 104.399C98.4785 104.196 98.1618 104.095 97.7312 104.095H94.0642C93.4182 104.12 92.9242 104.272 92.5822 104.551C92.2402 104.842 92.0692 105.229 92.0692 105.71ZM97.6552 97.996C97.6552 97.3373 97.4588 96.8053 97.0662 96.4C96.6735 95.982 96.1288 95.773 95.4322 95.773C94.7482 95.773 94.2098 95.982 93.8172 96.4C93.4245 96.8053 93.2282 97.3373 93.2282 97.996C93.2282 98.6547 93.4245 99.1993 93.8172 99.63C94.2225 100.048 94.7672 100.257 95.4512 100.257C96.1352 100.257 96.6735 100.042 97.0662 99.611C97.4588 99.1803 97.6552 98.642 97.6552 97.996ZM105.852 102.993C107.106 102.993 107.822 102.442 107.999 101.34H109.538C109.399 102.252 108.994 102.961 108.322 103.468C107.664 103.962 106.84 104.209 105.852 104.209C104.636 104.209 103.648 103.778 102.888 102.917C102.128 102.043 101.748 100.884 101.748 99.44C101.748 97.996 102.128 96.8433 102.888 95.982C103.661 95.1207 104.681 94.69 105.947 94.69C107.227 94.69 108.177 95.184 108.797 96.172C109.431 97.16 109.652 98.3633 109.462 99.782H103.249C103.249 100.719 103.477 101.492 103.933 102.1C104.389 102.695 105.029 102.993 105.852 102.993ZM106.954 96.115C106.663 95.963 106.308 95.887 105.89 95.887C105.118 95.887 104.503 96.153 104.047 96.685C103.604 97.2043 103.344 97.8567 103.268 98.642H108.113C108.113 97.3753 107.727 96.533 106.954 96.115ZM117.246 103.734C116.156 104.241 115.162 104.348 114.263 104.057C113.617 103.854 113.161 103.43 112.895 102.784C112.755 102.467 112.686 102.087 112.686 101.644V96.058H111.223V94.918H112.686V92.391H114.168V94.918H117.018V96.058H114.168V101.625C114.168 102.55 114.598 103.012 115.46 103.012C115.928 103.012 116.454 102.898 117.037 102.67L117.246 103.734ZM124.262 94.899H125.763V104H124.262V94.899ZM125.003 92.771C124.699 92.771 124.458 92.6887 124.281 92.524C124.116 92.3467 124.034 92.1187 124.034 91.84C124.034 91.5487 124.116 91.3207 124.281 91.156C124.458 90.9787 124.699 90.89 125.003 90.89C125.307 90.89 125.547 90.9787 125.725 91.156C125.915 91.3207 126.01 91.5487 126.01 91.84C126.01 92.1187 125.915 92.3467 125.725 92.524C125.547 92.6887 125.307 92.771 125.003 92.771ZM131.288 96.666C131.884 95.3487 132.903 94.69 134.347 94.69C135.424 94.69 136.26 95.0447 136.855 95.754C137.463 96.4633 137.767 97.4323 137.767 98.661V104H136.285V98.661C136.285 97.787 136.076 97.1283 135.658 96.685C135.253 96.2417 134.67 96.02 133.91 96.02C133.15 96.02 132.536 96.3303 132.067 96.951C131.599 97.5717 131.352 98.433 131.326 99.535V104H129.825V94.918H131.117L131.288 96.666ZM141.407 94.918L144.143 102.423L146.898 94.918H148.589L144.979 104H143.326L139.716 94.918H141.407ZM154.116 94.69C155.383 94.69 156.403 95.1017 157.175 95.925C157.961 96.7483 158.353 97.9263 158.353 99.459C158.353 100.979 157.961 102.151 157.175 102.974C156.403 103.797 155.383 104.209 154.116 104.209C152.85 104.209 151.824 103.797 151.038 102.974C150.266 102.151 149.879 100.979 149.879 99.459C149.879 97.9263 150.266 96.7483 151.038 95.925C151.824 95.1017 152.85 94.69 154.116 94.69ZM156.833 99.459C156.833 98.3697 156.605 97.521 156.149 96.913C155.693 96.2923 155.022 95.982 154.135 95.982C153.261 95.982 152.59 96.2923 152.121 96.913C151.653 97.521 151.418 98.3697 151.418 99.459C151.418 100.536 151.64 101.384 152.083 102.005C152.527 102.613 153.185 102.917 154.059 102.917C154.946 102.917 155.63 102.613 156.111 102.005C156.593 101.384 156.833 100.536 156.833 99.459ZM161.22 91.061H162.721V104H161.22V91.061ZM166.659 94.918L169.395 102.423L172.15 94.918H173.841L170.231 104H168.578L164.968 94.918H166.659ZM179.236 102.993C180.49 102.993 181.206 102.442 181.383 101.34H182.922C182.783 102.252 182.377 102.961 181.706 103.468C181.047 103.962 180.224 104.209 179.236 104.209C178.02 104.209 177.032 103.778 176.272 102.917C175.512 102.043 175.132 100.884 175.132 99.44C175.132 97.996 175.512 96.8433 176.272 95.982C177.045 95.1207 178.064 94.69 179.331 94.69C180.61 94.69 181.56 95.184 182.181 96.172C182.814 97.16 183.036 98.3633 182.846 99.782H176.633C176.633 100.719 176.861 101.492 177.317 102.1C177.773 102.695 178.413 102.993 179.236 102.993ZM180.338 96.115C180.047 95.963 179.692 95.887 179.274 95.887C178.501 95.887 177.887 96.153 177.431 96.685C176.988 97.2043 176.728 97.8567 176.652 98.642H181.497C181.497 97.3753 181.111 96.533 180.338 96.115ZM191.826 96.267V91.061H193.308V104H192.092L191.902 102.48C191.611 103.05 191.225 103.481 190.743 103.772C190.262 104.063 189.736 104.209 189.166 104.209C188.014 104.209 187.045 103.766 186.259 102.879C185.487 101.992 185.1 100.84 185.1 99.421C185.1 97.9897 185.48 96.8433 186.24 95.982C187.013 95.1207 187.982 94.69 189.147 94.69C190.325 94.69 191.218 95.2157 191.826 96.267ZM189.242 96.02C188.508 96.02 187.887 96.3303 187.38 96.951C186.886 97.5717 186.639 98.4013 186.639 99.44C186.639 100.479 186.893 101.315 187.399 101.948C187.906 102.569 188.514 102.879 189.223 102.879C189.933 102.879 190.534 102.645 191.028 102.176C191.535 101.695 191.801 101.055 191.826 100.257V98.775C191.826 97.9263 191.579 97.255 191.085 96.761C190.591 96.267 189.977 96.02 189.242 96.02Z" fill="white"/>
<path d="M32.3923 233.669C34.2669 233.669 35.7806 234.226 36.9333 235.341C38.0986 236.456 38.6813 237.957 38.6813 239.844C38.6813 241.719 38.0986 243.213 36.9333 244.328C35.7806 245.443 34.2669 246 32.3923 246H28.3833V233.669H32.3923ZM30.6443 243.967H32.3923C33.5576 243.967 34.5013 243.574 35.2233 242.789C35.9073 242.029 36.2493 241.047 36.2493 239.844C36.2493 238.615 35.9073 237.621 35.2233 236.861C34.5139 236.088 33.5703 235.702 32.3923 235.702H30.6443V243.967ZM46.1586 233.422C46.982 233.422 47.7356 233.561 48.4196 233.84C49.1036 234.106 49.6926 234.505 50.1866 235.037C51.2253 236.152 51.7446 237.748 51.7446 239.825C51.7446 241.915 51.2253 243.53 50.1866 244.67C49.1986 245.734 47.8496 246.266 46.1396 246.266C44.4423 246.266 43.0996 245.721 42.1116 244.632C41.073 243.505 40.5536 241.902 40.5536 239.825C40.5536 237.722 41.073 236.114 42.1116 234.999C43.087 233.948 44.436 233.422 46.1586 233.422ZM49.4266 239.863C49.4266 238.444 49.129 237.355 48.5336 236.595C47.951 235.822 47.1593 235.436 46.1586 235.436C45.158 235.436 44.36 235.822 43.7646 236.595C43.1693 237.355 42.8716 238.444 42.8716 239.863C42.8716 241.269 43.1693 242.352 43.7646 243.112C44.36 243.859 45.158 244.233 46.1586 244.233C47.1593 244.233 47.951 243.859 48.5336 243.112C49.129 242.352 49.4266 241.269 49.4266 239.863ZM56.8104 233.669L62.2444 242.409V233.669H64.4864V246H62.2064L56.6014 236.956V246H54.3594V233.669H56.8104ZM70.8665 233.669H73.6785L77.7255 246H75.3505L74.4955 243.34H69.9165L69.0425 246H66.6675L70.8665 233.669ZM70.4865 241.649H73.9445L72.2345 236.348L70.4865 241.649ZM77.4036 233.669H87.2836V235.607H83.4646V246H81.2226V235.607H77.4036V233.669ZM89.1499 233.669H97.0919V235.607H91.3919V238.856H96.7309V240.794H91.3919V244.043H97.0919V246H89.1499V233.669ZM107.52 233.669L112.954 242.409V233.669H115.196V246H112.916L107.311 236.956V246H105.069V233.669H107.52ZM123.457 233.422C124.281 233.422 125.034 233.561 125.718 233.84C126.402 234.106 126.991 234.505 127.485 235.037C128.524 236.152 129.043 237.748 129.043 239.825C129.043 241.915 128.524 243.53 127.485 244.67C126.497 245.734 125.148 246.266 123.438 246.266C121.741 246.266 120.398 245.721 119.41 244.632C118.372 243.505 117.852 241.902 117.852 239.825C117.852 237.722 118.372 236.114 119.41 234.999C120.386 233.948 121.735 233.422 123.457 233.422ZM126.725 239.863C126.725 238.444 126.428 237.355 125.832 236.595C125.25 235.822 124.458 235.436 123.457 235.436C122.457 235.436 121.659 235.822 121.063 236.595C120.468 237.355 120.17 238.444 120.17 239.863C120.17 241.269 120.468 242.352 121.063 243.112C121.659 243.859 122.457 244.233 123.457 244.233C124.458 244.233 125.25 243.859 125.832 243.112C126.428 242.352 126.725 241.269 126.725 239.863ZM132.817 233.669L135.534 243.036L138.175 234.486H139.695L142.488 243.074L145.376 233.669H147.903L143.666 246H141.31L138.992 239.046L136.693 246H134.337L130.309 233.669H132.817Z" fill="white"/>
</svg>
