<svg width="393" height="649" viewBox="0 0 393 649" fill="none" xmlns="http://www.w3.org/2000/svg">
<g clip-path="url(#clip0)">
<path d="M300.362 142.605C301.506 140.227 305.436 140.119 309.905 141.839C316.634 144.46 317.495 139.999 319.003 144.204C320.51 148.41 330.322 141.114 330.322 153.126C330.322 156.244 334.884 149.243 339.945 153.328C344.131 156.714 347.536 151.756 348.02 156.795C348.505 161.833 355.477 157.359 355.651 163.07C355.826 168.78 362.044 164.695 362.044 168.888C362.044 173.08 366.082 171.75 364.063 180.309C363.363 183.252 370.079 183.346 367.913 188.452C366.19 192.483 371.627 196.124 368.262 199.9C364.898 203.676 374.521 204.912 368.545 209.091C363.673 212.504 369.891 214.466 366.863 217.381C363.834 220.297 366.634 223.092 362.26 225.779C357.886 228.467 363.04 222.864 356.486 225.027C349.931 227.19 346.392 226.841 346.392 226.841L331.25 219.182L327.051 211.738L318.976 214.573C318.976 214.573 316.54 206.511 316.123 205.369C315.705 204.227 311.385 194.324 311.385 194.324C311.385 194.324 329.555 185.845 329.555 181.653C329.555 177.46 326.028 168.942 326.028 168.942L318.976 157.466L300.362 142.605Z" fill="#081B26"/>
<path d="M304.576 196.543C292.463 190.483 280.148 183.617 279.959 180.419L279.744 180.513L279.811 179.828C277.671 176.563 284.145 173.23 287.806 169.078C285.114 161.621 251.709 76.727 251.224 75.4102C246.161 76.4314 241.049 77.1982 235.908 77.7079C236.137 78.5813 272.611 202.993 275.491 209.765C285.787 205.586 295.168 202.711 304.576 196.543Z" fill="#57280F"/>
<path d="M284.238 181.988L268.936 183.614C268.936 183.614 269.111 190.601 274.319 193.826C279.528 197.051 285.813 205.664 285.813 205.664L303.081 200.397L284.238 181.988Z" fill="#321309"/>
<path d="M323.078 198.978C332.68 197.111 338.328 184.65 335.694 171.145C333.059 157.641 323.14 148.206 313.539 150.073C303.937 151.94 298.289 164.401 300.923 177.906C303.557 191.41 313.477 200.845 323.078 198.978Z" fill="#081B26"/>
<path d="M249.892 71.4962C248.102 65.5706 247.2 60.7468 248.263 58.2341C250.659 52.1203 252.099 42.1098 250.955 39.6912C249.811 37.2726 241.857 30.1107 239.569 30.366C237.281 30.6213 236.877 33.255 236.877 33.255L236.675 33.134L236.433 34.2358C236.433 34.2358 233.903 37.2726 234.575 36.0095C234.993 35.2167 234.454 33.5371 234.01 32.2741C233.467 32.2148 232.919 32.3327 232.449 32.61C231.197 33.4028 231.103 35.378 231.211 36.2514L231.52 37.7429L228.923 38.5356L228.438 35.9692C227.892 36.0722 227.408 36.386 227.092 36.8426C226.226 37.9995 225.819 39.4351 225.948 40.8736C225.726 40.8992 225.506 40.9396 225.289 40.9946C224.36 41.223 222.826 41.8411 222.96 43.467C223.203 44.5417 223.717 45.5364 224.454 46.3559C224.841 47.6019 225.327 48.8151 225.908 49.9838C226.904 51.7978 226.312 58.2475 229.38 62.077C231.615 64.8719 233.593 69.5613 235.154 74.748C235.45 75.7423 235.733 76.75 236.016 77.7713C241.164 77.2844 246.285 76.54 251.359 75.5407C250.767 74.1433 250.336 72.7996 249.892 71.4962Z" fill="#57280F"/>
<path d="M229.811 50.4031C227.402 50.2015 226.514 45.7002 226.218 43.389C227.375 45.942 228.802 48.4144 230 48.4816C232.53 48.616 230.403 43.1069 230.403 43.1069C231.426 43.4768 232.506 43.6589 233.593 43.6443C234.185 42.4485 233.593 39.8686 234.791 39.6133C234.791 41.5751 234.791 44.1952 235.585 44.5043C236.379 44.8133 231.278 50.524 229.811 50.4031Z" fill="#321309"/>
<path d="M236.567 33.1334L236.325 34.2352C236.325 34.2352 233.795 37.2719 234.468 36.0089C234.885 35.2161 234.346 33.5365 233.902 32.2734C234.838 32.3839 235.744 32.676 236.567 33.1334Z" fill="#321309"/>
<path d="M231.412 37.7308L228.815 38.5236L228.33 35.9571C229.319 35.8729 230.307 36.1289 231.13 36.6827C231.13 36.6827 231.13 36.508 231.13 36.2393L231.412 37.7308Z" fill="#321309"/>
<path d="M245.706 46.0739C244.555 45.1283 243.634 43.9336 243.014 42.5803C242.354 40.8266 241.202 39.2998 239.696 38.1823C238.19 37.0648 236.394 36.4038 234.521 36.2784C238.384 35.1363 239.528 35.9559 240.524 35.4319C241.52 34.9078 241.237 32.3951 241.184 32.207C242.104 35.107 243.505 37.8323 245.329 40.2691C246.5 42.0428 245.706 46.0739 245.706 46.0739Z" fill="#321309"/>
<path d="M237.321 36.2812H234.495L231.413 37.7727L228.815 38.5655C228.815 38.5655 226.554 39.412 226.85 40.8498C227.146 42.2875 229.138 43.2684 231.265 43.7924" stroke="#321309" stroke-width="0.5" stroke-miterlimit="10"/>
<path d="M368.949 542.848C368.465 574.465 359.528 610.207 358.343 610.677C356.54 611.389 353.175 612.021 347.671 610.529C344.224 609.772 341.016 608.18 338.33 605.894C337.173 604.792 339.932 559.16 337.765 533.926C334.79 499.178 320.699 436.334 319.568 426.431C318.074 438.363 330.336 496.773 332.152 519.024C334.239 543.627 328.371 595.144 327.603 595.467C324.243 596.893 320.622 597.606 316.971 597.563C312.74 597.188 308.766 595.371 305.719 592.417C305.369 592.094 308.909 545.75 297.846 495.241C291.722 467.306 284.831 416.971 285.019 396.588C285.275 369.875 293.404 362.082 293.404 362.082C293.404 362.082 302.583 329.726 305.329 330.599C324.575 336.646 344.252 363.238 354.602 361.276C355.033 363.963 364.023 364.89 366.109 390.071C368.276 415.964 358.317 425.007 364.763 487.475C366.082 500.253 369.434 511.231 368.949 542.848Z" fill="#1A2D3D"/>
<path d="M362.637 631.332C357.482 634.275 351.587 637.204 348.411 641.611C345.234 646.019 324.615 645.038 324.185 644.299C323.754 643.56 314.763 638.427 311.049 642.834C311.049 634.772 312.031 634.262 316.93 631.803C318.784 630.48 320.328 628.769 321.453 626.791C322.516 625.219 323.619 623.418 324.737 621.591C328.182 615.826 331.668 609.699 334.158 609.014H334.239C335.407 608.717 336.616 608.608 337.819 608.691C342.085 608.987 346.594 611.379 350.416 613.69C352.84 615.081 355.588 615.808 358.384 615.799C359.167 615.818 359.951 615.769 360.726 615.651C361.807 620.815 362.446 626.061 362.637 631.332Z" fill="#FAFAFA"/>
<path d="M362.637 631.332V633.952C362.638 635.378 362.201 636.769 361.385 637.939C360.569 639.109 359.414 640.002 358.075 640.496C354.522 641.779 351.049 643.268 347.671 644.957C340.807 648.477 317.886 648.827 313.068 647.013C310.376 645.965 311.103 642.847 311.103 642.847C314.777 638.44 323.876 643.573 324.239 644.312C324.602 645.051 345.221 646.032 348.465 641.625C351.709 637.217 357.482 634.221 362.637 631.332Z" fill="#1A2D3D"/>
<path d="M357.024 281.393C357.576 283.314 358.182 285.343 358.841 287.426C367.541 284.839 375.948 281.358 383.928 277.039C377.32 250.784 367.428 221.572 355.315 217.138C339.231 211.239 328.545 207.732 328.545 207.732C328.545 207.732 316.607 202.532 304.561 196.539C295.14 202.707 284.158 205.837 274.306 210.325C279.474 222.418 284.965 235.855 286.055 240.289C289.905 256.199 277.361 262.393 279.326 277.375C281.883 297.423 283.835 373.758 283.835 373.758C283.46 375.504 283.747 377.328 284.639 378.876C285.531 380.424 286.966 381.588 288.666 382.142C288.666 382.142 326.728 391.548 365.988 377.681C362.408 364.137 357.024 281.393 357.024 281.393Z" fill="#0B131A"/>
<path d="M334.252 609H334.171C331.735 609.685 328.235 615.812 324.75 621.577C319.541 620.972 309.824 619.991 303.538 621.913C295.463 624.358 294.898 627.086 282.287 626.777C269.676 626.468 268.384 622.423 265.759 620.77C263.727 619.427 262.771 619.601 262.462 619.722H262.327C262.327 619.722 262.987 615.96 274.44 614.173C285.894 612.386 299.097 591.868 303.538 592.446C304.682 592.593 304.252 593.131 305.113 593.883C307.051 595.576 308.464 598.411 310.16 600.776C312.61 604.203 320.564 604.377 324.184 600.776C325.433 599.509 326.85 598.419 328.397 597.538C328.838 597.23 329.346 597.031 329.88 596.956C330.413 596.881 330.956 596.933 331.466 597.108C332.542 597.578 333.713 605.049 334.252 609Z" fill="#FAFAFA"/>
<path d="M324.804 621.604C323.7 623.431 322.583 625.245 321.52 626.804C315.006 626.804 303.189 626.884 297.859 627.973C290.672 629.437 289.555 630.082 281.857 630.082C274.158 630.082 269.272 630.243 264.521 626.817C259.77 623.391 262.395 619.79 262.395 619.79H262.53C262.839 619.669 263.795 619.548 265.827 620.838C268.451 622.49 269.77 626.548 282.355 626.844C294.939 627.14 295.585 624.425 303.606 621.98C309.865 620.018 319.582 620.999 324.804 621.604Z" fill="#1A2D3D"/>
<path d="M328.397 597.535C326.863 598.449 325.464 599.57 324.238 600.867C320.604 604.468 312.664 604.293 310.214 600.867C308.518 598.502 307.105 595.667 305.167 593.974L305.746 592.375C307.993 594.35 312.166 597.36 316.997 597.521C320.647 597.542 324.262 596.829 327.63 595.425L328.397 597.535Z" fill="#57280F"/>
<path d="M358.344 610.666V615.799C355.548 615.808 352.799 615.081 350.376 613.69C346.554 611.405 342.031 608.987 337.778 608.691L338.344 605.883C341.03 608.169 344.237 609.761 347.684 610.519C353.162 611.983 356.527 611.378 358.344 610.666Z" fill="#57280F"/>
<path d="M330.12 188.45C329.023 190.352 327.526 191.993 325.732 193.261C322.758 195.249 326.903 200.974 326.903 203.755C326.903 206.536 318.249 220.067 307.213 223.695H307.105C296.015 227.256 290.187 210.406 289.017 205.273C287.846 200.141 287.671 197.964 282.866 194.793C280.336 193.113 279.299 185.938 278.922 179.354C278.774 177.083 278.707 173.106 278.707 173.106C286.621 182.404 299.434 169.074 301.385 168.537C308.505 166.763 322.179 189.297 322.771 188.316C319.797 178.507 323.148 175.632 326.701 175.014C332.287 174.06 333.915 182.081 330.12 188.45Z" fill="#57280F"/>
<path d="M330.322 201.285C329.286 198.464 330.497 190.536 330.12 188.453C329.023 190.355 327.526 191.996 325.732 193.264C322.758 195.252 326.903 200.976 326.903 203.758C326.903 206.539 318.061 219.197 309.178 222.905C309.178 223.429 309.111 223.967 309.07 224.518C322.57 221.051 327.697 214.924 330.322 201.285Z" fill="#321309"/>
<path d="M334.225 210.234C332.879 208.89 331.156 203.516 330.321 201.285C326.284 214.05 320.685 219.909 309.083 224.517C309.003 225.539 308.814 227.809 308.585 230.551C308.49 231.646 308.754 232.743 309.337 233.676C309.92 234.609 310.791 235.328 311.818 235.725C312.845 236.122 313.973 236.175 315.034 235.877C316.094 235.579 317.028 234.945 317.697 234.071C325.624 223.684 334.992 211.04 334.225 210.234Z" fill="#57280F"/>
<path d="M330.214 175.888C328.329 173.617 318.558 174.463 322.771 188.317C322.179 189.298 312.717 177.272 305.449 178.333C299.218 179.247 291.573 201.431 275.032 188.451C270.685 185.186 268.545 169.975 274.709 160.973C281.196 151.567 298.68 141.637 314.628 147.402C339.554 156.431 330.739 173.859 330.214 175.888Z" fill="#081B26"/>
<path d="M348.505 415.202C348.197 415.458 347.873 415.696 347.536 415.914C347.926 413.872 348.492 413.455 348.492 413.455C348.356 413.359 348.226 413.256 348.101 413.146C348.613 412.824 350.712 405.863 350.712 405.863C350.712 405.863 351.762 412.515 348.505 415.202Z" fill="#321309"/>
<path d="M393 320.672C393 320.672 389.743 299.98 383.983 277.043C376.003 281.362 367.595 284.842 358.896 287.43C363.97 303.554 371.628 323.01 371.628 323.01C371.628 323.01 365.302 387.978 365.289 388.005C364.32 391.417 363.297 394.589 362.745 395.019C361.493 395.999 352.503 399.291 350.43 400.837C348.357 402.382 347.913 405.392 346.635 408.321C345.639 410.592 347.361 412.46 348.169 413.158C348.294 413.268 348.424 413.371 348.559 413.467C348.559 413.467 347.994 413.884 347.604 415.926C347.604 416.249 347.482 416.612 347.442 417.015C347.079 420.011 349.744 420.79 353.054 421.986C354.589 424.929 359.071 425.171 360.161 424.002C362.085 425.466 366.54 424.821 366.742 424.875C366.944 424.929 368.774 423.988 372.328 417.297C375.881 410.605 375.019 403.376 375.517 401.455C376.015 399.533 378.209 398.767 378.075 394.736C378.07 394.012 378.129 393.288 378.249 392.573C378.573 391.7 378.869 390.907 379.111 390.275C379.353 389.644 393 320.672 393 320.672Z" fill="#57280F"/>
<path d="M344.319 618.902C344.319 619.426 339.595 637.096 323.296 630.095" stroke="#1A2D3D" stroke-miterlimit="10"/>
<path d="M284.212 611.375C284.212 611.375 285.8 617.959 303.499 603.461" stroke="#1A2D3D" stroke-miterlimit="10"/>
<path d="M356.5 426.863C356.5 426.863 354.535 472.119 360.928 506.396C368.774 548.521 356.5 597.941 356.5 597.941" stroke="#B7E3F2" stroke-miterlimit="10"/>
<path d="M288.707 191.853C285.666 193.062 280.632 195.293 278.707 192.525C276.783 189.757 274.158 193.989 273.62 189.918C273.135 186.129 267.133 185.699 269.138 180.512C271.144 175.325 264.468 172.45 268.533 170.555C272.597 168.661 267.483 162.493 272.207 162.681C276.931 162.869 273.553 154.807 277.59 155.506C281.628 156.205 282.503 147.444 286.002 148.331C289.501 149.218 288.694 140.269 293.889 143.252C299.084 146.235 302.382 138.804 305.289 142.378C308.196 145.952 313.364 141.035 314.562 145.066C315.76 149.097 322.193 146.06 323.876 149.782C325.558 153.504 333.297 150.884 332.126 158.355C330.955 165.826 339.071 165.248 337.509 169.212C335.948 173.175 341.964 175.93 339.084 179.356C336.204 182.783 340.309 188.453 337.738 189.676C335.168 190.899 334.804 197.295 331.614 195.051C328.425 192.807 328.452 190.334 331.09 190.16C333.727 189.985 331.964 187.19 333.539 184.785C335.114 182.38 333.539 180.593 334.266 178.832C334.993 177.072 330.322 169.225 330.322 169.225L328.707 163.622L322.328 157.212L309.192 153.37L299.555 152.321L289.744 157.925L283.082 166.323L275.72 177.166L279.313 185.833L288.707 191.853Z" fill="#081B26"/>
<path d="M291.076 203.972C296.648 202.117 303.835 206.753 307.522 207.21C310.349 207.559 313.108 204.899 315.598 200.249C315.966 199.572 316.507 199.003 317.165 198.601C317.824 198.198 318.576 197.975 319.348 197.955C320.12 197.934 320.884 198.117 321.563 198.484C322.241 198.852 322.811 199.391 323.215 200.048C324.297 201.797 324.901 203.798 324.965 205.853C325.167 212.007 313.862 226.008 303.579 224.369C293.296 222.729 289.111 211.953 288.841 210.233C288.572 208.123 288.195 204.939 291.076 203.972Z" fill="#B7E3F2"/>
<path d="M319.272 199.419C319.272 196.449 319.407 193.52 319.703 190.591C319.851 189.126 320.026 187.662 320.309 186.21C320.556 184.746 320.934 183.307 321.439 181.911C321.467 181.838 321.521 181.779 321.592 181.746C321.662 181.714 321.743 181.71 321.816 181.736C321.889 181.763 321.948 181.818 321.981 181.888C322.014 181.959 322.017 182.039 321.991 182.112C321.561 183.489 321.254 184.901 321.076 186.331C320.874 187.769 320.753 189.22 320.672 190.671C320.511 193.574 320.511 196.503 320.672 199.392C320.672 199.57 320.601 199.741 320.475 199.867C320.349 199.993 320.178 200.064 319.999 200.064C319.821 200.064 319.65 199.993 319.523 199.867C319.397 199.741 319.326 199.57 319.326 199.392L319.272 199.419Z" fill="#B7E3F2"/>
<path d="M321.573 206.325C323.148 203.638 324.628 200.87 326.015 198.062C326.701 196.718 327.361 195.24 327.939 193.789C328.553 192.377 328.979 190.891 329.204 189.368C329.204 189.293 329.234 189.222 329.287 189.169C329.34 189.116 329.412 189.086 329.487 189.086C329.562 189.086 329.634 189.116 329.687 189.169C329.74 189.222 329.77 189.293 329.77 189.368C329.607 190.965 329.231 192.533 328.653 194.031C328.114 195.522 327.522 196.987 326.889 198.438C325.611 201.327 324.198 204.162 322.758 206.957C322.72 207.041 322.665 207.116 322.597 207.178C322.529 207.24 322.448 207.288 322.361 207.318C322.274 207.347 322.181 207.359 322.089 207.351C321.997 207.344 321.908 207.318 321.827 207.274C321.745 207.231 321.674 207.171 321.616 207.099C321.559 207.027 321.517 206.944 321.493 206.855C321.47 206.766 321.464 206.673 321.478 206.582C321.492 206.491 321.524 206.403 321.573 206.325Z" fill="#B7E3F2"/>
</g>
<defs>
<clipPath id="clip0">
<rect width="393" height="649" fill="white"/>
</clipPath>
</defs>
</svg>
