<svg xmlns="http://www.w3.org/2000/svg" viewBox="0 0 500 500">
  <defs>
    <style>
      .cls-1 {
        fill: #57280f;
      }

      .cls-2 {
        fill: #321309;
      }

      .cls-3, .cls-8, .cls-9 {
        fill: none;
        stroke-miterlimit: 10;
      }

      .cls-3 {
        stroke: #321309;
        stroke-width: 0.5px;
      }

      .cls-4 {
        fill: #1a2d3d;
      }

      .cls-5 {
        fill: #0b131a;
      }

      .cls-6 {
        fill: #fafafa;
      }

      .cls-7 {
        fill: #081b26;
      }

      .cls-8 {
        stroke: #b7e3f2;
      }

      .cls-9 {
        stroke: #1a2d3d;
      }

      .cls-10 {
        fill: #b7e3f2;
      }
    </style>
  </defs>
  <title>1</title>
  <g id="Слой_2" data-name="Слой 2">
    <g>
      <path class="cls-1" d="M252.07,121.61c-2.25-6.19-7.49-21.19-8.13-28.55-1.43-16.36-19.5-49.22-16.38-57.23,2-5.12,4.43-13.53,3.43-15.5s-8.82-8-10.74-7.8S218,14.95,218,14.95l-.17-.1-.2.92s-2.11,2.54-1.55,1.48c.35-.67-.1-2.07-.48-3.12a2.11,2.11,0,0,0-1.3.28c-1.05.67-1.08,2.31-1,3l.26,1.24-2.16.67-.4-2.15a1.77,1.77,0,0,0-1.11.74,4.9,4.9,0,0,0-1,3.33,4.19,4.19,0,0,0-.55.1c-.77.19-2.06.71-1.94,2.06a5.38,5.38,0,0,0,1.25,2.42,20.47,20.47,0,0,0,1.22,3c.83,1.51.33,6.91,2.9,10.12,4,5,3.88,16.87,4.7,25.1.88,9,3.17,27.2,7.31,36.38,3.32,7.34,5.78,28.17,12.71,38.22l13-3.81c.09-1.61.24-3.15.37-4.42C248.21,128,249.35,124.7,252.07,121.61Z"/>
      <path class="cls-2" d="M212.16,29.29c-2-.16-2.75-3.93-3-5.86,1,2.14,2.15,4.2,3.16,4.25,2.11.11.33-4.44.33-4.44a7.51,7.51,0,0,0,2.66.45c.5-1-.05-3.16,1-3.36,0,1.64,0,3.83.67,4.09S213.37,29.39,212.16,29.29Z"/>
      <path class="cls-2" d="M217.8,14.85l-.2.92s-2.11,2.54-1.55,1.48c.35-.67-.1-2.07-.48-3.12A6,6,0,0,1,217.8,14.85Z"/>
      <path class="cls-2" d="M213.49,18.69l-2.16.67-.4-2.15a3.63,3.63,0,0,1,2.34.61s0-.14,0-.37Z"/>
      <path class="cls-2" d="M225.42,25.67a8.2,8.2,0,0,1-2.22-2.92,8.15,8.15,0,0,0-7.11-5.3c3.22-1,4.18-.27,5-.71s.59-2.54.56-2.7a22.72,22.72,0,0,0,3.47,6.76C226.08,22.3,225.42,25.67,225.42,25.67Z"/>
      <path class="cls-2" d="M216.08,17.44h0C216,17.45,216,17.44,216.08,17.44Z"/>
      <path class="cls-3" d="M218.43,17.45h-2.36l-2.58,1.24-2.16.67s-1.89.71-1.64,1.91,1.91,2,3.68,2.46"/>
    </g>
    <path class="cls-4" d="M316.26,394.06c-.36,23.53-6.85,56.28-6.85,56.28a4,4,0,0,1-1.27.74c-1.34.53-3.84,1-7.93-.11a16,16,0,0,1-6.94-3.45,5.06,5.06,0,0,1-1.12-1.42s2.91-22.51,1.31-41.28a208.67,208.67,0,0,0-10.1-47.49c1.72,7.07,5.54,23.64,5.54,30.72,0,9.11-1.09,50.51-1.09,50.51a20.45,20.45,0,0,1-2.49,1.18,20.21,20.21,0,0,1-7.9,1.56c-3.59-.13-6.7-2.36-8.36-3.83a17.65,17.65,0,0,1-1.3-1.28s2-15-3-37.26c-4.61-20.55-2.75-29-4.95-33.81-2.61-5.77-10-63.73-10.06-64.78-1.24-17.24,1.56-28.34,2.43-31.26,15,9,51,2.42,59.77.74a111.32,111.32,0,0,1,2.78,14.32c2.18,19.16-1,52-.65,64.34C314.35,358.06,316.63,370.54,316.26,394.06Z"/>
    <path class="cls-5" d="M282.58,354.16l0-.12c-.36-1.66-.68-3.5-.94-5.56-2.19-17.14-8.57-48.32-8.57-48.32L277.19,348a38,38,0,0,0,5.22,16.18l4,6.74Z"/>
    <path class="cls-6" d="M311.34,466.45c-3.83,2.19-8.21,4.37-10.57,7.65s-17.68,2.55-18,2-7-4.37-9.76-1.09c0-6,.73-6.38,4.37-8.21a11.66,11.66,0,0,0,3.36-3.73c.79-1.17,1.61-2.51,2.44-3.87,2.56-4.29,5.15-8.85,7-9.36l.06,0a8.42,8.42,0,0,1,2.61-.23c3.17.22,6.52,2,9.36,3.72a11.8,11.8,0,0,0,5.92,1.57,10,10,0,0,0,1.74-.11A69.23,69.23,0,0,1,311.34,466.45Z"/>
    <path class="cls-4" d="M311.34,466.45v1.95a5.19,5.19,0,0,1-3.39,4.87,71.84,71.84,0,0,0-7.73,3.32c-5.1,2.62-22.13,2.88-25.71,1.53-2-.78-1.46-3.1-1.46-3.1,2.73-3.28,9.49.54,9.76,1.09s15.59,1.28,18-2S307.5,468.64,311.34,466.45Z"/>
    <path class="cls-6" d="M290.25,449.83l-.06,0c-1.81.51-4.41,5.07-7,9.36-3.87-.45-12.13-1.18-16.8.25-6,1.82-10.58,3.85-19.94,3.62s-10.33-3.24-12.28-4.47c-1.51-1-2.22-.87-2.45-.78l-.1,0s.49-2.8,9-4.13,22.47-16.6,25.77-16.17a4.12,4.12,0,0,1,2.21,1.07c1.44,1.26,2.49,3.37,3.75,5.13,1.82,2.55,7.73,2.68,10.42,0a14.38,14.38,0,0,1,3.09-2.48,2.54,2.54,0,0,1,2.28-.32C289,441.34,289.84,446.9,290.25,449.83Z"/>
    <path class="cls-4" d="M283.22,459.22c-.82,1.36-1.65,2.71-2.44,3.87-4.84,0-14.66.06-18.62.87a77.25,77.25,0,0,1-16,1.57c-5.71,0-9.35.12-12.88-2.43s-1.58-5.23-1.58-5.23l.1,0c.23-.09.94-.18,2.45.78,1.95,1.23,2.93,4.25,12.28,4.47s14-1.8,19.94-3.62C271.09,458,279.35,458.77,283.22,459.22Z"/>
    <path class="cls-1" d="M285.9,441.31a14.38,14.38,0,0,0-3.09,2.48c-2.7,2.68-8.6,2.55-10.42,0-1.26-1.76-2.31-3.87-3.75-5.13l.43-1.19c1.67,1.47,4.77,3.71,8.36,3.83a20.21,20.21,0,0,0,7.9-1.56Z"/>
    <path class="cls-1" d="M308.14,451.07v3.82a11.8,11.8,0,0,1-5.92-1.57c-2.84-1.7-6.2-3.5-9.36-3.72l.42-2.09a16,16,0,0,0,6.94,3.45C304.3,452.06,306.8,451.6,308.14,451.07Z"/>
    <path class="cls-5" d="M311.87,205.26s-3.35,32.31-2,46.89c1.15,12.1,5.82,28.46,5.82,28.46-50.07,13.45-52.27-.27-67.31,3.69a1.08,1.08,0,0,1-1.45-1.1c3.48-31.14,2-101.45-.14-107.77s-11.89-37.72-11.89-37.72l15-6.82c.27,4.68,40.92,18.64,40.92,18.64s15.5,4.33,25.45,9c16.2,7.68,19.06,41.37,19.06,41.37C332.11,200.73,314,204.74,311.87,205.26Z"/>
    <path class="cls-1" d="M287.17,136.86a11.29,11.29,0,0,1-3.26,3.58c-2.21,1.48.87,5.74.87,7.81s-6.43,12.14-14.63,14.84l-.08,0c-8.24,2.65-14.72-9.27-15.59-13.1s-1-5.44-4.57-7.8c-1.88-1.25-2.64-6.78-2.92-11.69-.11-1.69-.15-3.31-.17-4.66h0c5.88,6.92,17.54-3.47,19-3.83,5.29-1.32,13.38,17.52,13.38,17.52a28.17,28.17,0,0,0,2.5-2.8c-2.21-7.3.28-9.44,2.92-9.9C288.79,126.14,290,132.11,287.17,136.86Z"/>
    <path class="cls-2" d="M288.44,143.23a38.57,38.57,0,0,1-1.27-6.37,11.29,11.29,0,0,1-3.26,3.58c-2.21,1.48.87,5.74.87,7.81s-6.43,12.14-14.63,14.84c0,.39-.05.79-.08,1.2C280.1,161.7,286.49,153.38,288.44,143.23Z"/>
    <path class="cls-1" d="M291.48,150.57c-1-1-2.42-5.65-3-7.34-2,10.15-8.34,18.48-18.36,21.05-.2,2.7-.41,5.73,2.36,5.73C276.67,170,292.46,151.6,291.48,150.57Z"/>
    <path class="cls-7" d="M287.24,127.51c-1.36-1.46-8.66-1.06-5.53,9.25a28.17,28.17,0,0,1-2.5,2.8s-7.8-17.7-13.1-16.38c-1.8.45-14.48,12.95-21.22,6.25-3.23-2.43-1.33-9.44,1.11-13,4.8-7.06,18-13.46,27.76-10.25C287.18,110.55,287.63,126,287.24,127.51Z"/>
    <g>
      <path class="cls-1" d="M334.5,200.16l-21.12,4.77c2,12.69,7.87,38.56,7.87,38.56S313,285.76,313,285.78a53.44,53.44,0,0,0,10.69,7.09c.68-1.87,1.28-3.48,1.71-4.57,1.3-3.24,10.59-28.75,13.62-41.79C341.42,236.13,335.61,205.89,334.5,200.16Z"/>
      <g>
        <path class="cls-1" d="M320.55,308.48c-2.69,4.95-6.63,4.8-6.78,4.75s-2.3.76-3.72-.35c-.82.87-4.15.64-5.27-1.56-2.46-.91-5.59-1.88-5.3-4.1,0-.3.09-.57.13-.81.3-1.52.73-1.82.73-1.82a3.63,3.63,0,0,1-.29-.24c-.6-.54-1.86-1.93-1.1-3.62,1-2.16,1.33-4.4,2.88-5.53s8.27-3.51,9.2-4.23,3.79-11.92,3.79-11.92l11.87,4.84s-2.15,4.69-2.11,7.72-1.54,3.6-2,5S323.24,303.54,320.55,308.48Z"/>
        <path class="cls-2" d="M300.35,305.89a7.44,7.44,0,0,1-.73.53c.3-1.52.73-1.82.73-1.82a3.63,3.63,0,0,1-.29-.24c.38-.23,2-5.39,2-5.39S302.79,303.88,300.35,305.89Z"/>
      </g>
    </g>
    <path class="cls-8" d="M291.52,158.85C281,179.27,264,179.68,266.31,166.4"/>
    <path class="cls-8" d="M315.56,200c-2.46,0,18.62-4.92,18.62-4.92"/>
    <path class="cls-9" d="M297.72,457.21c0,.39-3.51,13.54-15.62,8.33"/>
    <path class="cls-9" d="M247.87,451.64s5.34,4.9,18.48-5.89"/>
    <path class="cls-10" d="M257.22,149.33c4.14-1.38,9.48,2.07,12.22,2.41,2.1.26,5-2.47,6.89-5.93a3.27,3.27,0,0,1,5.66-.15,8.74,8.74,0,0,1,1.3,4.32c.15,4.58-8.52,15.56-16.15,14.3s-11.35-9-11.54-10.28C255.35,152.42,255.07,150.05,257.22,149.33Z"/>
    <path class="cls-10" d="M279,145.18c0-2.21.1-4.39.32-6.57.11-1.09.24-2.18.45-3.26a18.43,18.43,0,0,1,.84-3.2.22.22,0,0,1,.28-.13.22.22,0,0,1,.13.28,18,18,0,0,0-.68,3.14c-.15,1.07-.24,2.15-.3,3.23-.12,2.16-.12,4.34,0,6.49h0a.5.5,0,0,1-1,0Z"/>
    <path class="cls-10" d="M280.73,150.33c1.17-2,2.27-4.06,3.3-6.15.51-1,1-2.1,1.43-3.18a13.06,13.06,0,0,0,.94-3.29v0a.21.21,0,0,1,.42,0,13.41,13.41,0,0,1-.83,3.47c-.4,1.11-.84,2.2-1.31,3.28-.95,2.15-2,4.26-3.07,6.34a.5.5,0,1,1-.88-.47v0Z"/>
  </g>
</svg>
