<svg width="110" height="28" viewBox="0 0 110 28" fill="none" xmlns="http://www.w3.org/2000/svg">
<g filter="url(#filter0_d)">
<path d="M33.717 5.307H40.211V6.463H35.06V10.016H39.854V11.172H35.06V16H33.717V5.307ZM47.249 10.73C47.249 9.99333 47.096 9.46633 46.79 9.149C46.484 8.83167 46.0363 8.673 45.447 8.673C44.869 8.673 44.3987 8.792 44.036 9.03C43.6847 9.25667 43.509 9.61933 43.509 10.118H42.03C42.03 8.87133 42.6987 8.10067 44.036 7.806C44.444 7.71533 44.886 7.67 45.362 7.67C46.3707 7.67 47.1583 7.925 47.725 8.435C48.2917 8.945 48.575 9.72133 48.575 10.764V16H47.419L47.283 14.64C46.7843 15.6713 45.8833 16.187 44.58 16.187C43.7073 16.187 43.0047 15.9433 42.472 15.456C41.9507 14.9687 41.69 14.3623 41.69 13.637C41.69 12.9117 41.979 12.345 42.557 11.937C43.1463 11.529 43.8773 11.325 44.75 11.325C45.6227 11.325 46.4557 11.4723 47.249 11.767V10.73ZM47.249 12.617C46.4443 12.3903 45.7417 12.277 45.141 12.277C44.5403 12.277 44.053 12.3847 43.679 12.6C43.305 12.8153 43.118 13.1553 43.118 13.62C43.118 14.64 43.696 15.15 44.852 15.15C45.5093 15.15 46.0703 14.9177 46.535 14.453C47.011 13.977 47.249 13.365 47.249 12.617ZM54.4327 7.67C55.396 7.67 56.161 7.91933 56.7277 8.418C57.2944 8.90533 57.6627 9.51733 57.8327 10.254L56.4727 10.373C56.3254 9.897 56.0874 9.52867 55.7587 9.268C55.43 8.996 55.0674 8.86 54.6707 8.86C53.9454 8.86 53.356 9.132 52.9027 9.676C52.4607 10.22 52.2397 10.9623 52.2397 11.903C52.2397 12.8323 52.455 13.5803 52.8857 14.147C53.3277 14.7137 53.8717 14.997 54.5177 14.997C55.175 14.997 55.6624 14.8497 55.9797 14.555C56.3084 14.249 56.4727 13.8183 56.4727 13.263H57.8497C57.8497 14.1357 57.5437 14.844 56.9317 15.388C56.331 15.9207 55.5434 16.187 54.5687 16.187C53.5374 16.187 52.659 15.796 51.9337 15.014C51.2197 14.232 50.8627 13.195 50.8627 11.903C50.8627 10.5997 51.2197 9.56833 51.9337 8.809C52.6477 8.04967 53.4807 7.67 54.4327 7.67ZM63.2837 15.099C64.4057 15.099 65.0461 14.606 65.2047 13.62H66.5817C66.4571 14.436 66.0944 15.0707 65.4937 15.524C64.9044 15.966 64.1677 16.187 63.2837 16.187C62.1957 16.187 61.3117 15.8017 60.6317 15.031C59.9517 14.249 59.6117 13.212 59.6117 11.92C59.6117 10.628 59.9517 9.59667 60.6317 8.826C61.3231 8.05533 62.2354 7.67 63.3687 7.67C64.5134 7.67 65.3634 8.112 65.9187 8.996C66.4854 9.88 66.6837 10.9567 66.5137 12.226H60.9547C60.9547 13.0647 61.1587 13.756 61.5667 14.3C61.9747 14.8327 62.5471 15.099 63.2837 15.099ZM64.2697 8.945C64.0091 8.809 63.6917 8.741 63.3177 8.741C62.6264 8.741 62.0767 8.979 61.6687 9.455C61.2721 9.91967 61.0397 10.5033 60.9717 11.206H65.3067C65.3067 10.0727 64.9611 9.319 64.2697 8.945ZM70.5707 9.081C71.1147 8.14033 71.9081 7.67 72.9507 7.67C73.9934 7.67 74.8604 8.061 75.5517 8.843C76.2431 9.61367 76.5887 10.6393 76.5887 11.92C76.5887 13.1893 76.2374 14.2207 75.5347 15.014C74.8321 15.796 73.9764 16.187 72.9677 16.187C72.4237 16.187 71.9307 16.051 71.4887 15.779C71.0581 15.507 70.7181 15.1047 70.4687 14.572L70.1627 16H69.2277V4.423H70.5707V9.081ZM72.8657 8.86C72.2197 8.86 71.6814 9.06967 71.2507 9.489C70.8201 9.897 70.5934 10.4693 70.5707 11.206V12.532C70.5707 13.28 70.7917 13.8807 71.2337 14.334C71.6871 14.776 72.2311 14.997 72.8657 14.997C73.5004 14.997 74.0501 14.7193 74.5147 14.164C74.9794 13.5973 75.2117 12.8493 75.2117 11.92C75.2117 10.9907 74.9794 10.2483 74.5147 9.693C74.0614 9.13767 73.5117 8.86 72.8657 8.86ZM82.0795 7.67C83.2128 7.67 84.1251 8.03833 84.8165 8.775C85.5191 9.51167 85.8705 10.5657 85.8705 11.937C85.8705 13.297 85.5191 14.3453 84.8165 15.082C84.1251 15.8187 83.2128 16.187 82.0795 16.187C80.9461 16.187 80.0281 15.8187 79.3255 15.082C78.6341 14.3453 78.2885 13.297 78.2885 11.937C78.2885 10.5657 78.6341 9.51167 79.3255 8.775C80.0281 8.03833 80.9461 7.67 82.0795 7.67ZM84.5105 11.937C84.5105 10.9623 84.3065 10.203 83.8985 9.659C83.4905 9.10367 82.8898 8.826 82.0965 8.826C81.3145 8.826 80.7138 9.10367 80.2945 9.659C79.8751 10.203 79.6655 10.9623 79.6655 11.937C79.6655 12.9003 79.8638 13.6597 80.2605 14.215C80.6571 14.759 81.2465 15.031 82.0285 15.031C82.8218 15.031 83.4338 14.759 83.8645 14.215C84.2951 13.6597 84.5105 12.9003 84.5105 11.937ZM91.3598 7.67C92.4931 7.67 93.4054 8.03833 94.0968 8.775C94.7994 9.51167 95.1508 10.5657 95.1508 11.937C95.1508 13.297 94.7994 14.3453 94.0968 15.082C93.4054 15.8187 92.4931 16.187 91.3598 16.187C90.2264 16.187 89.3084 15.8187 88.6058 15.082C87.9144 14.3453 87.5688 13.297 87.5688 11.937C87.5688 10.5657 87.9144 9.51167 88.6058 8.775C89.3084 8.03833 90.2264 7.67 91.3598 7.67ZM93.7908 11.937C93.7908 10.9623 93.5868 10.203 93.1788 9.659C92.7708 9.10367 92.1701 8.826 91.3768 8.826C90.5948 8.826 89.9941 9.10367 89.5748 9.659C89.1554 10.203 88.9458 10.9623 88.9458 11.937C88.9458 12.9003 89.1441 13.6597 89.5408 14.215C89.9374 14.759 90.5268 15.031 91.3088 15.031C92.1021 15.031 92.7141 14.759 93.1448 14.215C93.5754 13.6597 93.7908 12.9003 93.7908 11.937ZM100.147 11.699L99.059 12.583V16H97.716V4.423H99.059V11.155L102.986 7.874H104.856L101.116 10.917L105.043 16H103.394L100.147 11.699Z" fill="#101010"/>
<path fill-rule="evenodd" clip-rule="evenodd" d="M22.4615 0H5.53846C4.69 0 4 0.69 4 1.53846V18.4615C4 19.31 4.69 20 5.53846 20H13.6154C13.8277 20 14 19.8277 14 19.6154V14.2308C14 14.0185 13.8277 13.8462 13.6154 13.8462H12.0769C11.8646 13.8462 11.6923 13.6738 11.6923 13.4615V10.3846C11.6923 10.1723 11.8646 10 12.0769 10H13.6154C13.8277 10 14 9.82769 14 9.61539V8.07692C14 5.74385 15.8977 3.84615 18.2308 3.84615H20.5385C20.7508 3.84615 20.9231 4.01846 20.9231 4.23077V7.30769C20.9231 7.52 20.7508 7.69231 20.5385 7.69231H19C18.3638 7.69231 17.8462 8.21 17.8462 8.84615V9.61539C17.8462 9.82769 18.0185 10 18.2308 10H20.5385C20.6492 10 20.7538 10.0477 20.8269 10.13C20.9 10.2131 20.9338 10.3231 20.92 10.4323L20.5354 13.5092C20.5115 13.7015 20.3469 13.8462 20.1538 13.8462H18.2308C18.0185 13.8462 17.8462 14.0185 17.8462 14.2308V19.6154C17.8462 19.8277 18.0185 20 18.2308 20H22.4615C23.31 20 24 19.31 24 18.4615V1.53846C24 0.69 23.31 0 22.4615 0Z" fill="black"/>
</g>
<defs>
<filter id="filter0_d" x="0" y="0" width="109.043" height="28" filterUnits="userSpaceOnUse" color-interpolation-filters="sRGB">
<feFlood flood-opacity="0" result="BackgroundImageFix"/>
<feColorMatrix in="SourceAlpha" type="matrix" values="0 0 0 0 0 0 0 0 0 0 0 0 0 0 0 0 0 0 127 0"/>
<feOffset dy="4"/>
<feGaussianBlur stdDeviation="2"/>
<feColorMatrix type="matrix" values="0 0 0 0 0 0 0 0 0 0 0 0 0 0 0 0 0 0 0.25 0"/>
<feBlend mode="normal" in2="BackgroundImageFix" result="effect1_dropShadow"/>
<feBlend mode="normal" in="SourceGraphic" in2="effect1_dropShadow" result="shape"/>
</filter>
</defs>
</svg>
