<svg width="103" height="20" viewBox="0 0 103 20" fill="none" xmlns="http://www.w3.org/2000/svg">
<path d="M30.717 5.307H37.211V6.463H32.06V10.016H36.854V11.172H32.06V16H30.717V5.307ZM44.249 10.73C44.249 9.99333 44.096 9.46633 43.79 9.149C43.484 8.83167 43.0363 8.673 42.447 8.673C41.869 8.673 41.3987 8.792 41.036 9.03C40.6847 9.25667 40.509 9.61933 40.509 10.118H39.03C39.03 8.87133 39.6987 8.10067 41.036 7.806C41.444 7.71533 41.886 7.67 42.362 7.67C43.3707 7.67 44.1583 7.925 44.725 8.435C45.2917 8.945 45.575 9.72133 45.575 10.764V16H44.419L44.283 14.64C43.7843 15.6713 42.8833 16.187 41.58 16.187C40.7073 16.187 40.0047 15.9433 39.472 15.456C38.9507 14.9687 38.69 14.3623 38.69 13.637C38.69 12.9117 38.979 12.345 39.557 11.937C40.1463 11.529 40.8773 11.325 41.75 11.325C42.6227 11.325 43.4557 11.4723 44.249 11.767V10.73ZM44.249 12.617C43.4443 12.3903 42.7417 12.277 42.141 12.277C41.5403 12.277 41.053 12.3847 40.679 12.6C40.305 12.8153 40.118 13.1553 40.118 13.62C40.118 14.64 40.696 15.15 41.852 15.15C42.5093 15.15 43.0703 14.9177 43.535 14.453C44.011 13.977 44.249 13.365 44.249 12.617ZM51.4327 7.67C52.396 7.67 53.161 7.91933 53.7277 8.418C54.2944 8.90533 54.6627 9.51733 54.8327 10.254L53.4727 10.373C53.3254 9.897 53.0874 9.52867 52.7587 9.268C52.43 8.996 52.0674 8.86 51.6707 8.86C50.9454 8.86 50.356 9.132 49.9027 9.676C49.4607 10.22 49.2397 10.9623 49.2397 11.903C49.2397 12.8323 49.455 13.5803 49.8857 14.147C50.3277 14.7137 50.8717 14.997 51.5177 14.997C52.175 14.997 52.6624 14.8497 52.9797 14.555C53.3084 14.249 53.4727 13.8183 53.4727 13.263H54.8497C54.8497 14.1357 54.5437 14.844 53.9317 15.388C53.331 15.9207 52.5434 16.187 51.5687 16.187C50.5374 16.187 49.659 15.796 48.9337 15.014C48.2197 14.232 47.8627 13.195 47.8627 11.903C47.8627 10.5997 48.2197 9.56833 48.9337 8.809C49.6477 8.04967 50.4807 7.67 51.4327 7.67ZM60.2837 15.099C61.4057 15.099 62.0461 14.606 62.2047 13.62H63.5817C63.4571 14.436 63.0944 15.0707 62.4937 15.524C61.9044 15.966 61.1677 16.187 60.2837 16.187C59.1957 16.187 58.3117 15.8017 57.6317 15.031C56.9517 14.249 56.6117 13.212 56.6117 11.92C56.6117 10.628 56.9517 9.59667 57.6317 8.826C58.3231 8.05533 59.2354 7.67 60.3687 7.67C61.5134 7.67 62.3634 8.112 62.9187 8.996C63.4854 9.88 63.6837 10.9567 63.5137 12.226H57.9547C57.9547 13.0647 58.1587 13.756 58.5667 14.3C58.9747 14.8327 59.5471 15.099 60.2837 15.099ZM61.2697 8.945C61.0091 8.809 60.6917 8.741 60.3177 8.741C59.6264 8.741 59.0767 8.979 58.6687 9.455C58.2721 9.91967 58.0397 10.5033 57.9717 11.206H62.3067C62.3067 10.0727 61.9611 9.319 61.2697 8.945ZM67.5707 9.081C68.1147 8.14033 68.9081 7.67 69.9507 7.67C70.9934 7.67 71.8604 8.061 72.5517 8.843C73.2431 9.61367 73.5887 10.6393 73.5887 11.92C73.5887 13.1893 73.2374 14.2207 72.5347 15.014C71.8321 15.796 70.9764 16.187 69.9677 16.187C69.4237 16.187 68.9307 16.051 68.4887 15.779C68.0581 15.507 67.7181 15.1047 67.4687 14.572L67.1627 16H66.2277V4.423H67.5707V9.081ZM69.8657 8.86C69.2197 8.86 68.6814 9.06967 68.2507 9.489C67.8201 9.897 67.5934 10.4693 67.5707 11.206V12.532C67.5707 13.28 67.7917 13.8807 68.2337 14.334C68.6871 14.776 69.2311 14.997 69.8657 14.997C70.5004 14.997 71.0501 14.7193 71.5147 14.164C71.9794 13.5973 72.2117 12.8493 72.2117 11.92C72.2117 10.9907 71.9794 10.2483 71.5147 9.693C71.0614 9.13767 70.5117 8.86 69.8657 8.86ZM79.0795 7.67C80.2128 7.67 81.1251 8.03833 81.8165 8.775C82.5191 9.51167 82.8705 10.5657 82.8705 11.937C82.8705 13.297 82.5191 14.3453 81.8165 15.082C81.1251 15.8187 80.2128 16.187 79.0795 16.187C77.9461 16.187 77.0281 15.8187 76.3255 15.082C75.6341 14.3453 75.2885 13.297 75.2885 11.937C75.2885 10.5657 75.6341 9.51167 76.3255 8.775C77.0281 8.03833 77.9461 7.67 79.0795 7.67ZM81.5105 11.937C81.5105 10.9623 81.3065 10.203 80.8985 9.659C80.4905 9.10367 79.8898 8.826 79.0965 8.826C78.3145 8.826 77.7138 9.10367 77.2945 9.659C76.8751 10.203 76.6655 10.9623 76.6655 11.937C76.6655 12.9003 76.8638 13.6597 77.2605 14.215C77.6571 14.759 78.2465 15.031 79.0285 15.031C79.8218 15.031 80.4338 14.759 80.8645 14.215C81.2951 13.6597 81.5105 12.9003 81.5105 11.937ZM88.3598 7.67C89.4931 7.67 90.4054 8.03833 91.0968 8.775C91.7994 9.51167 92.1508 10.5657 92.1508 11.937C92.1508 13.297 91.7994 14.3453 91.0968 15.082C90.4054 15.8187 89.4931 16.187 88.3598 16.187C87.2264 16.187 86.3084 15.8187 85.6058 15.082C84.9144 14.3453 84.5688 13.297 84.5688 11.937C84.5688 10.5657 84.9144 9.51167 85.6058 8.775C86.3084 8.03833 87.2264 7.67 88.3598 7.67ZM90.7908 11.937C90.7908 10.9623 90.5868 10.203 90.1788 9.659C89.7708 9.10367 89.1701 8.826 88.3768 8.826C87.5948 8.826 86.9941 9.10367 86.5748 9.659C86.1554 10.203 85.9458 10.9623 85.9458 11.937C85.9458 12.9003 86.1441 13.6597 86.5408 14.215C86.9374 14.759 87.5268 15.031 88.3088 15.031C89.1021 15.031 89.7141 14.759 90.1448 14.215C90.5754 13.6597 90.7908 12.9003 90.7908 11.937ZM97.147 11.699L96.059 12.583V16H94.716V4.423H96.059V11.155L99.986 7.874H101.856L98.116 10.917L102.043 16H100.394L97.147 11.699Z" fill="#101010"/>
<path fill-rule="evenodd" clip-rule="evenodd" d="M18.4615 0H1.53846C0.69 0 0 0.69 0 1.53846V18.4615C0 19.31 0.69 20 1.53846 20H9.61539C9.82769 20 10 19.8277 10 19.6154V14.2308C10 14.0185 9.82769 13.8462 9.61539 13.8462H8.07692C7.86462 13.8462 7.69231 13.6738 7.69231 13.4615V10.3846C7.69231 10.1723 7.86462 10 8.07692 10H9.61539C9.82769 10 10 9.82769 10 9.61539V8.07692C10 5.74385 11.8977 3.84615 14.2308 3.84615H16.5385C16.7508 3.84615 16.9231 4.01846 16.9231 4.23077V7.30769C16.9231 7.52 16.7508 7.69231 16.5385 7.69231H15C14.3638 7.69231 13.8462 8.21 13.8462 8.84615V9.61539C13.8462 9.82769 14.0185 10 14.2308 10H16.5385C16.6492 10 16.7538 10.0477 16.8269 10.13C16.9 10.2131 16.9338 10.3231 16.92 10.4323L16.5354 13.5092C16.5115 13.7015 16.3469 13.8462 16.1538 13.8462H14.2308C14.0185 13.8462 13.8462 14.0185 13.8462 14.2308V19.6154C13.8462 19.8277 14.0185 20 14.2308 20H18.4615C19.31 20 20 19.31 20 18.4615V1.53846C20 0.69 19.31 0 18.4615 0Z" fill="black"/>
</svg>
