<svg width="220" height="28" viewBox="0 0 220 28" fill="none" xmlns="http://www.w3.org/2000/svg">
<path d="M10.07 22.502C10.0699 22.3555 10.0376 22.2108 9.97538 22.0782C9.91318 21.9455 9.82259 21.8281 9.71002 21.7344C9.59745 21.6406 9.46565 21.5727 9.32394 21.5355C9.18224 21.4983 9.03408 21.4927 8.88997 21.519C7.57997 21.759 5.92696 21.795 5.48796 20.561C5.10473 19.605 4.46996 18.7706 3.65096 18.146C3.59233 18.1141 3.53647 18.0773 3.48396 18.036C3.41225 17.8472 3.285 17.6844 3.11899 17.5693C2.95298 17.4542 2.75599 17.392 2.55396 17.391H2.54896C2.28461 17.391 2.03101 17.4957 1.84362 17.6822C1.65623 17.8686 1.55029 18.1217 1.54896 18.386C1.54496 19.201 2.35896 19.724 2.68996 19.9C3.07995 20.2919 3.39332 20.7531 3.61397 21.26C3.97897 22.283 5.03696 23.836 8.07996 23.636L8.08296 23.734L8.08696 24.002C8.08696 24.2672 8.19232 24.5216 8.37986 24.7091C8.56739 24.8967 8.82175 25.002 9.08696 25.002C9.35218 25.002 9.60653 24.8967 9.79407 24.7091C9.98161 24.5216 10.087 24.2672 10.087 24.002L10.082 23.684C10.077 23.494 10.07 23.22 10.07 22.502ZM20.737 7.37603C20.769 7.25103 20.8 7.11203 20.827 6.95603C20.9888 5.84164 20.8478 4.70424 20.419 3.66303C20.3649 3.52738 20.2819 3.40519 20.1756 3.305C20.0694 3.20481 19.9425 3.12905 19.804 3.08303C19.448 2.96303 18.134 2.72603 15.62 4.33303C13.5305 3.84135 11.3554 3.84135 9.26596 4.33303C6.76196 2.74903 5.45497 2.96503 5.10197 3.07803C4.95988 3.12213 4.82946 3.19746 4.72028 3.29852C4.61109 3.39957 4.52591 3.52378 4.47097 3.66203C4.03292 4.72331 3.89322 5.88412 4.06696 7.01903C4.09196 7.14603 4.11796 7.26503 4.14596 7.37303C3.31717 8.47666 2.87568 9.82292 2.88996 11.203C2.88747 11.5106 2.90183 11.818 2.93296 12.124C3.26696 16.727 6.26696 18.108 8.35697 18.583C8.31159 18.7145 8.27222 18.848 8.23897 18.983C8.17545 19.2406 8.21683 19.5128 8.35401 19.7398C8.49119 19.9668 8.71294 20.13 8.97046 20.1935C9.22799 20.257 9.5002 20.2157 9.72721 20.0785C9.95423 19.9413 10.1174 19.7196 10.181 19.462C10.2446 19.1288 10.4078 18.8227 10.649 18.584C10.7945 18.4563 10.8997 18.2891 10.952 18.1027C11.0043 17.9163 11.0014 17.7187 10.9436 17.5339C10.8858 17.3492 10.7756 17.1851 10.6264 17.0618C10.4771 16.9384 10.2953 16.8611 10.103 16.839C6.64896 16.444 5.14896 15.037 4.92296 11.94C4.89822 11.6948 4.8872 11.4485 4.88996 11.202C4.87408 10.2186 5.19916 9.25996 5.80996 8.48903C5.87107 8.40882 5.93615 8.33173 6.00496 8.25803C6.12749 8.12097 6.20987 7.95278 6.24303 7.77195C6.2762 7.59113 6.25888 7.40465 6.19296 7.23303C6.12563 7.05277 6.07378 6.8671 6.03796 6.67803C5.95654 6.13947 5.98339 5.59008 6.11696 5.06203C6.98612 5.30761 7.8041 5.70729 8.53196 6.24203C8.65225 6.32213 8.78833 6.37546 8.93101 6.3984C9.07369 6.42135 9.21963 6.41338 9.35896 6.37503C11.3801 5.82649 13.511 5.82684 15.532 6.37603C15.6721 6.41437 15.8188 6.42189 15.9621 6.39807C16.1054 6.37425 16.2418 6.31965 16.362 6.23803C17.0867 5.70124 17.9015 5.29825 18.768 5.04803C18.9006 5.56317 18.9301 6.09943 18.855 6.62603C18.8187 6.83342 18.7621 7.03674 18.686 7.23303C18.6201 7.40465 18.6027 7.59113 18.6359 7.77195C18.6691 7.95278 18.7514 8.12097 18.874 8.25803C18.952 8.34503 19.029 8.43803 19.098 8.52603C19.7043 9.284 20.0238 10.2316 20 11.202C20.0016 11.4615 19.9889 11.7209 19.962 11.979C19.742 15.035 18.237 16.443 14.767 16.839C14.5744 16.8609 14.3923 16.9382 14.2429 17.0616C14.0935 17.185 13.9831 17.3492 13.9253 17.5342C13.8674 17.7192 13.8646 17.917 13.9171 18.1035C13.9696 18.2901 14.0752 18.4574 14.221 18.585C14.4695 18.83 14.6328 19.1483 14.687 19.493C14.7548 19.7609 14.7861 20.0367 14.78 20.313V22.646C14.77 23.294 14.77 23.779 14.77 24.002C14.77 24.2672 14.8753 24.5216 15.0629 24.7091C15.2504 24.8967 15.5047 25.002 15.77 25.002C16.0352 25.002 16.2895 24.8967 16.4771 24.7091C16.6646 24.5216 16.77 24.2672 16.77 24.002C16.77 23.785 16.77 23.31 16.78 22.662V20.312C16.7879 19.87 16.7358 19.429 16.625 19.001C16.5934 18.8605 16.5546 18.7216 16.509 18.585C18.0302 18.3322 19.4123 17.5478 20.4093 16.3714C21.4064 15.1951 21.9538 13.7031 21.954 12.161C21.9869 11.8425 22.0023 11.5223 22 11.202C22.0221 9.82082 21.577 8.47263 20.737 7.37603Z" fill="black"/>
<path d="M39.84 17.272C39.392 18.5413 38.5227 19.176 37.232 19.176C35.9413 19.176 34.88 18.7067 34.048 17.768C33.2267 16.8293 32.816 15.5653 32.816 13.976C32.816 12.3867 33.264 11.1227 34.16 10.184C35.0667 9.24533 36.192 8.776 37.536 8.776C38.3253 8.776 39.0133 8.936 39.6 9.256C40.1973 9.576 40.7093 10.088 41.136 10.792L39.92 11.208C39.2267 10.344 38.416 9.912 37.488 9.912C36.56 9.912 35.7707 10.2907 35.12 11.048C34.48 11.8053 34.16 12.792 34.16 14.008C34.16 15.2133 34.4373 16.184 34.992 16.92C35.5467 17.656 36.2933 18.024 37.232 18.024C38 18.024 38.6187 17.768 39.088 17.256C39.5573 16.744 39.792 15.9867 39.792 14.984V14.952L37.264 14.856V14.024H41.024V19H40L39.84 17.272ZM44.1085 11.336H45.3725V19H44.1085V11.336ZM44.7325 9.544C44.4765 9.544 44.2738 9.47467 44.1245 9.336C43.9858 9.18667 43.9165 8.99467 43.9165 8.76C43.9165 8.51467 43.9858 8.32267 44.1245 8.184C44.2738 8.03467 44.4765 7.96 44.7325 7.96C44.9885 7.96 45.1912 8.03467 45.3405 8.184C45.5005 8.32267 45.5805 8.51467 45.5805 8.76C45.5805 8.99467 45.5005 9.18667 45.3405 9.336C45.1912 9.47467 44.9885 9.544 44.7325 9.544ZM52.9097 18.776C51.9924 19.2027 51.1551 19.2933 50.3977 19.048C49.8537 18.8773 49.4697 18.52 49.2457 17.976C49.1284 17.7093 49.0697 17.3893 49.0697 17.016V12.312H47.8377V11.352H49.0697V9.224H50.3177V11.352H52.7178V12.312H50.3177V17C50.3177 17.7787 50.6804 18.168 51.4057 18.168C51.8004 18.168 52.2431 18.072 52.7337 17.88L52.9097 18.776ZM56.2894 12.76C56.8014 11.6933 57.6494 11.16 58.8334 11.16C59.74 11.16 60.444 11.4587 60.9454 12.056C61.4574 12.6533 61.7134 13.4693 61.7134 14.504V19H60.4654V14.504C60.4654 13.768 60.2894 13.2133 59.9374 12.84C59.596 12.4667 59.1 12.28 58.4494 12.28C57.7987 12.28 57.276 12.5573 56.8814 13.112C56.4867 13.656 56.2894 14.4133 56.2894 15.384V19H55.0254V8.104H56.2894V12.76ZM69.9816 17.48C69.459 18.5893 68.611 19.144 67.4376 19.144C66.5736 19.144 65.875 18.904 65.3416 18.424C64.819 17.944 64.5576 17.2027 64.5576 16.2V11.336H65.8216V16.104C65.8216 17.3947 66.419 18.04 67.6136 18.04C68.307 18.04 68.867 17.7733 69.2936 17.24C69.731 16.7067 69.9603 16.024 69.9816 15.192V11.336H71.2456V19H69.9816V17.48ZM75.8488 12.488C76.3608 11.6027 77.1074 11.16 78.0888 11.16C79.0701 11.16 79.8861 11.528 80.5368 12.264C81.1874 12.9893 81.5128 13.9547 81.5128 15.16C81.5128 16.3547 81.1821 17.3253 80.5208 18.072C79.8594 18.808 79.0541 19.176 78.1048 19.176C77.5928 19.176 77.1288 19.048 76.7128 18.792C76.3074 18.536 75.9874 18.1573 75.7528 17.656L75.4648 19H74.5848V8.104H75.8488V12.488ZM78.0088 12.28C77.4008 12.28 76.8941 12.4773 76.4888 12.872C76.0834 13.256 75.8701 13.7947 75.8488 14.488V15.736C75.8488 16.44 76.0568 17.0053 76.4728 17.432C76.8994 17.848 77.4114 18.056 78.0088 18.056C78.6061 18.056 79.1234 17.7947 79.5608 17.272C79.9981 16.7387 80.2168 16.0347 80.2168 15.16C80.2168 14.2853 79.9981 13.5867 79.5608 13.064C79.1341 12.5413 78.6168 12.28 78.0088 12.28Z" fill="black"/>
</svg>
