<svg width="124" height="30" viewBox="0 0 124 30" fill="none" xmlns="http://www.w3.org/2000/svg">
<g filter="url(#filter0_d)">
<path d="M35.717 5.307H37.06V16H35.717V5.307ZM41.7736 9.438C42.3063 8.25933 43.2186 7.67 44.5106 7.67C45.474 7.67 46.222 7.98733 46.7546 8.622C47.2986 9.25667 47.5706 10.1237 47.5706 11.223V16H46.2446V11.223C46.2446 10.441 46.0576 9.85167 45.6836 9.455C45.321 9.05833 44.7996 8.86 44.1196 8.86C43.4396 8.86 42.89 9.13767 42.4706 9.693C42.0513 10.2483 41.8303 11.019 41.8076 12.005V16H40.4646V7.874H41.6206L41.7736 9.438ZM50.2998 9.863C50.2998 9.19433 50.5831 8.66167 51.1498 8.265C51.7278 7.86833 52.5041 7.67 53.4788 7.67C54.4535 7.67 55.2128 7.874 55.7568 8.282C56.3121 8.69 56.6011 9.20567 56.6238 9.829H55.3148C55.2128 9.09233 54.5895 8.724 53.4448 8.724C52.8895 8.724 52.4588 8.84867 52.1528 9.098C51.8581 9.34733 51.7108 9.61933 51.7108 9.914C51.7108 10.1973 51.8241 10.441 52.0508 10.645C52.2775 10.8377 52.6401 11.0077 53.1388 11.155L54.7708 11.699C55.4621 11.9143 55.9891 12.192 56.3518 12.532C56.7258 12.8607 56.9128 13.3197 56.9128 13.909C56.9128 14.487 56.6125 15.014 56.0118 15.49C55.4111 15.9547 54.5725 16.187 53.4958 16.187C52.4191 16.187 51.5805 15.949 50.9798 15.473C50.3791 14.9857 50.0618 14.3623 50.0278 13.603H51.3198C51.3425 14.113 51.5465 14.4983 51.9318 14.759C52.3285 15.0083 52.8215 15.133 53.4108 15.133C54.0001 15.133 54.4875 15.0083 54.8728 14.759C55.2581 14.5097 55.4508 14.215 55.4508 13.875C55.4508 13.5237 55.3375 13.2573 55.1108 13.076C54.8841 12.8947 54.5158 12.736 54.0058 12.6L52.4248 12.073C51.0081 11.6537 50.2998 10.917 50.2998 9.863ZM63.9231 15.762C62.9484 16.2153 62.0587 16.3117 61.2541 16.051C60.6761 15.8697 60.2681 15.49 60.0301 14.912C59.9054 14.6287 59.8431 14.2887 59.8431 13.892V8.894H58.5341V7.874H59.8431V5.613H61.1691V7.874H63.7191V8.894H61.1691V13.875C61.1691 14.7023 61.5544 15.116 62.3251 15.116C62.7444 15.116 63.2147 15.014 63.7361 14.81L63.9231 15.762ZM71.0967 10.73C71.0967 9.99333 70.9437 9.46633 70.6377 9.149C70.3317 8.83167 69.884 8.673 69.2947 8.673C68.7167 8.673 68.2463 8.792 67.8837 9.03C67.5323 9.25667 67.3567 9.61933 67.3567 10.118H65.8777C65.8777 8.87133 66.5463 8.10067 67.8837 7.806C68.2917 7.71533 68.7337 7.67 69.2097 7.67C70.2183 7.67 71.006 7.925 71.5727 8.435C72.1393 8.945 72.4227 9.72133 72.4227 10.764V16H71.2667L71.1307 14.64C70.632 15.6713 69.731 16.187 68.4277 16.187C67.555 16.187 66.8523 15.9433 66.3197 15.456C65.7983 14.9687 65.5377 14.3623 65.5377 13.637C65.5377 12.9117 65.8267 12.345 66.4047 11.937C66.994 11.529 67.725 11.325 68.5977 11.325C69.4703 11.325 70.3033 11.4723 71.0967 11.767V10.73ZM71.0967 12.617C70.292 12.3903 69.5893 12.277 68.9887 12.277C68.388 12.277 67.9007 12.3847 67.5267 12.6C67.1527 12.8153 66.9657 13.1553 66.9657 13.62C66.9657 14.64 67.5437 15.15 68.6997 15.15C69.357 15.15 69.918 14.9177 70.3827 14.453C70.8587 13.977 71.0967 13.365 71.0967 12.617ZM75.9174 15.745C75.2374 15.4163 74.8974 14.912 74.8974 14.232C74.8974 13.8807 75.0277 13.5747 75.2884 13.314C75.5604 13.042 75.8947 12.8607 76.2914 12.77C75.6794 12.226 75.3734 11.512 75.3734 10.628C75.3734 9.744 75.685 9.03 76.3084 8.486C76.943 7.942 77.691 7.67 78.5524 7.67C79.4137 7.67 80.1447 7.874 80.7454 8.282C80.8247 7.68133 81.0627 7.19967 81.4594 6.837C81.8674 6.47433 82.4 6.293 83.0574 6.293L82.9384 7.619C81.941 7.619 81.4197 8.03833 81.3744 8.877C81.771 9.36433 81.9694 9.948 81.9694 10.628C81.9694 11.5007 81.652 12.2203 81.0174 12.787C80.394 13.3423 79.612 13.62 78.6714 13.62C78.0254 13.62 77.453 13.4897 76.9544 13.229C76.7277 13.2743 76.5237 13.382 76.3424 13.552C76.161 13.7107 76.0704 13.9317 76.0704 14.215C76.0704 14.8157 76.569 15.116 77.5664 15.116H80.7284C81.4877 15.116 82.0884 15.2803 82.5304 15.609C82.9724 15.9263 83.1934 16.374 83.1934 16.952C83.1934 17.8133 82.757 18.567 81.8844 19.213C81.023 19.859 79.9294 20.182 78.6034 20.182C77.2774 20.182 76.2347 19.9327 75.4754 19.434C74.716 18.9467 74.3364 18.329 74.3364 17.581C74.3364 17.0937 74.478 16.697 74.7614 16.391C75.056 16.085 75.4414 15.8697 75.9174 15.745ZM75.6624 17.53C75.6624 17.9607 75.8947 18.329 76.3594 18.635C76.8354 18.9523 77.5494 19.111 78.5014 19.111C79.4647 19.111 80.2637 18.9013 80.8984 18.482C81.5444 18.074 81.8674 17.5923 81.8674 17.037C81.8674 16.7763 81.771 16.5497 81.5784 16.357C81.397 16.1757 81.1137 16.085 80.7284 16.085H77.4474C76.8694 16.1077 76.4274 16.2437 76.1214 16.493C75.8154 16.7537 75.6624 17.0993 75.6624 17.53ZM80.6604 10.628C80.6604 10.0387 80.4847 9.56267 80.1334 9.2C79.782 8.826 79.2947 8.639 78.6714 8.639C78.0594 8.639 77.5777 8.826 77.2264 9.2C76.875 9.56267 76.6994 10.0387 76.6994 10.628C76.6994 11.2173 76.875 11.7047 77.2264 12.09C77.589 12.464 78.0764 12.651 78.6884 12.651C79.3004 12.651 79.782 12.4583 80.1334 12.073C80.4847 11.6877 80.6604 11.206 80.6604 10.628ZM88.5047 9.013C87.224 9.013 86.561 10.0217 86.5157 12.039V16H85.1727V7.857H86.5157V9.421C86.9237 8.28767 87.6433 7.721 88.6747 7.721C89.0033 7.721 89.315 7.772 89.6097 7.874L89.5417 9.183C89.2017 9.06967 88.856 9.013 88.5047 9.013ZM96.6963 10.73C96.6963 9.99333 96.5433 9.46633 96.2373 9.149C95.9313 8.83167 95.4836 8.673 94.8943 8.673C94.3163 8.673 93.8459 8.792 93.4833 9.03C93.1319 9.25667 92.9563 9.61933 92.9563 10.118H91.4773C91.4773 8.87133 92.1459 8.10067 93.4833 7.806C93.8913 7.71533 94.3333 7.67 94.8093 7.67C95.8179 7.67 96.6056 7.925 97.1723 8.435C97.7389 8.945 98.0223 9.72133 98.0223 10.764V16H96.8663L96.7303 14.64C96.2316 15.6713 95.3306 16.187 94.0273 16.187C93.1546 16.187 92.4519 15.9433 91.9193 15.456C91.3979 14.9687 91.1373 14.3623 91.1373 13.637C91.1373 12.9117 91.4263 12.345 92.0043 11.937C92.5936 11.529 93.3246 11.325 94.1973 11.325C95.0699 11.325 95.9029 11.4723 96.6963 11.767V10.73ZM96.6963 12.617C95.8916 12.3903 95.1889 12.277 94.5883 12.277C93.9876 12.277 93.5003 12.3847 93.1263 12.6C92.7523 12.8153 92.5653 13.1553 92.5653 13.62C92.5653 14.64 93.1433 15.15 94.2993 15.15C94.9566 15.15 95.5176 14.9177 95.9823 14.453C96.4583 13.977 96.6963 13.365 96.6963 12.617ZM102.469 9.438C103.002 8.25933 103.914 7.67 105.206 7.67C105.909 7.67 106.498 7.84567 106.974 8.197C107.45 8.537 107.796 9.013 108.011 9.625C108.521 8.32167 109.467 7.67 110.85 7.67C111.825 7.67 112.578 7.98733 113.111 8.622C113.644 9.25667 113.91 10.1237 113.91 11.223V16H112.584V11.223C112.584 10.441 112.397 9.85167 112.023 9.455C111.66 9.05833 111.133 8.86 110.442 8.86C109.751 8.86 109.212 9.14333 108.827 9.71C108.453 10.2767 108.266 11.0587 108.266 12.056V16H106.94V11.223C106.94 10.441 106.753 9.85167 106.379 9.455C106.016 9.05833 105.495 8.86 104.815 8.86C104.135 8.86 103.585 9.13767 103.166 9.693C102.747 10.2483 102.526 11.019 102.503 12.005V16H101.16V7.874H102.316L102.469 9.438Z" fill="#101010"/>
<path fill-rule="evenodd" clip-rule="evenodd" d="M24.3077 16.5C24.3077 18.5993 22.5993 20.3077 20.5 20.3077H9.5C7.40069 20.3077 5.69231 18.5993 5.69231 16.5V5.5C5.69231 3.40069 7.40069 1.69231 9.5 1.69231H20.5C22.5993 1.69231 24.3077 3.40069 24.3077 5.5V16.5ZM20.5 0H9.5C6.46738 0 4 2.46738 4 5.5V16.5C4 19.5326 6.46738 22 9.5 22H20.5C23.5326 22 26 19.5326 26 16.5V5.5C26 2.46738 23.5326 0 20.5 0Z" fill="#101010"/>
<path fill-rule="evenodd" clip-rule="evenodd" d="M14.9814 15.2497C12.6384 15.2497 10.7328 13.3433 10.7328 11.0003C10.7328 8.65729 12.6384 6.7509 14.9814 6.7509C17.3244 6.7509 19.2308 8.65729 19.2308 11.0003C19.2308 13.3433 17.3244 15.2497 14.9814 15.2497ZM14.9814 5.05859C11.7051 5.05859 9.04053 7.72398 9.04053 11.0003C9.04053 14.2766 11.7051 16.942 14.9814 16.942C18.2577 16.942 20.9231 14.2766 20.9231 11.0003C20.9231 7.72398 18.2577 5.05859 14.9814 5.05859Z" fill="#101010"/>
<path fill-rule="evenodd" clip-rule="evenodd" d="M21 3C20.449 3 20 3.2245 20 3.5C20 3.7755 20.449 4 21 4C21.551 4 22 3.7755 22 3.5C22 3.2245 21.551 3 21 3Z" fill="#101010"/>
</g>
<defs>
<filter id="filter0_d" x="0" y="0" width="117.91" height="30" filterUnits="userSpaceOnUse" color-interpolation-filters="sRGB">
<feFlood flood-opacity="0" result="BackgroundImageFix"/>
<feColorMatrix in="SourceAlpha" type="matrix" values="0 0 0 0 0 0 0 0 0 0 0 0 0 0 0 0 0 0 127 0"/>
<feOffset dy="4"/>
<feGaussianBlur stdDeviation="2"/>
<feColorMatrix type="matrix" values="0 0 0 0 0 0 0 0 0 0 0 0 0 0 0 0 0 0 0.25 0"/>
<feBlend mode="normal" in2="BackgroundImageFix" result="effect1_dropShadow"/>
<feBlend mode="normal" in="SourceGraphic" in2="effect1_dropShadow" result="shape"/>
</filter>
</defs>
</svg>
