<svg width="120" height="22" viewBox="0 0 120 22" fill="none" xmlns="http://www.w3.org/2000/svg">
<path d="M31.717 5.307H33.06V16H31.717V5.307ZM37.7736 9.438C38.3063 8.25933 39.2186 7.67 40.5106 7.67C41.474 7.67 42.222 7.98733 42.7546 8.622C43.2986 9.25667 43.5706 10.1237 43.5706 11.223V16H42.2446V11.223C42.2446 10.441 42.0576 9.85167 41.6836 9.455C41.321 9.05833 40.7996 8.86 40.1196 8.86C39.4396 8.86 38.89 9.13767 38.4706 9.693C38.0513 10.2483 37.8303 11.019 37.8076 12.005V16H36.4646V7.874H37.6206L37.7736 9.438ZM46.2998 9.863C46.2998 9.19433 46.5831 8.66167 47.1498 8.265C47.7278 7.86833 48.5041 7.67 49.4788 7.67C50.4535 7.67 51.2128 7.874 51.7568 8.282C52.3121 8.69 52.6011 9.20567 52.6238 9.829H51.3148C51.2128 9.09233 50.5895 8.724 49.4448 8.724C48.8895 8.724 48.4588 8.84867 48.1528 9.098C47.8581 9.34733 47.7108 9.61933 47.7108 9.914C47.7108 10.1973 47.8241 10.441 48.0508 10.645C48.2775 10.8377 48.6401 11.0077 49.1388 11.155L50.7708 11.699C51.4621 11.9143 51.9891 12.192 52.3518 12.532C52.7258 12.8607 52.9128 13.3197 52.9128 13.909C52.9128 14.487 52.6125 15.014 52.0118 15.49C51.4111 15.9547 50.5725 16.187 49.4958 16.187C48.4191 16.187 47.5805 15.949 46.9798 15.473C46.3791 14.9857 46.0618 14.3623 46.0278 13.603H47.3198C47.3425 14.113 47.5465 14.4983 47.9318 14.759C48.3285 15.0083 48.8215 15.133 49.4108 15.133C50.0001 15.133 50.4875 15.0083 50.8728 14.759C51.2581 14.5097 51.4508 14.215 51.4508 13.875C51.4508 13.5237 51.3375 13.2573 51.1108 13.076C50.8841 12.8947 50.5158 12.736 50.0058 12.6L48.4248 12.073C47.0081 11.6537 46.2998 10.917 46.2998 9.863ZM59.9231 15.762C58.9484 16.2153 58.0587 16.3117 57.2541 16.051C56.6761 15.8697 56.2681 15.49 56.0301 14.912C55.9054 14.6287 55.8431 14.2887 55.8431 13.892V8.894H54.5341V7.874H55.8431V5.613H57.1691V7.874H59.7191V8.894H57.1691V13.875C57.1691 14.7023 57.5544 15.116 58.3251 15.116C58.7444 15.116 59.2147 15.014 59.7361 14.81L59.9231 15.762ZM67.0967 10.73C67.0967 9.99333 66.9437 9.46633 66.6377 9.149C66.3317 8.83167 65.884 8.673 65.2947 8.673C64.7167 8.673 64.2463 8.792 63.8837 9.03C63.5323 9.25667 63.3567 9.61933 63.3567 10.118H61.8777C61.8777 8.87133 62.5463 8.10067 63.8837 7.806C64.2917 7.71533 64.7337 7.67 65.2097 7.67C66.2183 7.67 67.006 7.925 67.5727 8.435C68.1393 8.945 68.4227 9.72133 68.4227 10.764V16H67.2667L67.1307 14.64C66.632 15.6713 65.731 16.187 64.4277 16.187C63.555 16.187 62.8523 15.9433 62.3197 15.456C61.7983 14.9687 61.5377 14.3623 61.5377 13.637C61.5377 12.9117 61.8267 12.345 62.4047 11.937C62.994 11.529 63.725 11.325 64.5977 11.325C65.4703 11.325 66.3033 11.4723 67.0967 11.767V10.73ZM67.0967 12.617C66.292 12.3903 65.5893 12.277 64.9887 12.277C64.388 12.277 63.9007 12.3847 63.5267 12.6C63.1527 12.8153 62.9657 13.1553 62.9657 13.62C62.9657 14.64 63.5437 15.15 64.6997 15.15C65.357 15.15 65.918 14.9177 66.3827 14.453C66.8587 13.977 67.0967 13.365 67.0967 12.617ZM71.9174 15.745C71.2374 15.4163 70.8974 14.912 70.8974 14.232C70.8974 13.8807 71.0277 13.5747 71.2884 13.314C71.5604 13.042 71.8947 12.8607 72.2914 12.77C71.6794 12.226 71.3734 11.512 71.3734 10.628C71.3734 9.744 71.685 9.03 72.3084 8.486C72.943 7.942 73.691 7.67 74.5524 7.67C75.4137 7.67 76.1447 7.874 76.7454 8.282C76.8247 7.68133 77.0627 7.19967 77.4594 6.837C77.8674 6.47433 78.4 6.293 79.0574 6.293L78.9384 7.619C77.941 7.619 77.4197 8.03833 77.3744 8.877C77.771 9.36433 77.9694 9.948 77.9694 10.628C77.9694 11.5007 77.652 12.2203 77.0174 12.787C76.394 13.3423 75.612 13.62 74.6714 13.62C74.0254 13.62 73.453 13.4897 72.9544 13.229C72.7277 13.2743 72.5237 13.382 72.3424 13.552C72.161 13.7107 72.0704 13.9317 72.0704 14.215C72.0704 14.8157 72.569 15.116 73.5664 15.116H76.7284C77.4877 15.116 78.0884 15.2803 78.5304 15.609C78.9724 15.9263 79.1934 16.374 79.1934 16.952C79.1934 17.8133 78.757 18.567 77.8844 19.213C77.023 19.859 75.9294 20.182 74.6034 20.182C73.2774 20.182 72.2347 19.9327 71.4754 19.434C70.716 18.9467 70.3364 18.329 70.3364 17.581C70.3364 17.0937 70.478 16.697 70.7614 16.391C71.056 16.085 71.4414 15.8697 71.9174 15.745ZM71.6624 17.53C71.6624 17.9607 71.8947 18.329 72.3594 18.635C72.8354 18.9523 73.5494 19.111 74.5014 19.111C75.4647 19.111 76.2637 18.9013 76.8984 18.482C77.5444 18.074 77.8674 17.5923 77.8674 17.037C77.8674 16.7763 77.771 16.5497 77.5784 16.357C77.397 16.1757 77.1137 16.085 76.7284 16.085H73.4474C72.8694 16.1077 72.4274 16.2437 72.1214 16.493C71.8154 16.7537 71.6624 17.0993 71.6624 17.53ZM76.6604 10.628C76.6604 10.0387 76.4847 9.56267 76.1334 9.2C75.782 8.826 75.2947 8.639 74.6714 8.639C74.0594 8.639 73.5777 8.826 73.2264 9.2C72.875 9.56267 72.6994 10.0387 72.6994 10.628C72.6994 11.2173 72.875 11.7047 73.2264 12.09C73.589 12.464 74.0764 12.651 74.6884 12.651C75.3004 12.651 75.782 12.4583 76.1334 12.073C76.4847 11.6877 76.6604 11.206 76.6604 10.628ZM84.5047 9.013C83.224 9.013 82.561 10.0217 82.5157 12.039V16H81.1727V7.857H82.5157V9.421C82.9237 8.28767 83.6433 7.721 84.6747 7.721C85.0033 7.721 85.315 7.772 85.6097 7.874L85.5417 9.183C85.2017 9.06967 84.856 9.013 84.5047 9.013ZM92.6963 10.73C92.6963 9.99333 92.5433 9.46633 92.2373 9.149C91.9313 8.83167 91.4836 8.673 90.8943 8.673C90.3163 8.673 89.8459 8.792 89.4833 9.03C89.1319 9.25667 88.9563 9.61933 88.9563 10.118H87.4773C87.4773 8.87133 88.1459 8.10067 89.4833 7.806C89.8913 7.71533 90.3333 7.67 90.8093 7.67C91.8179 7.67 92.6056 7.925 93.1723 8.435C93.7389 8.945 94.0223 9.72133 94.0223 10.764V16H92.8663L92.7303 14.64C92.2316 15.6713 91.3306 16.187 90.0273 16.187C89.1546 16.187 88.4519 15.9433 87.9193 15.456C87.3979 14.9687 87.1373 14.3623 87.1373 13.637C87.1373 12.9117 87.4263 12.345 88.0043 11.937C88.5936 11.529 89.3246 11.325 90.1973 11.325C91.0699 11.325 91.9029 11.4723 92.6963 11.767V10.73ZM92.6963 12.617C91.8916 12.3903 91.1889 12.277 90.5883 12.277C89.9876 12.277 89.5003 12.3847 89.1263 12.6C88.7523 12.8153 88.5653 13.1553 88.5653 13.62C88.5653 14.64 89.1433 15.15 90.2993 15.15C90.9566 15.15 91.5176 14.9177 91.9823 14.453C92.4583 13.977 92.6963 13.365 92.6963 12.617ZM98.469 9.438C99.0016 8.25933 99.914 7.67 101.206 7.67C101.909 7.67 102.498 7.84567 102.974 8.197C103.45 8.537 103.796 9.013 104.011 9.625C104.521 8.32167 105.467 7.67 106.85 7.67C107.825 7.67 108.578 7.98733 109.111 8.622C109.644 9.25667 109.91 10.1237 109.91 11.223V16H108.584V11.223C108.584 10.441 108.397 9.85167 108.023 9.455C107.66 9.05833 107.133 8.86 106.442 8.86C105.751 8.86 105.212 9.14333 104.827 9.71C104.453 10.2767 104.266 11.0587 104.266 12.056V16H102.94V11.223C102.94 10.441 102.753 9.85167 102.379 9.455C102.016 9.05833 101.495 8.86 100.815 8.86C100.135 8.86 99.5853 9.13767 99.166 9.693C98.7466 10.2483 98.5256 11.019 98.503 12.005V16H97.16V7.874H98.316L98.469 9.438Z" fill="#101010"/>
<path fill-rule="evenodd" clip-rule="evenodd" d="M20.3077 16.5C20.3077 18.5993 18.5993 20.3077 16.5 20.3077H5.5C3.40069 20.3077 1.69231 18.5993 1.69231 16.5V5.5C1.69231 3.40069 3.40069 1.69231 5.5 1.69231H16.5C18.5993 1.69231 20.3077 3.40069 20.3077 5.5V16.5ZM16.5 0H5.5C2.46738 0 0 2.46738 0 5.5V16.5C0 19.5326 2.46738 22 5.5 22H16.5C19.5326 22 22 19.5326 22 16.5V5.5C22 2.46738 19.5326 0 16.5 0Z" fill="#101010"/>
<path fill-rule="evenodd" clip-rule="evenodd" d="M10.9814 15.2497C8.63837 15.2497 6.73284 13.3433 6.73284 11.0003C6.73284 8.65729 8.63837 6.7509 10.9814 6.7509C13.3244 6.7509 15.2308 8.65729 15.2308 11.0003C15.2308 13.3433 13.3244 15.2497 10.9814 15.2497ZM10.9814 5.05859C7.70507 5.05859 5.04053 7.72398 5.04053 11.0003C5.04053 14.2766 7.70507 16.942 10.9814 16.942C14.2577 16.942 16.9231 14.2766 16.9231 11.0003C16.9231 7.72398 14.2577 5.05859 10.9814 5.05859Z" fill="#101010"/>
<path fill-rule="evenodd" clip-rule="evenodd" d="M17 3C16.449 3 16 3.2245 16 3.5C16 3.7755 16.449 4 17 4C17.551 4 18 3.7755 18 3.5C18 3.2245 17.551 3 17 3Z" fill="#101010"/>
</svg>
