<svg xmlns="http://www.w3.org/2000/svg" viewBox="0 0 2186.45 345.65"><path d="M110.21,85.36a14.37,14.37,0,0,0,6.11,3.56c.36.11.69.33,1.05.48,1,.4,1.94.8,2.92,1.17a17.25,17.25,0,0,0,3.51,1.23c2.28.33,4.07,1.57,5.94,2.71a4.75,4.75,0,0,0,2.09.81,4.94,4.94,0,0,1,2.86,1.32c1.3,1,2.6,1.94,3.91,2.88a2.43,2.43,0,0,1,1.06,1.87,9.3,9.3,0,0,1-.37,3.92,18,18,0,0,0-1,2.66c-.24,1.12-.21,2.29-.38,3.42a11,11,0,0,1-2.11,5.34,7.75,7.75,0,0,1-4.43,2.3,7.22,7.22,0,0,0-2,.85,4.78,4.78,0,0,1-2.61.83c-2,0-3.91,0-5.87.12a4.88,4.88,0,0,0-1.59.56c-.69.3-1.38.63-2,1s-1.41.83-2.15,1.14a6.51,6.51,0,0,1-2.09.61c-1.25.1-2.51,0-3.77,0a2.84,2.84,0,0,1-2.72-1.44A8.3,8.3,0,0,0,103,119.3a15.85,15.85,0,0,1-4-4,18,18,0,0,0-1.85-1.62A12.08,12.08,0,0,1,95.71,112c-.91-1.27-2.3-1.89-3.67-2.92a4,4,0,0,0-.25,1.17,9.18,9.18,0,0,0,1,3.78,2.8,2.8,0,0,1,.36,1.44,25.32,25.32,0,0,1-.17,3.59,4.56,4.56,0,0,1-.79,1.55c-.6,1-1.2,2.06-1.86,3.05-1,1.55-2,3.11-3.18,4.57a3.85,3.85,0,0,1-2.92,1.15,7.36,7.36,0,0,0-1.41.19c-.5.14-.59.56-.21.87a4.56,4.56,0,0,0,1.52.91,10.63,10.63,0,0,0,3.19.7,9.51,9.51,0,0,1,5.56,1.78c.78.52,1.67.88,2.49,1.34s1.85,1.2,2.85,1.64c1.7.75,3.45,1.41,5.21,2a6.39,6.39,0,0,0,2,.28,4.63,4.63,0,0,1,3.16,1.66,19.16,19.16,0,0,1,2.86,3.67c.67,1,1.61,1.89,2.28,2.93s1.24,2.41,1.93,3.57a23,23,0,0,0,1.47,1.94c.65.88,1.22,1.82,1.93,2.65A10.22,10.22,0,0,1,121,158.9a2.43,2.43,0,0,0,1.17,1.08,4.49,4.49,0,0,1,2.07,2.63,7.23,7.23,0,0,0,1.38,2.06c1,1.07,2,2,3,3.13a10.8,10.8,0,0,1,.74,1.61,17,17,0,0,0,1.77,2.65,12.72,12.72,0,0,1,1.7,2.71,17.22,17.22,0,0,0,2.17,3.44,43,43,0,0,1,4.5,6.08,10.84,10.84,0,0,0,1.92,2.2,6.14,6.14,0,0,1,1.45,2.93,7,7,0,0,0,1.83,3,8.54,8.54,0,0,1,1.31,1.95c.37.65.59,1.4,1,2,1.07,1.58.52,2.59-.46,3.74a8.1,8.1,0,0,1-3.42,2.37,5.67,5.67,0,0,0-2.1,1.42,21.5,21.5,0,0,1-4.57,3.18c-.49.31-1,.62-1.46,1a6.12,6.12,0,0,1-3.24,1.23A5.48,5.48,0,0,0,130,210a.54.54,0,0,0-.26.46c0,.13.24.29.4.32a28.82,28.82,0,0,0,3.87.69,42,42,0,0,0,4.62-.1c.81,0,1.61-.23,2.42-.25a1.88,1.88,0,0,1,2,1.94c.06,1.35,0,2.7.19,4a18.42,18.42,0,0,0,.6,1.82c.29,1.35.53,2.71.73,4.08s.25,2.58.48,3.84a17.86,17.86,0,0,0,.79,2.3,2.82,2.82,0,0,1,.12.77,43.78,43.78,0,0,0,.18,5.85,49.5,49.5,0,0,1,.4,6.31c0,1.14.26,2.27.38,3.41a4.21,4.21,0,0,1-.12.78,4.94,4.94,0,0,0,.54,2.63,6.93,6.93,0,0,1,.55,2.27c.09,1.38,0,2.76,0,4.14,0,1-.19,2.07-.13,3.09.07,1.39.29,2.76.44,4.14.08.83.13,1.67.25,2.5,0,.21.27.53.43.54a.77.77,0,0,0,.59-.41,4.4,4.4,0,0,0,.4-1.5c.05-1.62.1-3.24,0-4.85a12.6,12.6,0,0,0-.73-2.31,10.55,10.55,0,0,1-.59-2.56c-.05-1.73.07-3.47.13-5.2,0-1.17.15-2.35.15-3.52q0-13.21,0-26.41c0-2.17.68-3.25,2.79-3.76a13.58,13.58,0,0,0,5.09-2.8c.34-.26.67-.52,1-.81a.89.89,0,0,0,0-1.46,6.06,6.06,0,0,0-1.25-.68,6.69,6.69,0,0,1-2.79-1.84,21.52,21.52,0,0,0-2-2.07,4.08,4.08,0,0,1-1.19-2.6,16.18,16.18,0,0,0-1.72-5.94,13.67,13.67,0,0,1-1.61-3.8,11.14,11.14,0,0,0-1.34-3.2,10.11,10.11,0,0,1-.52-2.2,21.17,21.17,0,0,0-.79-2.14c-.27-.68-.59-1.35-.87-2-.39-.92-.75-1.85-1.15-2.75a25.11,25.11,0,0,0-1.22-2.5,9.63,9.63,0,0,1-1.2-3.42,4.47,4.47,0,0,0-.91-1.66,32.61,32.61,0,0,0-2.47-3.33c-1.21-1.32-2.62-2.45-3.85-3.75a20.87,20.87,0,0,1-1.63-2.31c-.29-.41-.57-.94-1-1.12-1.75-.78-2.39-2.47-3.35-3.91a5.6,5.6,0,0,0-.76-1,22.4,22.4,0,0,1-3.92-4.91,14.79,14.79,0,0,0-3.15-3.94,3.94,3.94,0,0,1-1.35-2.49,1.18,1.18,0,0,1,1.51-1.4,39,39,0,0,0,8.34,1,8.49,8.49,0,0,1,3.27.66,28,28,0,0,0,3.86,1,10.51,10.51,0,0,1,3.37.93,8.52,8.52,0,0,0,1.72.46c1.06.34,2.1.77,3.17,1.09,1.45.41,2.91.76,4.36,1.12.69.17,1.41.23,2.09.42,1.39.39,2.79.79,4.15,1.27a7.36,7.36,0,0,1,1.85,1.05c.95.71,1.85,1.48,2.74,2.25s1.78,1.65,2.73,2.41,2.24,1.55,3.27,2.43a13.61,13.61,0,0,1,1.5,1.85c.41.49.76,1.11,1.29,1.37a8.91,8.91,0,0,1,2.92,2.57,3.5,3.5,0,0,0,1.34,1,5.44,5.44,0,0,1,2.73,2.74,2.1,2.1,0,0,0,1,1,1.23,1.23,0,0,0,1.5-.81,5.89,5.89,0,0,1,3-2.94,8,8,0,0,0,2.75-2.11,10.66,10.66,0,0,1,2.48-1.93,4.8,4.8,0,0,0,1.82-1.67,6.34,6.34,0,0,1,2.62-2.27,3.26,3.26,0,0,0,1.34-1.41A2.79,2.79,0,0,1,192,157c1.62-.81,3.11-1.8,3.69-3.81-1.13.36-2.25.56-3,1.59a14.74,14.74,0,0,0-1,1.42,2.45,2.45,0,0,1-2.11,1.32,3.3,3.3,0,0,0-2.17,1.16,9.82,9.82,0,0,1-3,2.29,9.28,9.28,0,0,0-1.78,1.29c-1.12.92-2.21,1.88-3.31,2.84-.76.65-1.51,1.31-2.26,2a2.77,2.77,0,0,1-2.58.41c-1.61-.3-2.66-1.44-3.74-2.53-1.35-1.36-2.71-2.71-4.06-4.06-1.59-1.59-3.27-3.11-4.75-4.8-1.26-1.47-1.42-3.1.45-4.43,1.56-1.1,2.31-2.76,3.46-4.12.56-.65,1.2-1.23,1.75-1.88a12.6,12.6,0,0,0,1.79-2.3,13.76,13.76,0,0,1,2.75-3.45,17.86,17.86,0,0,0,1.14-1.43,21.34,21.34,0,0,1,2-2.3c.88-.77,1-1.9,1.55-2.79a6.93,6.93,0,0,1,.87-1c.83-.88,1.68-1.75,2.51-2.63,1-1.08,2-2.19,3.07-3.24a21,21,0,0,0,3.74-4.49,21.47,21.47,0,0,1,2.49-3,59.74,59.74,0,0,0,3.92-4.79,22,22,0,0,1,2.36-3.1,2.44,2.44,0,0,1,3.25-.2,12,12,0,0,1,3.67,4,24,24,0,0,0,2.11,2.71c1.29,1.46,2.64,2.86,3.94,4.3.77.85,1.48,1.75,2.24,2.6a9.55,9.55,0,0,0,1,.9,5.13,5.13,0,0,1,1.55,5.77,8.53,8.53,0,0,1-2.08,3.38c-.81.91-1.5,1.92-2.32,2.8-1.06,1.13-2.3,2.1-3.3,3.28-1.55,1.79-3.56,3.18-4.57,5.47a4.83,4.83,0,0,1-1.8,1.76,4.79,4.79,0,0,0-2.07,2.2c-.28.71-.66,1.38-1,2.07l.17.2c1-.69,2-1.38,3.07-2.06a10,10,0,0,1,1.31-.84,1.28,1.28,0,0,1,1.75.84,4,4,0,0,1-.16,3.12,8.16,8.16,0,0,0-.8,4,6.69,6.69,0,0,1-.91,3.64,26.15,26.15,0,0,0-1.21,3,8,8,0,0,1-.92,1.93,4,4,0,0,0-.11,4.83,3.18,3.18,0,0,1,.2,2.8,16.24,16.24,0,0,0-.5,2.3c-.35,2-.41,4-1.32,5.91a3.51,3.51,0,0,0-.35,1.45,14.87,14.87,0,0,1-1.21,5.73,23.73,23.73,0,0,0-.59,2.42,7.82,7.82,0,0,1-.73,2,7.78,7.78,0,0,0-1.07,3.45,7.82,7.82,0,0,1-2.57,5.15,36.42,36.42,0,0,0-2.36,2.85c-1,1.09-2.07,2.15-3.16,3.15a3.14,3.14,0,0,0-1,2.37,4.18,4.18,0,0,1-1.24,2.81c-.93,1-1.82,2.13-2.77,3.17a11.67,11.67,0,0,1-1.37,1.14c-1.11.86-1.36,2.22-2,3.37a6.17,6.17,0,0,0-.66,3.06c0,3.1.06,6.19,0,9.29a35.83,35.83,0,0,1-.44,3.84,7.21,7.21,0,0,0-.11.92c0,5.06,0,10.11,0,15.16,0,.81-.24,1.62-.24,2.43,0,1.06.1,2.13.17,3.19,0,.31.08.62.08.93,0,4.89,0,9.77,0,14.66a9.08,9.08,0,0,1-.75,4.06,7.59,7.59,0,0,0-.49,2.79c-.08,1.5,0,3,0,4.5a1.91,1.91,0,0,1-1.88,2.11,20.69,20.69,0,0,1-2.22.15q-37.91,0-75.81,0a8.73,8.73,0,0,1-5-1.23,5,5,0,0,0-1.46-.56,2.58,2.58,0,0,1-2.1-2.71c0-4,0-8,0-12.05a10.19,10.19,0,0,1,.42-2.23c.29-1.13.72-2.23.92-3.37a46.51,46.51,0,0,1,1.26-4.91,24.13,24.13,0,0,0,.7-4.58,18.15,18.15,0,0,1,.81-4,22.55,22.55,0,0,0,.94-4.91,36.5,36.5,0,0,0,0-4.56,7.8,7.8,0,0,1,.71-3.49,10.73,10.73,0,0,0,.54-2.43,29.28,29.28,0,0,0,.54-6.8,6.86,6.86,0,0,1,.54-2.65,11.65,11.65,0,0,0,.57-2.78,22.29,22.29,0,0,1,1.3-6.13,6.54,6.54,0,0,0-.41-6c-.24-.38-.39-.83-.62-1.22a14.81,14.81,0,0,0-1.59-2.53,9.14,9.14,0,0,1-1.76-3.22A14,14,0,0,0,88.16,202a50.19,50.19,0,0,1-3.33-5.26,5,5,0,0,0-.68-1c-2.26-2.15-3.77-4.82-5.43-7.41a31.12,31.12,0,0,1-2.54-5,2.63,2.63,0,0,1,.09-1.72c.57-1.57.23-2.19-1.47-2.25A10.24,10.24,0,0,1,70,177.51a5.28,5.28,0,0,1-1.4-1.92c-1.08-1.81-2.09-3.66-3.18-5.46-.31-.51-.9-.87-1.21-1.39-.56-1-1-2-1.51-3l-1.38-2.83-.27-.59c-.48-1-1-1.94-1.43-2.94a2.81,2.81,0,0,0-1.83-1.86A4.27,4.27,0,0,1,54.89,155a5.07,5.07,0,0,1-.39-2c0-1.79-1.17-2.57-2.59-2.9a5,5,0,0,1-3.07-2.38c-1.3-1.94-2.48-3.95-3.79-5.88-1-1.54-2.2-3-3.26-4.51-1.23-1.75-1.19-3,.11-4.65a20.71,20.71,0,0,0,3.68-6.5,6.68,6.68,0,0,1,1.48-2.08c.75-.85,1.56-1.63,2.37-2.42a1.68,1.68,0,0,0,.43-1.83,3.79,3.79,0,0,1,.31-3,21.86,21.86,0,0,1,3.61-5,7.88,7.88,0,0,0,1-1.76,9.31,9.31,0,0,1,3.17-4,2.81,2.81,0,0,0,1.07-1.4,8.25,8.25,0,0,1,2.53-3.68,5.22,5.22,0,0,0,1.81-3.22,3.32,3.32,0,0,1,1.43-2.13,5,5,0,0,0,1.19-1.49,26.23,26.23,0,0,0,1.26-2.41,16.33,16.33,0,0,1,1.06-2.28,16.86,16.86,0,0,1,3.55-4.26,2.91,2.91,0,0,0,1-1.23A9,9,0,0,1,74.64,81c.85-.93,1.56-2,2.47-2.85a27.62,27.62,0,0,1,3.19-2.39,2.88,2.88,0,0,1,2.56-.14c1.55.47,3.13.85,4.67,1.33a20.35,20.35,0,0,1,2.19.87,10.8,10.8,0,0,1,1,.48c.77.42,1.5.9,2.29,1.28s1.41.54,2.11.79,1.48.49,2.19.79a17,17,0,0,1,1.91,1A31.92,31.92,0,0,1,102,83.72a7.4,7.4,0,0,0,4.2,1.36c1.34,0,2.67.19,4,.3Z" fill="#fff"/><path d="M157.3,152c-1-.48-1.86-.85-2.69-1.34s-1.52-1.15-2.34-1.6a4.86,4.86,0,0,0-2.14-.69,5.81,5.81,0,0,1-3.17-1,25.07,25.07,0,0,0-5-2.48,31.84,31.84,0,0,1-4.42-2.64c-.87-.5-1.82-.86-2.69-1.35-.71-.4-1.44-.91-1.45-1.81a4.62,4.62,0,0,1,.4-1.94,4.18,4.18,0,0,1,1.16-1.42c.95-.8,1-2,1.65-3,.89-1.37,1.9-2.66,2.83-4,.52-.74.95-1.56,1.49-2.28s1.3-1.52,1.92-2.3,1.36-1.77,2-2.67a2.13,2.13,0,0,0,.34-.63,18,18,0,0,1,3.95-6.31,8.61,8.61,0,0,0,.76-1.37c.64-1.13,1.27-2.27,1.95-3.38a14.93,14.93,0,0,0,2.31-4.72,6.86,6.86,0,0,1,1.43-2.2c1.11-1.57,2.21-3.16,3.36-4.71a34.69,34.69,0,0,1,3.17-4.32,11.12,11.12,0,0,0,1.57-2.74c.64-1.17,1.28-2.34,1.89-3.53a7.62,7.62,0,0,0,.48-1.34,2.33,2.33,0,0,1,3-1.87,9.79,9.79,0,0,1,3.28,1.39,26.67,26.67,0,0,0,4.84,2.75,8,8,0,0,1,1.61,1.17c1.24,1,2.45,2.12,3.67,3.2a3.74,3.74,0,0,1,.7.79,7.46,7.46,0,0,0,2.61,2.22,23.34,23.34,0,0,1,2.25,1.88,13.83,13.83,0,0,0,2.1,1.57,4.84,4.84,0,0,1,2.37,2.45,11.53,11.53,0,0,0,.64,1.2,2.12,2.12,0,0,1,.18,1.91c-.45,1.08-.92,2.16-1.44,3.2-.79,1.56-1.62,3.09-2.46,4.62-.18.32-.53.55-.7.87a25.72,25.72,0,0,0-1.2,2.48,8.94,8.94,0,0,1-1.71,2.71c-1,1.13-2,2.29-2.95,3.5-1.61,2.08-3.13,4.23-4.74,6.31-.62.79-1.45,1.41-2.08,2.18s-1.39,1.93-2.12,2.87-1.38,1.64-2,2.5a22.39,22.39,0,0,0-1.66,2.56,5,5,0,0,1-1.78,2.28,7.91,7.91,0,0,0-2.37,2.71,23.07,23.07,0,0,1-4.56,4.8c-.77.62-1.3,1.53-2.06,2.16A15.72,15.72,0,0,1,157.3,152Z" fill="#fff"/><path d="M139.88,113.09c.16-2.07.3-4.15.48-6.22a3.15,3.15,0,0,1,.4-1.08,11.05,11.05,0,0,0,1.22-5.26,3,3,0,0,0-2.38-3.26c-2.31-.67-4.19-2.07-6.27-3.14-.69-.35-1.45-.56-2.15-.91-1.34-.66-2.7-1.31-4-2.09a5.13,5.13,0,0,0-2.66-.92,2.73,2.73,0,0,1-2.47-4c1-2.28,1.89-4.6,3.79-6.35a4.46,4.46,0,0,0,.91-1.52,19.33,19.33,0,0,1,2.66-4.4,22.18,22.18,0,0,0,2.79-4.81,33.67,33.67,0,0,1,1.83-3.25c.64-1.09,1.37-2.13,1.94-3.26a2.33,2.33,0,0,1,2.05-1.4,2.23,2.23,0,0,0,1.43-.64c1-1.31,1.63-1.07,2.74-.7s2.37.87,3.53,1.37a15.32,15.32,0,0,1,1.83,1.07,24.32,24.32,0,0,0,5.3,2.65,11.79,11.79,0,0,1,4.35,2.43c.72.68,1.6,1.2,2.34,1.86,1.08.94,2.05,2,3.16,2.92.85.68,1.85,1.17,2.76,1.77a7.53,7.53,0,0,1,1.41,1.08,2.39,2.39,0,0,1,.59,2.35c-.48,1.74-1,3.47-1.54,5.2a5,5,0,0,0-.3,1.39,3.18,3.18,0,0,1-.89,2.33,14.75,14.75,0,0,0-1.13,1.89,22.81,22.81,0,0,1-2,2.92,12.78,12.78,0,0,0-1.7,2.62,15.58,15.58,0,0,1-2.15,2.92,5.46,5.46,0,0,0-1.39,2.3,6.06,6.06,0,0,1-1.83,2.7,26.85,26.85,0,0,0-3.35,4.52,5.55,5.55,0,0,1-2,2.15c-1.63.82-2.69,2.29-4,3.45a22,22,0,0,1-3.33,2.46C140.5,115,139.79,114.56,139.88,113.09Z" fill="#fff"/><path d="M110.23,85.38a7.17,7.17,0,0,0-4.65-2.45,10,10,0,0,1-5-2,7,7,0,0,0-3.09-1.26c-1.74-.25-3.08-1.34-4.52-2.23a22.56,22.56,0,0,0-2.8-1.55c-1.62-.69-2-1.83-1.48-3.42a17.08,17.08,0,0,1,1.7-2.79A8.14,8.14,0,0,1,93.14,67a3,3,0,0,0,.9-1.15,10.21,10.21,0,0,0,1.45-3.66A3.09,3.09,0,0,1,96,61.14c.57-1.1,1.15-2.2,1.77-3.28.25-.45.66-.81.93-1.25.38-.61.66-1.27,1-1.87s1-1.34,1.47-2a54.06,54.06,0,0,0,3.46-4.7,13.92,13.92,0,0,1,4-4.52c.42-.3.82-.65,1.24-1,1.21-.92,3.75-1.14,4.89-.19a13.27,13.27,0,0,0,3.93,2,25,25,0,0,1,3.52,2.05c1.47.88,2.92,1.82,4.44,2.61a7.94,7.94,0,0,1,2.55,2.13,22.2,22.2,0,0,0,2.57,2.35c.51.46,1,.93,1.54,1.38s1,.91,1.58,1.32a1.87,1.87,0,0,1,.72,2.57c-.25.53-.65,1-.89,1.54-.52,1.19-1,2.41-1.46,3.6a16,16,0,0,1-2.47,3.75,28.08,28.08,0,0,0-1.72,3c-1.23,2-2.51,4-3.78,6a17.32,17.32,0,0,0-1.14,1.74,16.12,16.12,0,0,1-2.5,3.4,10.34,10.34,0,0,0-1.15,2,4.62,4.62,0,0,1-1.78,2.26,3.07,3.07,0,0,1-1,.4,8.83,8.83,0,0,1-5.75-.8,6.28,6.28,0,0,0-1.77-.42Z" fill="#fff"/><path d="M121.53,140.14a2.93,2.93,0,0,1-2.31-.93,9,9,0,0,0-1.32-1c-1.48-.95-3-1.94-4.49-2.79-.82-.46-1.86-.52-2.68-1a25.53,25.53,0,0,1-3.49-2.42c-.68-.56-.37-1.59.55-2,1.64-.7,3.32-1.33,5-2a14.16,14.16,0,0,0,1.4-.71,6.88,6.88,0,0,1,3-1,9.16,9.16,0,0,0,1.7-.51,13.43,13.43,0,0,1,3.12-.68,14.38,14.38,0,0,0,6.13-1.28,14.08,14.08,0,0,1,2.72-.52c.83-.19,1.66-.42,2.47-.69A1.45,1.45,0,0,1,135,123a1.52,1.52,0,0,1,.25,1.74c-.47,1-.88,2-1.36,3a3.64,3.64,0,0,1-2.79,2,3.84,3.84,0,0,0-2.9,2.4c-.81,1.6-1.61,3.21-2.34,4.84a6.44,6.44,0,0,1-1.91,2.17A3.11,3.11,0,0,1,121.53,140.14Z" fill="#fff"/><path d="M239.87,14.92V330.73H14.92V14.92h225M254.79,0H0V345.65H254.79V0Z" fill="#fff"/><path d="M415.37,135.46c-3.5-12.61-10.51-25.45-25.22-25.45-11.91,0-22.19,8.64-22.19,21,0,35.73,85.47,12.38,85.47,80.1,0,22.19-16.81,55.35-61.65,55.35-34.56,0-59.54-16.82-65.15-52.31l36.43-5.37c3.27,15.41,11.21,26.85,28.49,26.85,14.25,0,26.15-7.47,26.15-23.12,0-36.43-85.46-15.41-85.46-77.29,0-32.7,27.55-56,59.08-56,30.82,0,53.94,19.85,57,50.44Z" fill="#fff"/><path d="M612,263.67H574.87L563,218.13H509.24l-11.9,45.54H460.21L511.11,82h49ZM536.57,113.28h-.94l-19.15,76.13h39.24Z" fill="#fff"/><path d="M687.93,190.34v73.33H651.5V190.34L592,82h38.77L670,161.85,710.58,82h37.6Z" fill="#fff"/><path d="M951.58,112.81H904.41V263.67H868V112.81H820.81V82H951.58Z" fill="#fff"/><path d="M1062.27,153V82h36.43V263.67h-36.43V183.8h-60v79.87H965.83V82h36.43v71Z" fill="#fff"/><path d="M1237,112.81h-76.6v43.44h63.52v30.82h-63.52v45.77h81v30.83H1123.92V82h113Z" fill="#fff"/><path d="M1264,263.67V82h36.43V263.67Z" fill="#fff"/><path d="M1397.38,82c41.8,0,58.14,29.89,58.14,53a49.87,49.87,0,0,1-30.82,45.77l36.2,82.9h-38.3l-32.7-75.43h-27.78v75.43h-36.43V82ZM1378,157.41c15.87,0,40.16.94,40.16-21.71,0-25-24.52-22.89-42.5-22.89h-13.54v44.6Z" fill="#fff"/><path d="M1605.45,82l54.41,119.79h.46V82h36.43V263.67h-39l-68.66-146h-.47v146H1552.2V82Z" fill="#fff"/><path d="M1859.29,263.67h-37.13l-11.91-45.54h-53.71l-11.91,45.54H1707.5L1758.41,82h49Zm-75.43-150.39h-.93l-19.15,76.13H1803Z" fill="#fff"/><path d="M1984,82h59.78V263.67h-36.43V118.88h-.47l-33.62,144.79h-32.7l-33.62-144.79h-.47V263.67H1870V82h59.78l26.86,130.3h.46Z" fill="#fff"/><path d="M2182,112.81h-76.6v43.44h63.52v30.82h-63.52v45.77h81v30.83H2069V82h113Z" fill="#fff"/></svg>