<svg width="220" height="28" viewBox="0 0 220 28" fill="none" xmlns="http://www.w3.org/2000/svg">
<path d="M23 11.4997C22.9989 10.5718 22.6298 9.68217 21.9737 9.02602C21.3175 8.36987 20.4279 8.00078 19.5 7.99972C18.9799 8.00251 18.4672 8.12249 18 8.35072V6.49972C18.0009 5.80399 17.7942 5.1238 17.4063 4.54624C17.0184 3.96869 16.4669 3.52005 15.8225 3.25778C15.1781 2.9955 14.4701 2.93153 13.7891 3.07404C13.1081 3.21655 12.4851 3.55906 12 4.05772C11.4242 3.45928 10.6538 3.08596 9.82734 3.00493C9.00087 2.9239 8.17262 3.14048 7.49161 3.6157C6.8106 4.09093 6.32154 4.79359 6.11244 5.59727C5.90334 6.40094 5.98792 7.25286 6.35097 7.99972H4.49997C3.80423 7.99877 3.12404 8.20549 2.54649 8.5934C1.96893 8.98132 1.5203 9.53279 1.25802 10.1772C0.995748 10.8216 0.931771 11.5296 1.07428 12.2106C1.21679 12.8916 1.55931 13.5146 2.05797 13.9997C1.45953 14.5755 1.0862 15.3459 1.00517 16.1724C0.924141 16.9988 1.14072 17.8271 1.61595 18.5081C2.09117 19.1891 2.79384 19.6781 3.59751 19.8872C4.40118 20.0963 5.2531 20.0118 5.99997 19.6487V21.4997C5.99901 22.1955 6.20573 22.8757 6.59365 23.4532C6.98157 24.0308 7.53303 24.4794 8.17744 24.7417C8.82185 25.0039 9.52987 25.0679 10.2109 24.9254C10.8918 24.7829 11.5148 24.4404 12 23.9417C12.5757 24.5402 13.3461 24.9135 14.1726 24.9945C14.9991 25.0756 15.8273 24.859 16.5083 24.3837C17.1893 23.9085 17.6784 23.2059 17.8875 22.4022C18.0966 21.5985 18.012 20.7466 17.649 19.9997H19.5C20.1957 20.0007 20.8759 19.794 21.4534 19.406C22.031 19.0181 22.4796 18.4667 22.7419 17.8222C23.0042 17.1778 23.0682 16.4698 22.9257 15.7888C22.7831 15.1078 22.4406 14.4849 21.942 13.9997C22.2766 13.675 22.5426 13.2864 22.7243 12.8569C22.906 12.4275 22.9998 11.966 23 11.4997ZM13 6.49972C13 6.1019 13.158 5.72037 13.4393 5.43906C13.7206 5.15776 14.1021 4.99972 14.5 4.99972C14.8978 4.99972 15.2793 5.15776 15.5606 5.43906C15.8419 5.72037 16 6.1019 16 6.49972V11.4997C16 11.8975 15.8419 12.2791 15.5606 12.5604C15.2793 12.8417 14.8978 12.9997 14.5 12.9997C14.1021 12.9997 13.7206 12.8417 13.4393 12.5604C13.158 12.2791 13 11.8975 13 11.4997V6.49972ZM5.99997 16.4997C5.99997 16.7964 5.91199 17.0864 5.74717 17.3331C5.58235 17.5798 5.34808 17.772 5.07399 17.8855C4.7999 17.9991 4.4983 18.0288 4.20733 17.9709C3.91636 17.913 3.64909 17.7702 3.43931 17.5604C3.22953 17.3506 3.08667 17.0833 3.02879 16.7924C2.97091 16.5014 3.00062 16.1998 3.11415 15.9257C3.22768 15.6516 3.41994 15.4173 3.66661 15.2525C3.91329 15.0877 4.2033 14.9997 4.49997 14.9997H5.99997V16.4997ZM11 21.4997C11 21.8975 10.8419 22.2791 10.5606 22.5604C10.2793 22.8417 9.89779 22.9997 9.49997 22.9997C9.10214 22.9997 8.72061 22.8417 8.43931 22.5604C8.158 22.2791 7.99997 21.8975 7.99997 21.4997V16.4997C7.99997 16.1019 8.158 15.7204 8.43931 15.4391C8.72061 15.1578 9.10214 14.9997 9.49997 14.9997C9.89779 14.9997 10.2793 15.1578 10.5606 15.4391C10.8419 15.7204 11 16.1019 11 16.4997V21.4997ZM9.49997 12.9997H4.49997C4.10214 12.9997 3.72061 12.8417 3.43931 12.5604C3.158 12.2791 2.99997 11.8975 2.99997 11.4997C2.99997 11.1019 3.158 10.7204 3.43931 10.4391C3.72061 10.1578 4.10214 9.99972 4.49997 9.99972H9.49997C9.89779 9.99972 10.2793 10.1578 10.5606 10.4391C10.8419 10.7204 11 11.1019 11 11.4997C11 11.8975 10.8419 12.2791 10.5606 12.5604C10.2793 12.8417 9.89779 12.9997 9.49997 12.9997ZM11 7.99972H9.49997C9.2033 7.99972 8.91329 7.91175 8.66661 7.74693C8.41994 7.58211 8.22768 7.34784 8.11415 7.07375C8.00062 6.79966 7.97091 6.49806 8.02879 6.20709C8.08667 5.91612 8.22953 5.64884 8.43931 5.43906C8.64909 5.22928 8.91636 5.08642 9.20733 5.02855C9.4983 4.97067 9.7999 5.00037 10.074 5.1139C10.3481 5.22744 10.5823 5.41969 10.7472 5.66637C10.912 5.91304 11 6.20305 11 6.49972V7.99972ZM12 14.0577C11.9808 14.0382 11.9615 14.0188 11.942 13.9997L12 13.9417L12.058 13.9997L12 14.0577ZM14.5 22.9997C14.1023 22.9992 13.7211 22.841 13.4399 22.5598C13.1587 22.2786 13.0005 21.8974 13 21.4997V19.9997H14.5C14.8978 19.9997 15.2793 20.1578 15.5606 20.4391C15.8419 20.7204 16 21.1019 16 21.4997C16 21.8975 15.8419 22.2791 15.5606 22.5604C15.2793 22.8417 14.8978 22.9997 14.5 22.9997ZM19.5 17.9997H14.5C14.1021 17.9997 13.7206 17.8417 13.4393 17.5604C13.158 17.2791 13 16.8975 13 16.4997C13 16.1019 13.158 15.7204 13.4393 15.4391C13.7206 15.1578 14.1021 14.9997 14.5 14.9997H19.5C19.8978 14.9997 20.2793 15.1578 20.5606 15.4391C20.8419 15.7204 21 16.1019 21 16.4997C21 16.8975 20.8419 17.2791 20.5606 17.5604C20.2793 17.8417 19.8978 17.9997 19.5 17.9997ZM19.5 12.9997H18V11.4997C18 11.2031 18.0879 10.913 18.2528 10.6664C18.4176 10.4197 18.6519 10.2274 18.9259 10.1139C19.2 10.0004 19.5016 9.97067 19.7926 10.0285C20.0836 10.0864 20.3508 10.2293 20.5606 10.4391C20.7704 10.6488 20.9133 10.9161 20.9711 11.2071C21.029 11.4981 20.9993 11.7997 20.8858 12.0737C20.7723 12.3478 20.58 12.5821 20.3333 12.7469C20.0866 12.9118 19.7966 12.9997 19.5 12.9997Z" fill="black"/>
<path d="M38.976 11.384C38.7947 10.4027 38.0747 9.912 36.816 9.912C36.144 9.912 35.6267 10.0613 35.264 10.36C34.9013 10.648 34.72 11 34.72 11.416C34.72 11.8213 34.832 12.1307 35.056 12.344C35.28 12.5573 35.6427 12.744 36.144 12.904L38.24 13.624C38.9547 13.8693 39.52 14.2053 39.936 14.632C40.3627 15.0587 40.576 15.6613 40.576 16.44C40.576 17.208 40.2453 17.8587 39.584 18.392C38.9227 18.9147 38.0373 19.176 36.928 19.176C35.8187 19.176 34.9067 18.8987 34.192 18.344C33.488 17.7787 33.1253 16.9893 33.104 15.976H34.336C34.336 16.6373 34.5653 17.144 35.024 17.496C35.4933 17.848 36.0907 18.024 36.816 18.024C37.552 18.024 38.1333 17.864 38.56 17.544C38.9867 17.2133 39.2 16.8293 39.2 16.392C39.2 15.944 39.0667 15.592 38.8 15.336C38.544 15.08 38.16 14.8667 37.648 14.696L35.872 14.04C35.04 13.7627 34.4107 13.432 33.984 13.048C33.5573 12.664 33.344 12.104 33.344 11.368C33.344 10.6213 33.6427 10.0027 34.24 9.512C34.8373 9.01067 35.6747 8.76 36.752 8.76C37.8293 8.76 38.6507 9 39.216 9.48C39.792 9.94933 40.1227 10.584 40.208 11.384H38.976ZM43.4035 8.104H44.6675V19H43.4035V8.104ZM52.7239 14.04C52.7239 13.3467 52.5799 12.8507 52.2919 12.552C52.0039 12.2533 51.5825 12.104 51.0279 12.104C50.4839 12.104 50.0412 12.216 49.6999 12.44C49.3692 12.6533 49.2039 12.9947 49.2039 13.464H47.8119C47.8119 12.2907 48.4412 11.5653 49.6999 11.288C50.0839 11.2027 50.4999 11.16 50.9479 11.16C51.8972 11.16 52.6385 11.4 53.1719 11.88C53.7052 12.36 53.9719 13.0907 53.9719 14.072V19H52.8839L52.7559 17.72C52.2865 18.6907 51.4385 19.176 50.2119 19.176C49.3905 19.176 48.7292 18.9467 48.2279 18.488C47.7372 18.0293 47.4919 17.4587 47.4919 16.776C47.4919 16.0933 47.7639 15.56 48.3079 15.176C48.8625 14.792 49.5505 14.6 50.3719 14.6C51.1932 14.6 51.9772 14.7387 52.7239 15.016V14.04ZM52.7239 15.816C51.9665 15.6027 51.3052 15.496 50.7399 15.496C50.1745 15.496 49.7159 15.5973 49.3639 15.8C49.0119 16.0027 48.8359 16.3227 48.8359 16.76C48.8359 17.72 49.3799 18.2 50.4679 18.2C51.0865 18.2 51.6145 17.9813 52.0519 17.544C52.4999 17.096 52.7239 16.52 52.7239 15.816ZM59.585 11.16C60.4917 11.16 61.2117 11.3947 61.745 11.864C62.2783 12.3227 62.625 12.8987 62.785 13.592L61.505 13.704C61.3663 13.256 61.1423 12.9093 60.833 12.664C60.5237 12.408 60.1823 12.28 59.809 12.28C59.1263 12.28 58.5717 12.536 58.145 13.048C57.729 13.56 57.521 14.2587 57.521 15.144C57.521 16.0187 57.7237 16.7227 58.129 17.256C58.545 17.7893 59.057 18.056 59.665 18.056C60.2837 18.056 60.7423 17.9173 61.041 17.64C61.3503 17.352 61.505 16.9467 61.505 16.424H62.801C62.801 17.2453 62.513 17.912 61.937 18.424C61.3717 18.9253 60.6303 19.176 59.713 19.176C58.7423 19.176 57.9157 18.808 57.233 18.072C56.561 17.336 56.225 16.36 56.225 15.144C56.225 13.9173 56.561 12.9467 57.233 12.232C57.905 11.5173 58.689 11.16 59.585 11.16ZM67.6634 14.952L66.6394 15.784V19H65.3754V8.104H66.6394V14.44L70.3354 11.352H72.0954L68.5754 14.216L72.2714 19H70.7194L67.6634 14.952Z" fill="black"/>
</svg>
