<svg width="78" height="20" viewBox="0 0 78 20" fill="none" xmlns="http://www.w3.org/2000/svg">
<path d="M24.1528 5.307H32.4658V6.463H28.9808V16H27.6378V6.463H24.1528V5.307ZM33.5867 7.874L35.5587 14.351L37.4967 8.265H38.6187L40.5397 14.419L42.5287 7.874H43.8547L41.2027 16H39.8937L38.0237 10.305L36.1877 16H34.8957L32.1927 7.874H33.5867ZM46.0071 7.857H47.3501V16H46.0071V7.857ZM46.6701 5.953C46.3981 5.953 46.1827 5.87933 46.0241 5.732C45.8767 5.57333 45.8031 5.36933 45.8031 5.12C45.8031 4.85933 45.8767 4.65533 46.0241 4.508C46.1827 4.34933 46.3981 4.27 46.6701 4.27C46.9421 4.27 47.1574 4.34933 47.3161 4.508C47.4861 4.65533 47.5711 4.85933 47.5711 5.12C47.5711 5.36933 47.4861 5.57333 47.3161 5.732C47.1574 5.87933 46.9421 5.953 46.6701 5.953ZM55.2522 15.762C54.2775 16.2153 53.3878 16.3117 52.5832 16.051C52.0052 15.8697 51.5972 15.49 51.3592 14.912C51.2345 14.6287 51.1722 14.2887 51.1722 13.892V8.894H49.8632V7.874H51.1722V5.613H52.4982V7.874H55.0482V8.894H52.4982V13.875C52.4982 14.7023 52.8835 15.116 53.6542 15.116C54.0735 15.116 54.5438 15.014 55.0652 14.81L55.2522 15.762ZM61.6438 15.762C60.6691 16.2153 59.7794 16.3117 58.9748 16.051C58.3968 15.8697 57.9888 15.49 57.7508 14.912C57.6261 14.6287 57.5638 14.2887 57.5638 13.892V8.894H56.2548V7.874H57.5638V5.613H58.8898V7.874H61.4398V8.894H58.8898V13.875C58.8898 14.7023 59.2751 15.116 60.0458 15.116C60.4651 15.116 60.9354 15.014 61.4568 14.81L61.6438 15.762ZM66.5904 15.099C67.7124 15.099 68.3527 14.606 68.5114 13.62H69.8884C69.7637 14.436 69.401 15.0707 68.8004 15.524C68.211 15.966 67.4744 16.187 66.5904 16.187C65.5024 16.187 64.6184 15.8017 63.9384 15.031C63.2584 14.249 62.9184 13.212 62.9184 11.92C62.9184 10.628 63.2584 9.59667 63.9384 8.826C64.6297 8.05533 65.542 7.67 66.6754 7.67C67.82 7.67 68.67 8.112 69.2254 8.996C69.792 9.88 69.9904 10.9567 69.8204 12.226H64.2614C64.2614 13.0647 64.4654 13.756 64.8734 14.3C65.2814 14.8327 65.8537 15.099 66.5904 15.099ZM67.5764 8.945C67.3157 8.809 66.9984 8.741 66.6244 8.741C65.933 8.741 65.3834 8.979 64.9754 9.455C64.5787 9.91967 64.3464 10.5033 64.2784 11.206H68.6134C68.6134 10.0727 68.2677 9.319 67.5764 8.945ZM75.8494 9.013C74.5687 9.013 73.9057 10.0217 73.8604 12.039V16H72.5174V7.857H73.8604V9.421C74.2684 8.28767 74.988 7.721 76.0194 7.721C76.348 7.721 76.6597 7.772 76.9544 7.874L76.8864 9.183C76.5464 9.06967 76.2007 9.013 75.8494 9.013Z" fill="#101010"/>
<path fill-rule="evenodd" clip-rule="evenodd" d="M19.9148 3.94266C19.8148 3.83066 19.6508 3.80066 19.5168 3.86733C19.3602 3.946 19.0135 4.05733 18.6342 4.154C19.0188 3.712 19.3402 3.17733 19.4682 2.70533C19.5048 2.57 19.4535 2.42733 19.3402 2.346C19.2255 2.26467 19.0735 2.264 18.9588 2.34267C18.7022 2.51733 17.4962 3.03 16.7482 3.17866C15.8195 2.36467 14.8989 2 13.7829 2C12.9569 2 12.1895 2.22733 11.2955 2.73667C9.7022 3.64466 9.46087 5.64266 9.5982 6.81399C5.19287 6.44666 2.72421 3.992 1.85222 2.92866C1.78355 2.84533 1.67822 2.798 1.57088 2.80733C1.46288 2.81533 1.36555 2.874 1.30955 2.96666C0.728218 3.92266 0.567552 4.99533 0.846218 6.06799C1.02088 6.74066 1.34755 7.33265 1.71555 7.79532C1.44822 7.65599 1.18555 7.47865 0.960885 7.29999C0.860885 7.21999 0.723552 7.20599 0.608885 7.26065C0.493552 7.31665 0.420219 7.43265 0.420219 7.56065C0.420219 9.50065 1.72822 10.8246 2.85555 11.4786C2.60688 11.4353 2.34821 11.3653 2.11022 11.2946C1.98422 11.2573 1.84822 11.2966 1.76288 11.396C1.67688 11.4946 1.65755 11.6353 1.71222 11.754C2.40288 13.2433 3.79888 14.34 5.34354 14.6693C4.00888 15.5026 2.11555 15.9186 0.370886 15.7206C0.214886 15.7053 0.06422 15.8 0.0155534 15.952C-0.0324464 16.1033 0.0335534 16.268 0.173553 16.3446C2.20488 17.4586 4.31488 18 6.62354 18H6.6382C9.8902 17.9973 12.9169 16.6066 15.1595 14.0853C17.1928 11.8 18.2515 8.90265 18.0175 6.29399C18.5668 5.90599 19.4228 5.15466 19.9462 4.34666C20.0282 4.22066 20.0155 4.05466 19.9148 3.94266Z" fill="black"/>
</svg>
