<svg width="88" height="20" viewBox="0 0 88 20" fill="none" xmlns="http://www.w3.org/2000/svg">
<path d="M29.102 5.307H37.415V6.463H33.93V16H32.587V6.463H29.102V5.307ZM38.5359 7.874L40.5079 14.351L42.4459 8.265H43.5679L45.4889 14.419L47.4779 7.874H48.8039L46.1519 16H44.8429L42.9729 10.305L41.1369 16H39.8449L37.1419 7.874H38.5359ZM50.9563 7.857H52.2993V16H50.9563V7.857ZM51.6193 5.953C51.3473 5.953 51.132 5.87933 50.9733 5.732C50.826 5.57333 50.7523 5.36933 50.7523 5.12C50.7523 4.85933 50.826 4.65533 50.9733 4.508C51.132 4.34933 51.3473 4.27 51.6193 4.27C51.8913 4.27 52.1066 4.34933 52.2653 4.508C52.4353 4.65533 52.5203 4.85933 52.5203 5.12C52.5203 5.36933 52.4353 5.57333 52.2653 5.732C52.1066 5.87933 51.8913 5.953 51.6193 5.953ZM60.2014 15.762C59.2267 16.2153 58.337 16.3117 57.5324 16.051C56.9544 15.8697 56.5464 15.49 56.3084 14.912C56.1837 14.6287 56.1214 14.2887 56.1214 13.892V8.894H54.8124V7.874H56.1214V5.613H57.4474V7.874H59.9974V8.894H57.4474V13.875C57.4474 14.7023 57.8327 15.116 58.6034 15.116C59.0227 15.116 59.493 15.014 60.0144 14.81L60.2014 15.762ZM66.593 15.762C65.6183 16.2153 64.7286 16.3117 63.924 16.051C63.346 15.8697 62.938 15.49 62.7 14.912C62.5753 14.6287 62.513 14.2887 62.513 13.892V8.894H61.204V7.874H62.513V5.613H63.839V7.874H66.389V8.894H63.839V13.875C63.839 14.7023 64.2243 15.116 64.995 15.116C65.4143 15.116 65.8846 15.014 66.406 14.81L66.593 15.762ZM71.5396 15.099C72.6616 15.099 73.3019 14.606 73.4606 13.62H74.8376C74.7129 14.436 74.3502 15.0707 73.7496 15.524C73.1602 15.966 72.4236 16.187 71.5396 16.187C70.4516 16.187 69.5676 15.8017 68.8876 15.031C68.2076 14.249 67.8676 13.212 67.8676 11.92C67.8676 10.628 68.2076 9.59667 68.8876 8.826C69.5789 8.05533 70.4912 7.67 71.6246 7.67C72.7692 7.67 73.6192 8.112 74.1746 8.996C74.7412 9.88 74.9396 10.9567 74.7696 12.226H69.2106C69.2106 13.0647 69.4146 13.756 69.8226 14.3C70.2306 14.8327 70.8029 15.099 71.5396 15.099ZM72.5256 8.945C72.2649 8.809 71.9476 8.741 71.5736 8.741C70.8822 8.741 70.3326 8.979 69.9246 9.455C69.5279 9.91967 69.2956 10.5033 69.2276 11.206H73.5626C73.5626 10.0727 73.2169 9.319 72.5256 8.945ZM80.7986 9.013C79.5179 9.013 78.8549 10.0217 78.8096 12.039V16H77.4666V7.857H78.8096V9.421C79.2176 8.28767 79.9373 7.721 80.9686 7.721C81.2973 7.721 81.6089 7.772 81.9036 7.874L81.8356 9.183C81.4956 9.06967 81.1499 9.013 80.7986 9.013Z" fill="#101010"/>
<path fill-rule="evenodd" clip-rule="evenodd" d="M19.9148 3.94266C19.8148 3.83066 19.6508 3.80066 19.5168 3.86733C19.3602 3.946 19.0135 4.05733 18.6342 4.154C19.0188 3.712 19.3402 3.17733 19.4682 2.70533C19.5048 2.57 19.4535 2.42733 19.3402 2.346C19.2255 2.26467 19.0735 2.264 18.9588 2.34267C18.7022 2.51733 17.4962 3.03 16.7482 3.17866C15.8195 2.36467 14.8989 2 13.7829 2C12.9569 2 12.1895 2.22733 11.2955 2.73667C9.7022 3.64466 9.46087 5.64266 9.5982 6.81399C5.19287 6.44666 2.72421 3.992 1.85222 2.92866C1.78355 2.84533 1.67822 2.798 1.57088 2.80733C1.46288 2.81533 1.36555 2.874 1.30955 2.96666C0.728218 3.92266 0.567552 4.99533 0.846218 6.06799C1.02088 6.74066 1.34755 7.33265 1.71555 7.79532C1.44822 7.65599 1.18555 7.47865 0.960885 7.29999C0.860885 7.21999 0.723552 7.20599 0.608885 7.26065C0.493552 7.31665 0.420219 7.43265 0.420219 7.56065C0.420219 9.50065 1.72822 10.8246 2.85555 11.4786C2.60688 11.4353 2.34821 11.3653 2.11022 11.2946C1.98422 11.2573 1.84822 11.2966 1.76288 11.396C1.67688 11.4946 1.65755 11.6353 1.71222 11.754C2.40288 13.2433 3.79888 14.34 5.34354 14.6693C4.00888 15.5026 2.11555 15.9186 0.370886 15.7206C0.214886 15.7053 0.06422 15.8 0.0155534 15.952C-0.0324464 16.1033 0.0335534 16.268 0.173553 16.3446C2.20488 17.4586 4.31488 18 6.62354 18H6.6382C9.8902 17.9973 12.9169 16.6066 15.1595 14.0853C17.1928 11.8 18.2515 8.90265 18.0175 6.29399C18.5668 5.90599 19.4228 5.15466 19.9462 4.34666C20.0282 4.22066 20.0155 4.05466 19.9148 3.94266Z" fill="black"/>
</svg>
