<svg width="92" height="26" viewBox="0 0 92 26" fill="none" xmlns="http://www.w3.org/2000/svg">
<g filter="url(#filter0_d)">
<path d="M33.102 5.307H41.415V6.463H37.93V16H36.587V6.463H33.102V5.307ZM42.5359 7.874L44.5079 14.351L46.4459 8.265H47.5679L49.4889 14.419L51.4779 7.874H52.8039L50.1519 16H48.8429L46.9729 10.305L45.1369 16H43.8449L41.1419 7.874H42.5359ZM54.9563 7.857H56.2993V16H54.9563V7.857ZM55.6193 5.953C55.3473 5.953 55.132 5.87933 54.9733 5.732C54.826 5.57333 54.7523 5.36933 54.7523 5.12C54.7523 4.85933 54.826 4.65533 54.9733 4.508C55.132 4.34933 55.3473 4.27 55.6193 4.27C55.8913 4.27 56.1066 4.34933 56.2653 4.508C56.4353 4.65533 56.5203 4.85933 56.5203 5.12C56.5203 5.36933 56.4353 5.57333 56.2653 5.732C56.1066 5.87933 55.8913 5.953 55.6193 5.953ZM64.2014 15.762C63.2267 16.2153 62.337 16.3117 61.5324 16.051C60.9544 15.8697 60.5464 15.49 60.3084 14.912C60.1837 14.6287 60.1214 14.2887 60.1214 13.892V8.894H58.8124V7.874H60.1214V5.613H61.4474V7.874H63.9974V8.894H61.4474V13.875C61.4474 14.7023 61.8327 15.116 62.6034 15.116C63.0227 15.116 63.493 15.014 64.0144 14.81L64.2014 15.762ZM70.593 15.762C69.6183 16.2153 68.7286 16.3117 67.924 16.051C67.346 15.8697 66.938 15.49 66.7 14.912C66.5753 14.6287 66.513 14.2887 66.513 13.892V8.894H65.204V7.874H66.513V5.613H67.839V7.874H70.389V8.894H67.839V13.875C67.839 14.7023 68.2243 15.116 68.995 15.116C69.4143 15.116 69.8846 15.014 70.406 14.81L70.593 15.762ZM75.5396 15.099C76.6616 15.099 77.3019 14.606 77.4606 13.62H78.8376C78.7129 14.436 78.3502 15.0707 77.7496 15.524C77.1602 15.966 76.4236 16.187 75.5396 16.187C74.4516 16.187 73.5676 15.8017 72.8876 15.031C72.2076 14.249 71.8676 13.212 71.8676 11.92C71.8676 10.628 72.2076 9.59667 72.8876 8.826C73.5789 8.05533 74.4912 7.67 75.6246 7.67C76.7692 7.67 77.6192 8.112 78.1746 8.996C78.7412 9.88 78.9396 10.9567 78.7696 12.226H73.2106C73.2106 13.0647 73.4146 13.756 73.8226 14.3C74.2306 14.8327 74.8029 15.099 75.5396 15.099ZM76.5256 8.945C76.2649 8.809 75.9476 8.741 75.5736 8.741C74.8822 8.741 74.3326 8.979 73.9246 9.455C73.5279 9.91967 73.2956 10.5033 73.2276 11.206H77.5626C77.5626 10.0727 77.2169 9.319 76.5256 8.945ZM84.7986 9.013C83.5179 9.013 82.8549 10.0217 82.8096 12.039V16H81.4666V7.857H82.8096V9.421C83.2176 8.28767 83.9373 7.721 84.9686 7.721C85.2973 7.721 85.6089 7.772 85.9036 7.874L85.8356 9.183C85.4956 9.06967 85.1499 9.013 84.7986 9.013Z" fill="#101010"/>
<path fill-rule="evenodd" clip-rule="evenodd" d="M23.9148 3.94266C23.8148 3.83066 23.6508 3.80066 23.5168 3.86733C23.3602 3.946 23.0135 4.05733 22.6342 4.154C23.0188 3.712 23.3402 3.17733 23.4682 2.70533C23.5048 2.57 23.4535 2.42733 23.3402 2.346C23.2255 2.26467 23.0735 2.264 22.9588 2.34267C22.7022 2.51733 21.4962 3.03 20.7482 3.17866C19.8195 2.36467 18.8989 2 17.7829 2C16.9569 2 16.1895 2.22733 15.2955 2.73667C13.7022 3.64466 13.4609 5.64266 13.5982 6.81399C9.19287 6.44666 6.72421 3.992 5.85222 2.92866C5.78355 2.84533 5.67822 2.798 5.57088 2.80733C5.46288 2.81533 5.36555 2.874 5.30955 2.96666C4.72822 3.92266 4.56755 4.99533 4.84622 6.06799C5.02088 6.74066 5.34755 7.33265 5.71555 7.79532C5.44822 7.65599 5.18555 7.47865 4.96088 7.29999C4.86088 7.21999 4.72355 7.20599 4.60889 7.26065C4.49355 7.31665 4.42022 7.43265 4.42022 7.56065C4.42022 9.50065 5.72822 10.8246 6.85555 11.4786C6.60688 11.4353 6.34821 11.3653 6.11022 11.2946C5.98422 11.2573 5.84822 11.2966 5.76288 11.396C5.67688 11.4946 5.65755 11.6353 5.71222 11.754C6.40288 13.2433 7.79888 14.34 9.34354 14.6693C8.00888 15.5026 6.11555 15.9186 4.37089 15.7206C4.21489 15.7053 4.06422 15.8 4.01555 15.952C3.96755 16.1033 4.03355 16.268 4.17355 16.3446C6.20488 17.4586 8.31488 18 10.6235 18H10.6382C13.8902 17.9973 16.9169 16.6066 19.1595 14.0853C21.1928 11.8 22.2515 8.90265 22.0175 6.29399C22.5668 5.90599 23.4228 5.15466 23.9462 4.34666C24.0282 4.22066 24.0155 4.05466 23.9148 3.94266Z" fill="black"/>
</g>
<defs>
<filter id="filter0_d" x="0" y="2" width="89.9036" height="24" filterUnits="userSpaceOnUse" color-interpolation-filters="sRGB">
<feFlood flood-opacity="0" result="BackgroundImageFix"/>
<feColorMatrix in="SourceAlpha" type="matrix" values="0 0 0 0 0 0 0 0 0 0 0 0 0 0 0 0 0 0 127 0"/>
<feOffset dy="4"/>
<feGaussianBlur stdDeviation="2"/>
<feColorMatrix type="matrix" values="0 0 0 0 0 0 0 0 0 0 0 0 0 0 0 0 0 0 0.25 0"/>
<feBlend mode="normal" in2="BackgroundImageFix" result="effect1_dropShadow"/>
<feBlend mode="normal" in="SourceGraphic" in2="effect1_dropShadow" result="shape"/>
</filter>
</defs>
</svg>
